<?xml version="1.0" encoding="utf-8"?>
<!-- Generator: Adobe Illustrator 15.1.0, SVG Export Plug-In . SVG Version: 6.00 Build 0)  -->
<!DOCTYPE svg PUBLIC "-//W3C//DTD SVG 1.1//EN" "http://www.w3.org/Graphics/SVG/1.1/DTD/svg11.dtd">
<svg version="1.1" id="Layer_1" xmlns="http://www.w3.org/2000/svg" xmlns:xlink="http://www.w3.org/1999/xlink" x="0px" y="0px"
	 width="422.977px" height="299.076px" viewBox="0 0 422.977 299.076" enable-background="new 0 0 422.977 299.076"
	 xml:space="preserve">
<path fill="#228643" d="M265.843,186.813c0,0-8.883,12.885-6.479,26.936c1.298,7.573,22.837,35.979,10.987,49.068
	c0,0,3.151-7.33,1.157-15.047c-1.996-7.717-16.479-24.315-16.505-37.182C254.979,197.724,265.843,186.813,265.843,186.813z"/>
<path fill="#43A047" d="M269.653,200.608c-2.365,4.16,2.021,19.592,3.027,29.687c1.011,10.093-7.468,26.542-3.101,32.668
	c0,0-4.365-4.741-2.406-15.237c1.958-10.494,4.151-14.033,2.733-18.813C263.33,206.758,269.653,200.608,269.653,200.608z"/>
<path fill="#22775E" d="M272.548,262.364c0,0,10.085-5.762,9.072-15.855c-1.01-10.093-8.758-23.539-4.815-31.859
	c0,0-5.526,7.334-3.136,15.645C276.063,238.603,280.448,253.243,272.548,262.364z"/>
<path fill="#558B2F" d="M262.333,234.89c3.567,3.756-1.336,25.541,6.191,27.899c0,0-6.729,0.407-7.735-8.497
	C259.779,245.39,262.333,234.89,262.333,234.89z"/>
</svg>
