<?xml version="1.0" encoding="utf-8"?>
<!-- Generator: Adobe Illustrator 15.1.0, SVG Export Plug-In . SVG Version: 6.00 Build 0)  -->
<!DOCTYPE svg PUBLIC "-//W3C//DTD SVG 1.1//EN" "http://www.w3.org/Graphics/SVG/1.1/DTD/svg11.dtd">
<svg version="1.1" id="Layer_1" xmlns="http://www.w3.org/2000/svg" xmlns:xlink="http://www.w3.org/1999/xlink" x="0px" y="0px"
	 width="422.977px" height="299.076px" viewBox="0 0 422.977 299.076" enable-background="new 0 0 422.977 299.076"
	 xml:space="preserve">
<g>
	<g opacity="0.8">
		<path fill="#996948" d="M158.667,175.631c-1.406-0.962-4.529-4.214-5.87-4.441c-2.211-0.262-6.555,6.136-6.374,10.105
			c5.482,3.231,12.11,6.427,15.005,8.698c0.388,0.308,0.891,0.397,1.118,0.148c2.122-2.32,4.396-4.264,5.108-7.284
			C162.608,178.437,161.358,177.481,158.667,175.631z"/>
		<path opacity="0.28" fill="#DDAF73" enable-background="new    " d="M156.706,177.353c0.223,0.079,0.478-0.046,0.566-0.277
			c0.09-0.232-0.021-0.484-0.246-0.564c-0.224-0.078-0.478,0.045-0.566,0.279C156.371,177.021,156.481,177.273,156.706,177.353z"/>
		<path opacity="0.28" fill="#DDAF73" enable-background="new    " d="M154.762,178.831c0.269,0.095,0.573-0.055,0.68-0.334
			c0.104-0.278-0.027-0.582-0.297-0.676c-0.268-0.098-0.572,0.053-0.678,0.33C154.361,178.433,154.493,178.737,154.762,178.831z"/>
		<path opacity="0.28" fill="#DDAF73" enable-background="new    " d="M154.006,180.982c-0.15-0.051-0.319,0.031-0.378,0.188
			c-0.059,0.154,0.015,0.322,0.164,0.375c0.15,0.054,0.319-0.029,0.378-0.186S154.155,181.036,154.006,180.982z"/>
		<path opacity="0.28" fill="#DDAF73" enable-background="new    " d="M153.934,174.465c0.165,0.059,0.35-0.033,0.416-0.205
			c0.063-0.17-0.016-0.356-0.181-0.413c-0.165-0.059-0.35,0.032-0.416,0.202C153.688,174.221,153.77,174.407,153.934,174.465z"/>
		<path opacity="0.28" fill="#DDAF73" enable-background="new    " d="M151.675,177.581c-0.112,0.295,0.027,0.615,0.312,0.716
			c0.283,0.102,0.604-0.058,0.717-0.353c0.111-0.294-0.029-0.613-0.313-0.714C152.107,177.131,151.787,177.286,151.675,177.581z"/>
		<path opacity="0.28" fill="#DDAF73" enable-background="new    " d="M151.465,181.934c0.493,0.174,1.051-0.101,1.246-0.61
			c0.193-0.511-0.049-1.067-0.542-1.242c-0.493-0.174-1.051,0.101-1.245,0.613C150.729,181.202,150.97,181.76,151.465,181.934z"/>
		<path opacity="0.28" fill="#DDAF73" enable-background="new    " d="M148.898,178.911c-0.569-0.2-1.211,0.115-1.435,0.705
			c-0.223,0.588,0.056,1.229,0.624,1.431c0.568,0.198,1.211-0.117,1.435-0.705C149.745,179.753,149.466,179.112,148.898,178.911z"/>
		<path opacity="0.28" fill="#DDAF73" enable-background="new    " d="M152.364,174.354c0.299,0.107,0.637-0.059,0.756-0.368
			c0.117-0.311-0.029-0.647-0.329-0.753c-0.299-0.106-0.637,0.06-0.754,0.371C151.918,173.911,152.065,174.247,152.364,174.354z"/>
		<path opacity="0.28" fill="#DDAF73" enable-background="new    " d="M150.576,176.271c0.298,0.104,0.637-0.062,0.754-0.368
			c0.117-0.312-0.029-0.647-0.329-0.754c-0.299-0.104-0.637,0.061-0.755,0.37S150.276,176.165,150.576,176.271z"/>
		<path fill="#65A7D1" d="M153.438,178.155c1.44-1.779,2.658-3.295,3.888-4.801c0.561-0.685,1.298-1.066,2.175-1.197
			c0.576-0.086,0.98,0.131,0.993,0.715c0.021,1.119,0.652,1.725,1.546,2.267c1.964,1.187,3.901,2.421,5.794,3.714
			c0.441,0.301,0.667,0.917,0.993,1.389c0.134,0.192,0.222,0.445,0.401,0.572c3.279,2.318,6.563,4.633,9.857,6.93
			c0.923,0.646,2.065,0.492,3.159-0.403c0.867-0.709,1.656-1.519,2.553-2.185c2.41-1.789,5.22-2.08,8.109-2.06
			c3.646,0.022,6.739,1.449,9.659,3.526c9.416,6.69,18.891,13.301,28.313,19.981c9.994,7.085,19.935,14.247,29.953,21.297
			c1.673,1.177,2.271,2.582,2.101,4.503c-0.285,3.215-1.225,6.25-2.492,9.189c-2.316,5.367-5.512,10.167-9.567,14.368
			c-2.134,2.209-4.474,4.174-7.377,5.368c-2.085,0.856-3.864,0.564-5.747-0.713c-5.243-3.558-10.589-6.963-15.893-10.432
			c-6.346-4.15-12.683-8.316-19.036-12.458c-5.456-3.554-10.96-7.036-16.382-10.64c-3.528-2.346-7.045-4.73-10.39-7.326
			c-3.217-2.496-5.22-5.828-5.75-9.977c-0.292-2.3,0.2-4.39,1.212-6.428c0.859-1.73,0.464-3.063-1.138-4.094
			c-3.104-1.999-6.206-4.002-9.328-5.973c-0.322-0.203-0.775-0.19-1.163-0.299c-0.511-0.141-1.094-0.19-1.512-0.479
			c-1.892-1.298-3.748-2.652-5.591-4.018c-0.648-0.481-1.299-0.656-2.095-0.478c-1.034,0.233-1.172,0.081-1.384-0.976
			c-0.187-0.937-0.002-1.805,0.451-2.598C151.01,182.243,152.316,180.061,153.438,178.155z"/>
		<path fill="#65A7D1" d="M165.538,177.739c0-1.101,0.345-2.207,1.07-3.146c1.741-2.254,4.979-2.671,7.232-0.93
			c2.253,1.742,2.668,4.979,0.928,7.232c-0.725,0.938-1.709,1.553-2.775,1.831l2.486,1.921c0.895-0.498,1.705-1.181,2.37-2.042
			c2.636-3.409,2.005-8.311-1.405-10.944c-3.409-2.633-8.308-2.004-10.943,1.405c-0.666,0.863-1.121,1.82-1.377,2.811
			L165.538,177.739z"/>
		<path opacity="0.4" fill="#FFFFFF" enable-background="new    " d="M152.912,185.881l6.436-10.17l-0.078-0.552
			c-0.971,1.465-5.554,7.453-6.728,10.486L152.912,185.881z"/>
		<path opacity="0.21" fill="#DAF2F2" enable-background="new    " d="M258.615,241.379c1.142-2.648,1.986-5.38,2.244-8.272
			c0.059-0.681,0.007-1.287-0.162-1.839c-0.211,0.787-0.434,1.575-0.682,2.361c-1.998,4.188-3.996,8.379-5.992,12.567
			c-3.358,5.59-7.727,10.043-13.099,13.363c0.779,0.064,1.581-0.066,2.44-0.42c2.613-1.075,4.717-2.843,6.638-4.832
			C253.657,250.528,256.53,246.208,258.615,241.379z"/>
	</g>
	<polygon fill="#D9CE5F" points="195.234,204.51 202.495,207.893 206.023,199.934 201.098,195.599 196.999,193.594 193.187,195.075 
		191.514,199.452 191.857,201.641 193.544,203.528 	"/>
	<path opacity="0.29" fill="#FFFFFF" enable-background="new    " d="M154.892,187.356l6.594-10.291l-1.498,1.15
		c-1.188,1.152-4.472,6.215-5.409,8.945L154.892,187.356z"/>
	<g>
		<path fill="#F0E369" d="M201.928,194.021c0,0-1.534-1.91-4.229-1.779c-2.658,0.127-5.696,2.865-6.212,5.771
			c-1.112,6.26,4.088,6.124,4.088,6.124s-3.437-0.526-3.207-4.001c0.132-1.995,0.967-4.247,3.9-5.132
			c3.128-0.943,5.068,0.709,5.837,2.921c0.956,2.751,0.312,6.32,0.312,6.32s0.747-2.85,0.772-5.104
			C203.215,196.885,201.928,194.021,201.928,194.021z"/>
		<path fill="#F0E369" d="M200.958,193.194l30.373,23.598l18.694,10.545c0,0,4.761,6.447-2.604,15.791
			c-5.351,6.79-9.782,5.033-9.782,5.033L208.99,228.53l-23.174-15.125c0,0,3.795,1.59,7,0.738c3.289-0.874,5.595-3.015,7.884-6.163
			c2.331-3.204,2.547-9.003,2.04-11.521C202.435,194.948,200.958,193.194,200.958,193.194z"/>
		<g>
			<g id="XMLID_2_">
				<g>
					<path d="M239.17,242.948c0.155,0.465,0.127,1.039-0.379,1.615c-1.113,1.277-3.605-0.533-3.261-1.964
						c0.329-0.035,0.68,0.029,1.021,0.028c-0.017,0.476,0.33,1.307,1.049,1.313c0.118,0.001,0.289-0.027,0.395-0.154
						c0.422-0.491-0.159-0.967-0.398-1.338c-0.242-0.371-0.512-0.869-0.498-1.289c0.028-1.203,1.287-1.864,2.383-1.211
						c0.689,0.416,0.92,0.929,0.863,1.642c-0.324-0.009-0.65-0.026-0.967,0.006c-0.097-0.126,0.02-0.397-0.154-0.622
						c-0.238-0.304-0.701-0.396-0.92-0.073C237.948,241.42,238.934,242.253,239.17,242.948z"/>
					<path d="M240.632,235.866c0.112,0.272-0.129,0.686-0.411,0.811c0.055,0.115,0.234,0.268,0.363,0.236
						c0.035-0.385,0.346-0.758,0.655-0.952c0.01,0.282-0.159,0.862-0.5,0.939c-0.036,0.108-0.005,0.181,0.05,0.218
						c0.386,0.299,0.384-0.938,0.842-0.902c0.102,0.16-0.085,0.379-0.143,0.576c0.128,0.018,0.212-0.174,0.341-0.188
						c0.106,0.168-0.246,0.431-0.169,0.601c-0.37-0.037-0.299,0.557,0.052,0.328c-0.069-0.228,0.214-0.709,0.49-0.759
						c0.118,0.079-0.003,0.21-0.019,0.319c0.142,0.051,0.219-0.227,0.375-0.125c-0.064,0.171-0.183,0.355-0.271,0.529
						c0.249-0.146,0.429-0.604,0.685-0.711c0.139,0.184-0.117,0.445-0.173,0.672c0.188-0.006,0.31-0.319,0.501-0.314
						c-0.097,0.271-0.316,0.566-0.347,0.82c-0.138-0.114-0.297,0.111-0.308,0.248c-0.045,0.078,0.08,0.119,0.148,0.168
						c-0.096,0.15-0.191,0.3-0.288,0.447c-14.417-9.332-28.836-18.668-43.251-28.002c0.294-0.382,0.536-1.01,0.884-1.136
						c0.179,0.298-0.165,0.632-0.413,0.812c0.019,0.158,0.321,0.367,0.461,0.262c-0.036-0.322,0.224-0.648,0.508-0.785
						c0.033,0.314-0.107,0.673-0.43,0.836c-0.043,0.16,0.328,0.344,0.455,0.331c0.086-0.344,0.207-0.591,0.52-0.743
						c0.087,0.164-0.18,0.398-0.149,0.573c-0.077,0.063-0.174,0.031-0.249,0.101c-0.135,0.219,0.212,0.479,0.373,0.276
						c0.014-0.259,0.264-0.821,0.582-0.774c-0.028,0.307-0.201,0.703-0.509,0.787c-0.165,0.487,0.539,0.291,0.319-0.092
						c0.2-0.085,0.344-0.422,0.557-0.459c0.076,0.157-0.192,0.391-0.218,0.568c0.159-0.001,0.261-0.256,0.431-0.206
						c-0.032,0.141-0.128,0.298-0.177,0.444c0.212,0.096,0.31-0.318,0.5-0.312c0.115,0.312-0.209,0.671-0.476,0.845
						c-0.031,0.149,0.208,0.268,0.308,0.161c0.055-0.265,0.232-0.833,0.577-0.78c-0.005,0.186-0.118,0.389-0.148,0.575
						c0.179-0.04,0.294-0.392,0.47-0.438c0.189,0.118-0.034,0.323-0.052,0.485c0.168-0.052,0.312-0.223,0.47-0.326
						c-0.102,0.32-0.489,0.707-0.594,1.027c0.144-0.005,0.238-0.232,0.358-0.328c0.432-0.092,0.772,0.457,1.145,0.704
						c-0.08,0.152-0.252,0.326-0.26,0.466c0.279,0.147,0.496,0.004,0.697-0.22c0.472,0.087,0.757,0.578,0.27,0.845
						c0.047,0.09,0.269,0.233,0.372,0.239c0.121-0.085,0.075-0.255,0.18-0.401c0.373-0.14,0.567,0.338,0.883,0.533
						c-0.03,0.084-0.029,0.276-0.074,0.286c-0.068,0.163-0.221-0.057-0.309,0.021c0.103,0.221,0.467,0.352,0.68,0.443
						c0.687-1.123,2.031-2.854,2.595-4.011c0.144-0.292-0.265-0.644-0.603-0.501c-0.088,0.173-0.178,0.471-0.342,0.521
						c-0.078,0.009-0.261-0.108-0.285-0.185c-0.006-0.274,0.566-0.539,0.248-0.731c-0.172,0.103-0.285,0.492-0.459,0.595
						c-0.08,0.007-0.26-0.11-0.289-0.187c0.013-0.203,0.393-0.49,0.33-0.681c-0.271-0.126-0.262,0.456-0.496,0.538
						c-0.101,0.04-0.268-0.092-0.332-0.182c0.056-0.19,0.272-0.356,0.391-0.602c-0.055-0.046-0.072-0.121-0.152-0.102
						c-0.102,0.086-0.256,0.486-0.422,0.588c-0.083,0.002-0.279-0.127-0.314-0.208c0.041-0.228,0.277-0.382,0.393-0.603
						c-0.057-0.048-0.077-0.121-0.159-0.102c-0.097,0.104-0.241,0.413-0.387,0.602c-0.101-0.007-0.205-0.041-0.322-0.135
						c-0.169-0.253,0.548-0.561,0.238-0.771c-0.144,0.033-0.269,0.482-0.456,0.596c-0.121-0.043-0.273-0.11-0.344-0.221
						c0.184-0.24,0.546-0.599,0.217-0.791c1.166,0.672,2.373,1.539,3.535,2.178c0.031-0.143-0.174-0.232-0.258-0.354
						c0.973,0.435,1.219,1.352,2.304,1.899c-0.072,0.042-0.173-0.04-0.259-0.054c0.8,0.828,2.103,1.55,3.223,2.308
						c0.107,0.097,0.162-0.087,0.258-0.053c0.506,0.376,1.131,0.684,1.637,1.094c0.293,0.24,0.353,0.582,0.763,0.715
						c-0.039,0.168-0.161,0.392-0.313,0.539c-0.062-0.036-0.123-0.073-0.184-0.112c0.02-0.197,0.244-0.302,0.236-0.48
						c-0.157-0.039-0.226,0.361-0.366,0.395c-0.062-0.041-0.123-0.078-0.185-0.117c-0.021-0.147,0.297-0.366,0.209-0.498
						c-0.164-0.014-0.177,0.388-0.367,0.395c-0.062-0.039-0.121-0.081-0.187-0.118c0.007-0.184,0.3-0.288,0.224-0.452
						c-0.16-0.076-0.182,0.309-0.354,0.364c-0.066-0.043-0.137-0.087-0.207-0.135c-0.014-0.181,0.304-0.351,0.238-0.478
						c-0.16-0.041-0.223,0.361-0.367,0.395c-0.064-0.04-0.122-0.079-0.188-0.121c0.01-0.167,0.248-0.336,0.266-0.46
						c-0.217-0.094-0.279,0.534-0.521,0.336c-0.194-0.123,0.177-0.364,0.162-0.528c-0.194-0.109-0.251,0.444-0.444,0.342
						c-0.021-0.013-0.035-0.021-0.053-0.033c-0.205-0.119,0.176-0.37,0.158-0.529c-0.143-0.096-0.158,0.217-0.291,0.332
						c-0.085,0.027-0.171,0.063-0.279-0.032c-0.006,0.138,0.168,0.304-0.045,0.419c0.102,0.053,0.168,0.113,0.219,0.178
						c0.084,0.222-0.198,0.699-0.431,0.839c-0.157-0.104-0.336-0.199-0.387-0.326c0.039-0.245,0.284-0.511,0.468-0.663
						c-0.318,0.052-0.504,0.621-0.749,1.038c-0.376,0.646-0.882,1.274-1.161,1.853c0.227-0.082,0.356-0.58,0.58-0.664
						c0.109,0.018,0.238,0.118,0.357,0.192c0.05-0.137-0.346-0.183-0.229-0.332c0.09-0.146,0.307,0.101,0.375,0.166
						c0.103-0.155-0.265-0.213-0.305-0.343c0.102-0.329,0.41-0.768,0.631-0.969c0.115,0.018,0.36,0.173,0.419,0.271
						c-0.216,0.545-0.841,1.174-0.985,1.701c0.119,0.054,0.17-0.249,0.277-0.266c0.143-0.008,0.317,0.129,0.479,0.237
						c-0.002-0.157-0.354-0.239-0.373-0.396c0.044-0.211,0.439,0.1,0.441,0.178c0.197-0.12-0.221-0.254-0.268-0.396
						c0.07-0.289,0.406-0.82,0.656-0.949c0.152,0.037,0.375,0.188,0.427,0.313c-0.321,0.537-0.753,1.098-1.006,1.616
						c0.123,0.062,0.188-0.165,0.29-0.222c0.131,0.045,0.271,0.136,0.412,0.229c0.033-0.156-0.289-0.236-0.354-0.376
						c0.091-0.028,0.159,0.017,0.284-0.039c0.172,0.064,0.059,0.187,0.167,0.259c0.259-0.142-0.233-0.269-0.29-0.41
						c0.157-0.306,0.443-0.885,0.727-0.948c0.135,0.026,0.299,0.159,0.391,0.258c-0.342,0.661-0.866,1.36-1.277,2.033
						c0.118,0.155,0.27-0.173,0.215,0.065c0.114-0.139,0.276-0.462,0.418-0.584c0.11-0.004,0.258,0.147,0.383,0.211
						c0.041,0.104-0.123,0.254-0.127,0.364c0.035,0.081,0.23,0.207,0.318,0.207c0.105,0.034,0.166-0.136,0.262-0.131
						c0.127-0.026,0.194,0.171,0.282,0.147c0.404-0.221,0.681-1.043,1.056-1.4c0.168,0.054,0.281,0.213,0.496,0.322
						c-0.287,0.416-0.382,1.072-0.804,1.301c-0.153-0.092-0.014-0.153,0.058-0.262c-0.149-0.063-0.336-0.299-0.443-0.176
						c0,0.039,0.379,0.086,0.279,0.256c-0.129,0.176-0.383-0.229-0.502-0.026c0.146,0.136,0.65,0.282,0.429,0.649
						c0.108,0.041,0.157-0.195,0.271-0.123c0.055,0.033,0.104,0.067,0.155,0.103c0.085,0.261-0.376,0.64-0.063,0.849
						c0.231-0.24,0.513-0.269,0.765-0.435c0.137,0.05,0.343,0.149,0.375,0.28c-0.16,0.291-0.458,0.549-0.272,0.713
						c0.256,0.234,0.383-0.311,0.633-0.518c0.133,0.006,0.301,0.17,0.393,0.254c-0.036,0.119-0.088,0.246,0.004,0.336
						c0.159,0.106,0.256-0.064,0.378-0.125c0.162,0.078,0.19,0.186,0.349,0.262c-0.033,0.16-0.196,0.344-0.297,0.516
						c-0.037,0.176,0.185,0.268,0.338,0.294c0.137-0.104,0.244-0.341,0.361-0.511c0.26,0.033,0.755,0.333,0.582,0.602
						c0.229-0.031,0.667-0.048,0.826,0.271c-0.189,0.098-0.289,0.195-0.4,0.447c0.059,0.039,0.047,0.096,0.141,0.128
						c0.191-0.027,0.221-0.288,0.391-0.489c0.377,0.07,0.938,0.592,1.286,0.829c-0.144,0.233-0.052,0.418,0.017,0.606
						c0.155-0.168,0.105-0.293,0.219-0.453c0.219,0.012,0.443,0.254,0.591,0.346c-0.026,0.105-0.103,0.22-0.091,0.314
						c0.154,0.195,0.426,0.194,0.563-0.008c0.166,0.126,0.261,0.147,0.353,0.266c-0.025,0.17-0.267,0.386-0.285,0.558
						c0.207,0.332,0.425-0.065,0.578-0.328c0.136-0.026,0.314,0.121,0.414,0.226c-0.189,0.351,0.229,0.516,0.436,0.248
						c0.161,0.078,0.189,0.187,0.35,0.264c-0.115,0.193-0.314,0.417-0.301,0.586c0.143,0.076,0.21-0.205,0.342-0.189
						c0.107,0.07,0.219,0.137,0.271,0.215c0.128,0.063,0.188-0.187,0.3-0.179c0.072,0.045,0.141,0.095,0.208,0.136
						c-0.021,0.172-0.261,0.389-0.283,0.559c0.212,0.021,0.206-0.324,0.386-0.421c0.166-0.056,0.408,0.085,0.502,0.252
						c-0.018,0.128-0.144,0.274-0.228,0.411c0.142-0.004,0.228-0.275,0.341-0.411c0.1-0.162-0.25-0.233-0.238-0.38
						c0.096-0.271,0.322,0.101,0.356,0.085c0.019-0.188-0.291-0.224-0.37-0.353c0.064-0.322,0.463-0.673,0.652-1.063
						c0.168-0.036,0.402,0.277,0.566,0.217c-0.248,0.52-0.685,1.08-1.008,1.615c0.247-0.01,0.461,0.218,0.627,0.406
						c0.008,0.136-0.041,0.279-0.047,0.416c0.149-0.112,0.264-0.396,0.438-0.388c0.108,0.068,0.215,0.134,0.27,0.214
						c-0.091,0.238-0.163,0.471-0.231,0.701c0.188,0.018,0.268-0.242,0.365-0.392c0.293-0.451,0.653-1.058,0.979-1.449
						c0.142,0.035,0.379,0.188,0.47,0.305c-0.076,0.269-0.414,0.697-0.625,0.97c-0.146,0.037-0.376-0.351-0.482-0.125
						c0.011,0.051,0.3,0.004,0.336,0.179c-0.021,0.024-0.035,0.052-0.055,0.08c-0.097,0.114-0.283-0.203-0.382-0.101
						c-0.018,0.123,0.29,0.158,0.36,0.307c-0.003,0.189-0.368,0.457-0.295,0.627c0.479-0.438,0.854-1.353,1.318-1.858
						c0.144,0.112,0.377,0.202,0.45,0.329c-0.126,0.293-0.409,0.732-0.628,0.967c-0.123,0.025-0.302-0.225-0.427-0.197
						c-0.111,0.172,0.284,0.071,0.31,0.27c-0.105,0.188-0.289-0.014-0.441-0.063c0.029,0.166,0.242,0.159,0.333,0.291
						c0.043,0.064-0.015,0.152,0.003,0.226c0.376-0.282,0.65-1.04,1.011-1.392c0.131,0.008,0.293,0.17,0.437,0.246
						c-0.068,0.293-0.424,0.842-0.664,1.021c-0.155-0.005-0.267-0.292-0.414-0.158c0.006,0.078,0.361,0.071,0.324,0.245
						c-0.076,0.146-0.201,0.048-0.322-0.02c-0.045,0.102,0.147,0.149,0.229,0.222c0.035,0.1-0.105,0.233-0.107,0.337
						c0.412-0.436,0.853-1.205,1.262-1.781c0.251-0.344,0.414-0.615,0.389-0.941c0.07-0.094,0.176-0.029,0.27-0.01
						c-0.01-0.115-0.149-0.209-0.116-0.337c0.058-0.123,0.226-0.272,0.21-0.385c-0.186-0.092-0.25,0.366-0.408,0.403
						c-0.097-0.036-0.109-0.096-0.169-0.146c0.005-0.144,0.231-0.333,0.236-0.478c-0.228-0.063-0.206,0.399-0.412,0.402
						c-0.052-0.031-0.103-0.066-0.153-0.102c-0.035-0.141,0.197-0.346,0.211-0.495c-0.189-0.039-0.246,0.54-0.474,0.327
						c-0.196-0.152,0.252-0.436,0.174-0.559c-0.171-0.03-0.239,0.431-0.41,0.403c-0.094-0.039-0.108-0.097-0.167-0.146
						c-0.002-0.183,0.271-0.282,0.266-0.461c-0.176-0.1-0.242,0.283-0.368,0.394c-0.099-0.013-0.185-0.071-0.238-0.153
						c0.097-0.193,0.209-0.272,0.245-0.436c-0.209-0.053-0.194,0.322-0.391,0.379c-0.371-0.117,0.141-0.423,0.052-0.6
						c-0.179,0.011-0.167,0.322-0.351,0.365c-0.084,0.022-0.133-0.063-0.183-0.113c0.114-0.162,0.219-0.387,0.345-0.483
						c0.289,0.14,0.592,0.356,0.816,0.229c0.552,0.393,1.219,0.871,1.81,1.173c0.105,0.092-0.012,0.229,0.136,0.312
						c-0.063,0.022-0.142-0.017-0.197,0.018c-0.604,1.134-1.633,2.262-2.174,3.354c-0.053,0.109-0.107,0.249-0.099,0.381
						c0.148,0.091,0.242-0.054,0.368-0.058c0.3,0.145,0.404,0.32,0.406,0.523c0.156-0.063,0.223,0.002,0.392-0.084
						c0.077-0.104-0.028-0.172,0.03-0.275c0.063-0.127,0.168-0.063,0.25-0.1c-0.105-0.143-0.26,0.041-0.278-0.031
						c0.017-0.106,0.067-0.119,0.138-0.209c0.199,0.004,0.625,0.137,0.519,0.41c-0.024,0.063-0.071,0.023-0.115,0
						c0.029,0.069,0.117,0.125,0.091,0.205c-0.125,0.147-0.314,0.267-0.201,0.43c0.17-0.051,0.283-0.35,0.432-0.502
						c0.178-0.033,0.49,0.059,0.646,0.271c-0.045,0.142-0.133,0.077-0.203,0.089c0.058,0.084,0.043,0.188-0.053,0.303
						c-0.07,0.058-0.17-0.021-0.25-0.015c-0.016,0.241,0.06,0.546,0.41,0.636c0.363-0.25,0.633-1.043,0.938-1.283
						c0.119,0.016,0.357,0.17,0.422,0.271c0.025,0.162-0.159,0.319-0.264,0.464c-0.11,0.002-0.266-0.176-0.377-0.171
						c-0.082-0.014-0.142,0.108-0.203,0.203c0.06,0.082,0.256,0.118,0.324,0.247c0.012,0.102-0.01,0.212-0.106,0.34
						c0.313-0.091,0.497-0.757,0.784-0.982c0.151,0.033,0.34,0.199,0.511,0.298c-0.063,0.178-0.187,0.362-0.319,0.499
						c-0.137-0.006-0.318-0.221-0.455-0.223c-0.014,0.034-0.033,0.045-0.058,0.037c-0.212,0.245,0.252,0.354,0.315,0.541
						c-0.131,0.19-0.24,0.29-0.324,0.497c0.188,0.022,0.265-0.228,0.354-0.37c0.29-0.436,0.643-1.035,0.959-1.424
						c0.153-0.023,0.354,0.178,0.512,0.186c-0.037-0.112-0.262-0.182-0.373-0.276c0.073-0.008,0.156,0.028,0.244,0.08
						c-0.016-0.086-0.211-0.134-0.187-0.229c0.073-0.207,0.233-0.395,0.384-0.535c-0.025-0.051-0.229,0.01-0.236-0.151
						c-0.017,0.167-0.101,0.353-0.244,0.548c-0.189,0.075-0.414-0.12-0.559-0.284c0.164-0.282,0.342-0.522,0.557-0.571
						c-0.131-0.037-0.24,0.018-0.338,0.117c0.088-0.289-0.24-0.492-0.293-0.75c0.648,0.334,1.317,0.756,1.965,1.088
						c0.152-0.102,0.522-0.528,0.437-0.721c-0.181-0.02-0.256,0.419-0.418,0.473c-0.06-0.041-0.124-0.082-0.183-0.119
						c-0.004-0.195,0.349-0.42,0.285-0.557c-0.203-0.066-0.246,0.51-0.487,0.463c-0.044-0.029-0.089-0.059-0.134-0.088
						c0.011-0.162,0.285-0.388,0.289-0.555c-0.186-0.063-0.272,0.334-0.418,0.473c-0.063-0.031-0.125-0.021-0.199-0.094
						c-0.082-0.164,0.318-0.428,0.233-0.592c-0.198-0.082-0.274,0.406-0.442,0.457c-0.396-0.164,0.221-0.465,0.127-0.662
						c-0.195-0.061-0.26,0.611-0.538,0.436c-0.23-0.172,0.343-0.494,0.182-0.627c-0.185-0.104-0.228,0.563-0.478,0.396
						c-0.101-0.18,0.113-0.27,0.221-0.453c0.014-0.184-0.357-0.343-0.512-0.366c-0.12,0.16-0.225,0.418-0.36,0.509
						c-0.08-0.061-0.132-0.121-0.179-0.189c0.126-0.184,0.244-0.365,0.271-0.531c-0.224-0.1-0.293,0.449-0.51,0.563
						c-0.286-0.196,0.142-0.539,0.142-0.799c-0.174-0.009-0.261,0.41-0.412,0.476c-0.102-0.047-0.147-0.106-0.196-0.162
						c0.084-0.185,0.354-0.409,0.245-0.551c-0.213,0.021-0.202,0.403-0.396,0.489c-0.06-0.039-0.12-0.078-0.182-0.114
						c0.024-0.169,0.213-0.366,0.312-0.543c0.904,0.432,1.885,1.198,2.766,1.526c-0.008-0.104-0.271-0.149-0.28-0.254
						c0.28,0.078,0.692,0.364,1.021,0.549c0.473,0.265,1.072,0.121,1.635,0.687c-0.108,0.022-0.254-0.134-0.346-0.037
						c1.108,0.833,2.373,1.63,3.59,2.437c-0.061,0.027-0.375-0.217-0.5-0.14c-0.185,0.123-0.211,0.363-0.357,0.547
						c-0.122-0.077-0.266-0.151-0.323-0.245c0.052-0.203,0.257-0.433,0.392-0.603c-0.246-0.33-0.336,0.364-0.574,0.485
						c-0.09-0.002-0.284-0.125-0.313-0.207c0.016-0.23,0.391-0.488,0.354-0.66c-0.279-0.131-0.295,0.363-0.514,0.559
						c-0.096,0-0.301-0.134-0.342-0.218c-0.001-0.258,0.488-0.517,0.303-0.696c-0.207-0.027-0.28,0.488-0.502,0.604
						c-0.093-0.069-0.246-0.13-0.271-0.214c0.025-0.201,0.328-0.461,0.354-0.661c-0.293-0.155-0.302,0.459-0.555,0.571
						c-0.088,0.002-0.277-0.121-0.313-0.205c-0.014-0.26,0.518-0.494,0.302-0.694c-0.213-0.04-0.318,0.407-0.486,0.575
						c-0.12-0.004-0.301-0.152-0.321-0.245c0.127-0.212,0.261-0.4,0.397-0.56c-0.069-0.18-0.438-0.513-0.663-0.357
						c-0.047,0.033-0.184,0.24-0.229,0.301c-0.523,0.712-1.346,2.22-1.935,2.984c-0.218,0.287-0.276,0.619-0.196,0.875
						c0.22,0.146,0.34-0.176,0.519-0.223c0.088,0.021,0.181,0.074,0.276,0.146c0.099-0.047,0.182-0.154,0.258-0.28
						c0.16,0.046,0.436,0.224,0.551,0.354c-0.038,0.062-0.078,0.123-0.118,0.186c-0.088,0.073-0.243-0.15-0.329-0.064
						c-0.076,0.146,0.163,0.11,0.209,0.248c0.004,0.114-0.173,0.263-0.166,0.371c0.182,0.096,0.312-0.084,0.453-0.188
						c0.564,0.285,0.946,0.711,1.535,0.959c0.078,0.139-0.075,0.318-0.12,0.48c0.086,0.024,0.045,0.08,0.115,0.108
						c0.171-0.17,0.464-0.487,0.729-0.271c0.144,0.115,0.086,0.258,0.075,0.459C240.262,236.303,240.402,235.944,240.632,235.866z
						 M210.195,213.335c-0.133,0.318-0.36,0.727-0.665,0.535c0.065,0.043,0.151,0.082,0.112,0.149
						c-0.123-0.081-0.244-0.159-0.367-0.239c-0.047,0.152,0.23,0.235,0.369,0.353c-0.037,0.61-1.138,1.521-1.155,2.188
						c0.135-0.213,0.272-0.42,0.405-0.631c0.146-0.124,0.405,0.275,0.547,0.133c-0.098-0.093-0.342-0.153-0.307-0.273
						c0.096-0.133,0.27,0.125,0.381,0.098c-0.418-0.144-0.395-0.593-0.025-0.762c0.184-0.01,0.326,0.357,0.488,0.167
						c-0.098-0.104-0.252-0.201-0.404-0.296c-0.001-0.52,0.597-0.506,0.725-0.092c-0.181,0.457-0.662,0.97-0.846,1.425
						c0.209-0.048,0.367,0.146,0.561,0.175c0.063-0.109,0.195-0.236,0.047-0.307c-0.074-0.008,0.08,0.121-0.051,0.195
						c-0.171-0.094-0.277-0.197-0.316-0.315c0.072-0.002,0.156,0.092,0.217,0.063c-0.244-0.131,0.052-0.613,0.261-0.574
						c0.118,0.062,0.253,0.199,0.36,0.193c0.119-0.185-0.317-0.246-0.294-0.41c0.127,0.068,0.274,0.228,0.377,0.168
						c-0.113-0.082-0.177-0.174-0.325-0.248c0.021-0.094,0.061-0.19,0.119-0.295c0.148-0.021,0.516,0.213,0.506,0.364
						c-0.363,0.597-0.975,1.386-1.223,1.999c0.156,0.01,0.41-0.416,0.687-0.189c0.052-0.078,0.101-0.157,0.149-0.235
						c0.164-0.05,0.402,0.255,0.574,0.26c-0.086-0.177-0.572-0.269-0.465-0.489c0.234-0.065,0.473,0.231,0.543,0.428
						c-0.105,0.141-0.109,0.313-0.256,0.395c-0.096,0-0.224-0.141-0.322-0.135c-0.094,0.15,0.166,0.218,0.228,0.333
						c0.021,0.11-0.153,0.261-0.034,0.35c0.072-0.116,0.148-0.227,0.249-0.212c0.271,0.123,0.572,0.357,0.802,0.256
						c0.059-0.103,0.121-0.189,0.191-0.244c0.219,0.073,0.568,0.277,0.422,0.496c-0.08,0.109-0.197,0.06-0.293,0.106
						c0.168,0.149-0.066,0.377-0.061,0.558c0.053,0.032,0.104,0.065,0.158,0.102c0.848-1.113,1.84-2.647,2.508-3.877
						c-0.064-0.121-0.194-0.135-0.293-0.117c-0.084,0.169-0.155,0.31-0.301,0.4c-0.046,0.002-0.093-0.01-0.146-0.057
						c-0.019-0.203,0.393-0.415,0.243-0.55c-0.146-0.013-0.227,0.286-0.338,0.413c-0.08-0.006-0.155-0.004-0.246-0.085
						c-0.026-0.169,0.375-0.425,0.215-0.566c-0.189,0.099-0.277,0.655-0.555,0.347c-0.025-0.162,0.338-0.402,0.242-0.55
						c-0.146-0.081-0.143,0.146-0.223,0.229c-0.135,0.144-0.313,0.244-0.473,0.216c0.031-0.211,0.336-0.479,0.371-0.688
						c-0.269-0.015-0.414,0.524-0.695,0.439c0.006-0.245,0.488-0.533,0.303-0.695c-0.156,0.057-0.234,0.452-0.4,0.447
						c-0.061,0.016-0.132-0.05-0.201-0.091c0.029-0.149,0.209-0.404,0.322-0.499c-0.035-0.161-0.326-0.368-0.509-0.366
						c-0.101,0.173-0.155,0.317-0.312,0.431c-0.026-0.019-0.047,0-0.073-0.012c-0.249-0.178,0.437-0.539,0.14-0.613
						c-0.189,0.076-0.177,0.487-0.4,0.446c-0.074-0.046-0.125-0.094-0.118-0.153c-0.011-0.129,0.379-0.371,0.224-0.523
						c-0.15-0.016-0.199,0.458-0.4,0.445c-0.043-0.028-0.088-0.055-0.131-0.084c-0.021-0.176,0.392-0.445,0.235-0.59
						c-0.155,0.016-0.177,0.297-0.333,0.453c-0.092,0.008-0.189-0.029-0.253-0.127c-0.017-0.217,0.414-0.391,0.26-0.574
						c-0.149-0.002-0.215,0.465-0.417,0.472c-0.068-0.043-0.158-0.084-0.164-0.142c0.065-0.229,0.43-0.414,0.238-0.552
						c-0.143,0.056-0.225,0.41-0.371,0.466c-0.097,0.014-0.199-0.107-0.175-0.187c0.062-0.205,0.387-0.392,0.255-0.509
						c-0.184,0.084-0.499,0.567-0.453,0.748c0.615,0.451,1.276,0.888,1.805,1.353c-0.213-0.012-0.591-0.217-0.676,0.013
						c0.579-0.352,0.571,0.709,0.098,0.769c-0.129-0.046-0.219-0.16-0.392-0.255c-0.03-0.174,0.173-0.322,0.277-0.488
						c-0.068-0.035-0.13-0.076-0.144-0.129c0.076-0.314-0.097,0.251-0.254,0.395c-0.061-0.007-0.104,0.07-0.172,0.039
						c-0.168-0.109-0.365-0.207-0.328-0.363c0.082-0.121,0.16-0.24,0.243-0.363C210.206,213.566,210.217,213.437,210.195,213.335z
						 M242.438,238.186c0.213-0.106,0.326-0.429,0.004-0.403c-0.075,0.104-0.146,0.211-0.161,0.304
						C242.342,238.157,242.346,238.161,242.438,238.186z M242.169,237.978c0.045-0.146,0.265-0.204,0.179-0.334
						C242.134,237.51,241.787,237.917,242.169,237.978z M241.781,237.764c0.08,0.012,0.146-0.034,0.199-0.134
						c-0.013-0.059-0.125-0.133-0.186-0.118C241.734,237.61,241.689,237.7,241.781,237.764z M241.207,237.391
						c0.063-0.014,0.109-0.117,0.157-0.194c-0.009-0.072-0.063-0.134-0.173-0.188c-0.069,0.1-0.123,0.193-0.141,0.279
						C241.102,237.323,241.156,237.356,241.207,237.391z M236.475,231.204c0.029,0.09,0.108,0.172,0.213,0.137
						c-0.113-0.166,0.276-0.557,0.153-0.645C236.809,230.879,236.602,231.118,236.475,231.204z M209.395,213.712
						c-0.043-0.119,0.18-0.415,0.152-0.463c-0.104,0.24-0.255,0.217-0.38,0.353C209.227,213.696,209.307,213.713,209.395,213.712z
						 M202.96,212.741c0.165,0.178,0.329-0.113,0.353-0.256c-0.026-0.016-0.054-0.035-0.08-0.052
						C203.145,212.523,202.979,212.679,202.96,212.741z M202.105,212.112c0.094-0.147,0.028-0.261-0.058-0.369
						c-0.11,0.025-0.208,0.174-0.187,0.285C201.953,212.108,202.03,212.13,202.105,212.112z M201.624,211.874
						c0.127,0.068,0.246-0.104,0.265-0.233C201.79,211.346,201.433,211.758,201.624,211.874z"/>
					<path fill="#FFFFFF" d="M242.441,237.782c0.322-0.024,0.209,0.297-0.004,0.403c-0.092-0.024-0.097-0.028-0.157-0.101
						C242.297,237.993,242.366,237.886,242.441,237.782z"/>
					<path fill="#FFFFFF" d="M242.348,237.644c0.086,0.13-0.134,0.188-0.179,0.334C241.787,237.917,242.134,237.51,242.348,237.644z
						"/>
					<path fill="#FFFFFF" d="M241.98,237.63c-0.055,0.1-0.119,0.146-0.199,0.134c-0.092-0.063-0.047-0.153,0.015-0.252
						C241.855,237.497,241.969,237.571,241.98,237.63z"/>
					<path fill="#FFFFFF" d="M241.364,237.196c-0.048,0.077-0.095,0.182-0.157,0.194c-0.051-0.034-0.105-0.067-0.155-0.103
						c0.019-0.086,0.07-0.181,0.142-0.279C241.302,237.063,241.355,237.124,241.364,237.196z"/>
					<path d="M242.499,232.352c0.003,0.304-0.26,0.568-0.431,0.838c-0.526,0.813-1.121,1.655-1.65,2.427
						c0.557-1.078,1.338-2.211,2.002-3.314C242.443,232.319,242.471,232.335,242.499,232.352z"/>
					<path d="M241.018,232.915c0.094,0.207-0.025,0.56-0.261,0.802c-0.248,0.016-0.714-0.308-0.765-0.536
						C240.177,232.704,240.809,232.465,241.018,232.915z"/>
					<path d="M240.068,234.495c-0.063,0.086-0.123,0.229-0.198,0.244c-0.155-0.041-0.446-0.228-0.546-0.355
						C239.404,233.899,239.902,234.252,240.068,234.495z"/>
					<path d="M240.223,234.261c-0.201-0.131-0.404-0.26-0.604-0.391c0.046-0.435,0.414-0.229,0.676-0.008
						C240.313,233.987,240.294,234.118,240.223,234.261z"/>
					<path d="M236.479,238.088c0.301,0.19,0.595,0.383,0.893,0.575c-1.051,1.199-1.838,3.707-3.057,3.969
						c-1.039,0.226-2.356-1.038-2.104-2.032c0.344-0.047,0.709-0.002,1.066,0.021c-0.125,0.402,0.211,1.06,0.707,0.979
						c0.377-0.063,0.881-1.077,1.229-1.62c0.468-0.719,0.864-1.332,1.187-1.833C236.426,238.11,236.447,238.073,236.479,238.088z"/>
					<path d="M239.551,235.239c-0.02,0.097-0.058,0.157-0.139,0.209c-0.151-0.018-0.344-0.205-0.516-0.297
						C238.915,234.711,239.398,235.055,239.551,235.239z"/>
					<path d="M239.762,234.854c-0.029,0.043-0.056,0.088-0.085,0.135c-0.122-0.023-0.375-0.185-0.444-0.289
						C239.32,234.397,239.66,234.763,239.762,234.854z"/>
					<path d="M242.309,230.407c0.188,0.145-0.007,0.582-0.232,0.818c-0.133-0.025-0.396-0.197-0.475-0.309
						C241.813,230.595,242.076,230.231,242.309,230.407z"/>
					<path d="M239.027,232.485c0.543-0.938,1.547-0.099,0.746,0.631c-0.262-0.061-0.703-0.324-0.752-0.562
						C239.044,232.528,239.046,232.503,239.027,232.485z"/>
					<path d="M239.126,233.884c-0.017,0.12-0.127,0.203-0.213,0.273c-0.197-0.054-0.498-0.267-0.589-0.418
						c0.076-0.089,0.131-0.248,0.214-0.271C238.725,233.524,239.049,233.733,239.126,233.884z"/>
					<path d="M239.453,233.319c0.039,0.092-0.176,0.233-0.135,0.322c-0.213-0.048-0.473-0.314-0.687-0.374
						c0.076-0.096,0.14-0.265,0.228-0.295C239.047,233.03,239.258,233.2,239.453,233.319z"/>
					<path d="M238.598,234.583c0.018,0.074-0.078,0.168-0.125,0.255c-0.158-0.033-0.344-0.194-0.515-0.294
						C237.951,234.127,238.337,234.388,238.598,234.583z"/>
					<path d="M238.82,234.245c-0.033,0.041-0.059,0.084-0.086,0.132c-0.135-0.027-0.398-0.196-0.471-0.308
						C238.357,233.766,238.712,234.153,238.82,234.245z"/>
					<path d="M241.396,229.855c-0.004,0.207-0.09,0.543-0.315,0.728c-0.126-0.026-0.378-0.188-0.444-0.291
						C240.759,229.997,241.137,229.519,241.396,229.855z"/>
					<path d="M240.934,230.632c-0.049,0.24-0.459-0.027-0.26-0.17C240.809,230.532,240.801,230.538,240.934,230.632z"/>
					<path d="M238.068,231.898c0.518-1.018,1.565-0.131,0.733,0.591C238.527,232.413,238.087,232.161,238.068,231.898z"/>
					<path d="M238.198,233.249c0.002,0.127-0.07,0.238-0.188,0.287c-0.152-0.031-0.416-0.221-0.521-0.34
						C237.605,232.719,238.01,233.051,238.198,233.249z"/>
					<path d="M238.521,232.753c-0.017,0.142-0.143,0.281-0.26,0.275c-0.162-0.125-0.252-0.207-0.441-0.285
						c-0.045-0.131,0.048-0.262,0.177-0.33C238.175,232.55,238.4,232.577,238.521,232.753z"/>
					<path d="M237.902,233.653c-0.028,0.043-0.057,0.086-0.086,0.129c-0.118,0.002-0.273-0.155-0.411-0.229
						c0.038-0.063,0.083-0.124,0.12-0.184C237.698,233.487,237.8,233.502,237.902,233.653z"/>
					<path d="M240.449,229.202c0.014,0.224-0.071,0.697-0.356,0.773c-0.149-0.104-0.28-0.208-0.385-0.324
						C239.925,229.362,240.118,228.971,240.449,229.202z"/>
					<path d="M239.307,228.093c0.108,0.076-0.131,0.083-0.175,0.148c-0.006,0.232-0.166,1.015-0.581,0.847
						c0.139-0.306,0.438-0.767,0.661-1.021C239.248,228.094,239.282,228.12,239.307,228.093z"/>
					<path d="M233.376,236.856c-0.474-0.308-0.944-0.613-1.418-0.918c-0.885,1.237-1.729,2.659-2.603,3.965
						c-0.209-0.134-0.418-0.269-0.631-0.408c0.859-1.325,1.721-2.652,2.578-3.979c-0.479-0.313-0.959-0.624-1.443-0.938
						c0.131-0.151,0.231-0.422,0.369-0.506c1.16,0.754,2.324,1.506,3.483,2.258C233.602,236.506,233.488,236.68,233.376,236.856z"/>
					<path d="M238.689,228.474c-0.146,0.193-0.269,0.509-0.444,0.568c-0.062-0.039-0.119-0.078-0.183-0.118
						c0.102-0.294,0.39-0.625,0.567-0.937c0.074-0.026,0.177,0.049,0.251,0.015c0.021,0.209-0.214,0.125-0.292,0.222
						C238.566,228.321,238.713,228.378,238.689,228.474z"/>
					<path fill="#FFFFFF" d="M236.688,231.341c-0.104,0.035-0.184-0.047-0.213-0.137c0.127-0.086,0.334-0.325,0.366-0.508
						C236.964,230.784,236.573,231.175,236.688,231.341z"/>
					<path d="M238.032,228.049c0.204,0.21-0.015,0.603-0.24,0.772c-0.097-0.004-0.299-0.135-0.339-0.221
						C237.538,228.389,237.777,228.036,238.032,228.049z"/>
					<path d="M235.71,231.005c-0.012,0.13-0.174,0.345-0.272,0.422c-0.135-0.057-0.389-0.176-0.47-0.309
						c0.011-0.119,0.164-0.321,0.257-0.393C235.372,230.77,235.604,230.86,235.71,231.005z"/>
					<path d="M234.6,231.922c0.086-0.011,0.202,0.106,0.306,0.161c-0.029,0.041-0.062,0.084-0.087,0.129
						c-0.09-0.068-0.245-0.125-0.272-0.213C234.564,231.976,234.582,231.948,234.6,231.922z"/>
					<path d="M237.348,227.678c0.239,0.125,0.006,0.632-0.27,0.756c-0.102-0.075-0.266-0.138-0.296-0.229
						C236.859,227.995,237.131,227.571,237.348,227.678z"/>
					<path d="M235.091,230.642c-0.052,0.078-0.102,0.157-0.151,0.236c-0.106,0.021-0.242-0.078-0.377-0.167
						c-0.071,0.127,0.268,0.17,0.265,0.278c-0.144,0.01-0.433-0.162-0.472-0.302c0.104-0.155,0.164-0.181,0.223-0.34
						C234.73,230.35,235.043,230.511,235.091,230.642z"/>
					<path d="M235.527,229.624c0.119,0.183-0.088,0.574-0.291,0.74c-0.139-0.024-0.291-0.16-0.438-0.246
						C234.775,229.724,235.335,229.325,235.527,229.624z"/>
					<path d="M236.698,227.295c0.218,0.116,0.024,0.528-0.185,0.737c-0.146-0.056-0.313-0.095-0.361-0.235
						C236.245,227.523,236.521,227.204,236.698,227.295z"/>
					<path d="M233.75,230.591c0.021,0.164-0.189,0.436-0.334,0.456c-0.107-0.171-0.35-0.173-0.453-0.333
						C232.986,230.189,233.495,230.176,233.75,230.591z"/>
					<path d="M234.454,228.93c0.241,0.132,0.108,0.569-0.162,0.824c-0.159-0.041-0.462-0.228-0.508-0.367
						C233.98,229.101,234.239,228.811,234.454,228.93z"/>
					<path d="M234.157,229.961c-0.017,0.103-0.101,0.233-0.188,0.288c-0.275-0.09-0.621-0.342-0.383-0.617
						C233.76,229.663,233.971,229.864,234.157,229.961z"/>
					<path d="M236.813,225.286c-0.252,0.375-0.494,0.8-0.758,1.11c0.168-0.383,0.504-0.801,0.694-1.188
						C236.797,225.23,236.777,225.265,236.813,225.286z"/>
					<path d="M235.645,225.423c0.096-0.547,0.979-0.008,0.5,0.322C235.962,225.672,235.861,225.563,235.645,225.423z"/>
					<path d="M234.984,226.558c0.181,0.081,0.58,0.166,0.314,0.43c-0.109,0.039-0.363-0.142-0.434-0.244
						C234.889,226.649,234.908,226.618,234.984,226.558z"/>
					<path d="M235.674,226.409c-0.057,0.113-0.124,0.196-0.203,0.205c-0.119-0.152-0.311-0.15-0.363-0.31
						C235.213,225.962,235.543,226.278,235.674,226.409z"/>
					<path d="M235.93,226.018c-0.053,0.072-0.098,0.183-0.162,0.193c-0.105-0.011-0.342-0.159-0.394-0.253
						C235.395,225.622,235.801,225.827,235.93,226.018z"/>
					<path d="M236.089,224.855c0.058,0.134,0.466,0.163,0.392,0.369C236.361,225.18,235.96,225.021,236.089,224.855z"/>
					<path d="M233.016,230.229c-0.086,0.147-0.179,0.287-0.289,0.332c-0.164-0.08-0.506-0.286-0.509-0.478
						c0.087-0.146,0.179-0.286,0.29-0.33C232.729,229.899,233.021,230.032,233.016,230.229z"/>
					<path d="M233.887,228.599c0.071,0.171-0.096,0.49-0.303,0.695c-0.184-0.053-0.275-0.178-0.49-0.28
						C233.146,228.571,233.734,228.223,233.887,228.599z"/>
					<path d="M233.422,229.487c0.016,0.082-0.092,0.187-0.142,0.279c-0.16-0.038-0.329-0.129-0.507-0.253
						C232.762,229.105,233.152,229.239,233.422,229.487z"/>
					<path d="M232.686,229.534c0.09,0.187,0.357,0.221,0.465,0.373c-0.149,0.057-0.453-0.229-0.565-0.33
						c0.073-0.113,0.146-0.228,0.22-0.338C232.891,229.219,232.666,229.464,232.686,229.534z"/>
					<path d="M234.979,224.956c0.192-0.48,0.91-0.053,0.522,0.34C235.294,225.223,235.076,225.116,234.979,224.956z"/>
					<path d="M235.432,224.433c0.196,0.037,0.299,0.238,0.428,0.314c-0.104,0.148-0.399-0.166-0.479-0.237
						C235.398,224.483,235.416,224.456,235.432,224.433z"/>
					<path d="M234.705,226.302c0.02,0.072-0.005,0.152-0.084,0.245c-0.133,0.034-0.414-0.171-0.447-0.291
						C234.322,225.921,234.492,226.233,234.705,226.302z"/>
					<path d="M234.993,225.972c-0.038,0.063-0.079,0.119-0.118,0.182c-0.131-0.007-0.296-0.171-0.438-0.244
						C234.496,225.532,234.854,225.821,234.993,225.972z"/>
					<path d="M235.23,225.6c-0.039,0.063-0.08,0.127-0.119,0.188c-0.129-0.008-0.291-0.17-0.437-0.25
						C234.73,225.142,235.126,225.403,235.23,225.6z"/>
					<path d="M233.145,228.081c0.11,0.178-0.076,0.537-0.268,0.758c-0.161-0.051-0.461-0.221-0.51-0.367
						C232.516,228.131,232.953,227.786,233.145,228.081z"/>
					<path d="M233.879,227.29c-0.042,0.146-0.202,0.412-0.324,0.498c-0.076-0.049-0.184-0.094-0.188-0.16
						c-0.022-0.178,0.327-0.396,0.251-0.506c-0.186-0.086-0.208,0.389-0.405,0.443c-0.081-0.021-0.041-0.074-0.108-0.107
						c-0.027-0.159,0.359-0.406,0.197-0.538C233.473,226.948,233.813,227.118,233.879,227.29z"/>
					<path d="M228.032,236.149c0.067,0.835-0.845,1.563-1.484,1.604c-1.137,0.069-2.13-0.968-2.188-1.904
						c0.209-0.006,0.324-0.239,0.507-0.153c0.179,0.086,0.208,0.506,0.331,0.697c0.479,0.771,1.813,1.096,2.06,0.031
						c0.181-0.768-1.149-1.616-1.194-2.336c-0.094-1.209,1.307-1.811,2.266-1.319c0.599,0.306,0.969,0.774,1.107,1.386
						c-0.152,0.092-0.295,0.26-0.475,0.213c-0.252-0.356-0.622-1.172-1.4-1.166c-0.219,0.002-0.543,0.099-0.709,0.469
						C226.493,234.458,227.962,235.311,228.032,236.149z"/>
					<path d="M232.689,229.013c0.009,0.098-0.117,0.236-0.188,0.29c-0.14-0.058-0.394-0.179-0.469-0.308
						C232.068,228.573,232.441,228.817,232.689,229.013z"/>
					<path d="M231.807,230.374c-0.015,0.1-0.088,0.209-0.168,0.264c-0.146-0.05-0.455-0.202-0.484-0.352
						c0.042-0.062,0.082-0.119,0.121-0.182C231.43,230.106,231.688,230.237,231.807,230.374z"/>
					<path d="M232.301,229.614c-0.058,0.153-0.191,0.416-0.336,0.453c-0.156-0.121-0.307-0.174-0.462-0.259
						C231.441,229.325,232.016,229.148,232.301,229.614z"/>
					<path d="M231.855,230.295c-0.183-0.134-0.387-0.218-0.494-0.32c0.027-0.045,0.054-0.088,0.082-0.131
						C231.645,229.896,231.967,230.103,231.855,230.295z"/>
					<path d="M234.966,224.575c-0.003,0.106-0.052,0.246-0.161,0.307c-0.221-0.135-0.291-0.172-0.494-0.322
						C234.383,224.194,234.867,224.259,234.966,224.575z"/>
					<path d="M235.193,224.278c-0.144,0.268-0.311-0.143-0.537-0.201C234.908,223.864,234.952,224.204,235.193,224.278z"/>
					<path d="M234.559,225.094c0.024,0.078-0.024,0.169-0.098,0.271c-0.118-0.017-0.359-0.173-0.425-0.273
						C234.105,224.758,234.354,224.973,234.559,225.094z"/>
					<path d="M234.049,225.877c0.02,0.073-0.006,0.153-0.085,0.245c-0.162,0.051-0.28-0.161-0.437-0.245
						C233.591,225.538,233.854,225.755,234.049,225.877z"/>
					<path d="M234.32,225.573c-0.031,0.051-0.068,0.104-0.104,0.153c-0.124-0.005-0.289-0.169-0.435-0.243
						C233.798,225.126,234.262,225.37,234.32,225.573z"/>
					<path d="M232.105,227.333c0.26,0.168,0.014,0.691-0.301,0.922c-0.152,0.027-0.337-0.155-0.463-0.264
						C231.493,227.61,231.831,227.159,232.105,227.333z"/>
					<path d="M232.591,225.491c-0.228,0.151-0.521-0.175-0.707-0.347c0.058-0.078,0.106-0.205,0.179-0.22
						c0.058,0.091,0.188,0.173,0.291,0.188c0.039-0.106-0.186-0.154-0.215-0.246c0.021-0.207,0.241-0.584,0.461-0.483
						c-0.322-0.522-0.543,0.472-0.865,0.703c-0.118-0.021-0.297-0.14-0.365-0.235c0.061-0.079,0.104-0.206,0.176-0.219
						c0.135,0.068,0.139,0.16,0.266,0.168c0.101-0.116-0.123-0.166-0.211-0.246c0.027-0.176,0.196-0.516,0.383-0.533
						c0.117,0.108,0.308,0.163,0.295,0.006c-0.162,0.127-0.342-0.171-0.465-0.263c0.063-0.063,0.246,0.125,0.218-0.047
						c-0.026-0.084-0.194,0.071-0.304-0.047c-0.008,0.146,0.063,0.272-0.063,0.442c-0.1,0.02-0.249-0.184-0.339-0.11
						c-0.003,0.085,0.176,0.128,0.241,0.194c-0.047,0.16-0.221,0.449-0.354,0.551c-0.146-0.082-0.241-0.172-0.304-0.273
						c0.109-0.255,0.326-0.861,0.557-0.861c-0.039-0.123-0.188-0.113-0.287-0.188c-0.001,0.189-0.002,0.537-0.267,0.645
						c-0.138-0.015-0.177-0.147-0.343-0.222c0.005-0.245,0.277-0.458,0.414-0.696c0.047,0.027,0.088,0.057,0.132,0.081
						c0.001-0.057-0.095-0.098-0.123-0.151c0.065-0.211,0.271-0.522,0.45-0.523c0.642,0.286,1.211,0.954,1.811,1.17
						c0.336,0.12,0.639-0.104,0.915-0.152c0.157,0.111,0.367,0.209,0.368,0.353c-0.104,0.146-0.172-0.114-0.305-0.05
						c-0.186,0.388-0.469,0.779-0.737,1.084c-0.179-0.152-0.433,0.066-0.484-0.167c-0.233,0.126-0.243,0.37-0.436,0.612
						c0.175-0.099,0.375-0.08,0.589,0.008c0.016,0.072-0.005,0.15-0.082,0.246c-0.072-0.002-0.266,0.016-0.229-0.111
						c-0.063-0.006-0.107,0.063-0.164,0.08C232.617,225.591,232.557,225.553,232.591,225.491z M232.775,224.458
						c0.035-0.041,0.051-0.188-0.028-0.129c0.017,0.021,0.015,0.043-0.007,0.07c-0.031,0.036-0.082-0.022-0.104,0.045
						C232.693,224.508,232.723,224.426,232.775,224.458z"/>
					<path d="M232.143,227.099c-0.043,0.155-0.334,0.05-0.455,0.188c-0.051-0.116-0.023-0.25-0.056-0.369
						C231.796,226.952,231.99,227.118,232.143,227.099z"/>
					<path d="M233.402,225.089c-0.006,0.051,0.002,0.096-0.016,0.139c-0.166,0.146-0.394,0.053-0.603,0.021
						c-0.011-0.076,0.1-0.242,0.169-0.268c0.099,0.02,0.113,0.049,0.141,0.131C233.204,225.127,233.27,224.944,233.402,225.089z"/>
					<path d="M231.475,226.926c0.469,0.297-0.57,1.483-0.754,0.59C230.959,227.116,231.203,226.755,231.475,226.926z"/>
					<path fill="#FFFFFF" d="M232.747,224.329c0.079-0.06,0.063,0.088,0.028,0.129c-0.053-0.032-0.082,0.05-0.139-0.014
						c0.021-0.068,0.071-0.009,0.104-0.045C232.762,224.372,232.764,224.35,232.747,224.329z"/>
					<path d="M231.385,226.721c-0.1,0.069-0.209,0.074-0.308,0.132c-0.041-0.097-0.048-0.199-0.025-0.313
						C231.174,226.634,231.277,226.676,231.385,226.721z"/>
					<path d="M230.949,226.586c0.083,0.27-0.143,0.795-0.46,0.891c-0.165-0.103-0.289-0.209-0.388-0.321
						C230.264,226.79,230.574,226.288,230.949,226.586z"/>
					<path d="M230.332,226.223c0.109,0.207-0.164,0.508-0.344,0.815c-0.234,0.009-0.436-0.076-0.498-0.205
						C229.335,226.502,230.104,225.801,230.332,226.223z"/>
					<path d="M229.672,227.245c-0.263,0.222-0.441,0.832-0.738,0.9c0.002,0.083,0.026,0.16,0.034,0.241
						c-0.11-0.022-0.608-0.272-0.394-0.366c0.082-0.047,0.063,0.137,0.24,0.08c-0.051-0.082-0.176-0.154-0.166-0.254
						c0.271-0.27,0.401-0.732,0.664-0.91C229.439,227.04,229.664,227.118,229.672,227.245z"/>
					<path d="M226.402,231.6c-0.106,0.165-0.211,0.331-0.32,0.497c-0.727-0.469-1.451-0.938-2.176-1.406
						c-0.314,0.487-0.631,0.977-0.948,1.463c0.494,0.411,1.172,0.776,1.735,1.163c-0.101,0.158-0.202,0.316-0.303,0.472
						c-0.576-0.369-1.152-0.743-1.729-1.118c-0.357,0.418-0.673,1.016-1.01,1.505c0.634,0.496,1.453,0.951,2.152,1.433
						c-0.104,0.166-0.215,0.334-0.32,0.497c-0.924-0.597-1.851-1.199-2.776-1.797c0.981-1.484,1.947-3.078,2.942-4.49
						C224.57,230.409,225.488,231.004,226.402,231.6z"/>
					<path d="M230.917,224.222c-0.074,0.121-0.263,0.115-0.319-0.02C230.695,224.009,230.803,224.12,230.917,224.222z"/>
					<path d="M230.139,224.684c-0.106,0.136-0.195,0.362-0.315,0.433c-0.065,0.011-0.222-0.088-0.234-0.155
						C229.627,224.657,230.075,224.253,230.139,224.684z"/>
					<path d="M229.499,225.499c-0.083,0.225-0.323,0.589-0.491,0.758c-0.354-0.163,0.197-0.643,0.316-0.836
						C229.375,225.411,229.438,225.452,229.499,225.499z"/>
					<path d="M228.852,226.493c-0.181,0.313-0.465,0.953-0.764,1.066c-0.236-0.244,0.42-0.773,0.532-1.105
						c0.021-0.047,0.053-0.028,0.077-0.063C228.751,226.426,228.801,226.461,228.852,226.493z"/>
					<path d="M229.08,225.226c0.072,0.182-0.088,0.493-0.303,0.695c-0.168-0.055-0.465-0.229-0.575-0.373
						C228.277,225.087,228.902,224.801,229.08,225.226z"/>
					<path d="M231.375,221.396c-0.081,0.164-0.18,0.223-0.32,0.092C231.037,221.262,231.352,221.144,231.375,221.396z"/>
					<path d="M230.695,222.331c0.002,0.088-0.125,0.279-0.204,0.313c-0.052-0.032-0.106-0.067-0.158-0.104
						C230.365,222.389,230.514,222.137,230.695,222.331z"/>
					<path d="M231.813,220.602c0.008,0.087-0.123,0.281-0.203,0.315c-0.258-0.084-0.08-0.32,0.047-0.418
						C231.708,220.534,231.764,220.569,231.813,220.602z"/>
					<path d="M230.348,222.7c0.148,0.075-0.029,0.312-0.127,0.364c-0.053-0.032-0.106-0.067-0.16-0.103
						C230.072,222.854,230.214,222.591,230.348,222.7z"/>
					<path d="M230.15,223.171c0.006,0.076-0.107,0.262-0.188,0.285c-0.05-0.032-0.104-0.065-0.154-0.102
						C229.826,223.21,229.986,222.961,230.15,223.171z"/>
					<path d="M231.134,221.651c-0.044,0.067-0.084,0.156-0.143,0.166c-0.033-0.022-0.073-0.046-0.104-0.068
						c-0.008-0.049,0.031-0.109,0.071-0.176C231.014,221.565,231.07,221.601,231.134,221.651z"/>
					<path d="M232.371,218.882c0.044,0.191-0.182,0.609-0.387,0.713c-0.131-0.055-0.323-0.188-0.43-0.313
						C231.751,218.858,232.102,218.633,232.371,218.882z"/>
					<path d="M230.332,221.911c0.066,0.138-0.052,0.385-0.209,0.494c-0.141-0.045-0.295-0.174-0.398-0.293
						C229.798,221.829,230.061,221.632,230.332,221.911z"/>
					<path d="M231.414,220.417c-0.036,0.051-0.071,0.104-0.104,0.156c-0.151-0.002-0.263-0.096-0.385-0.211
						c0.033-0.066,0.025-0.125,0.094-0.199C231.184,220.2,231.316,220.284,231.414,220.417z"/>
					<path d="M230.02,222.564c-0.031,0.054-0.063,0.105-0.1,0.159c-0.109,0.039-0.385-0.141-0.395-0.256
						C229.607,222.139,229.979,222.413,230.02,222.564z"/>
					<path d="M229.75,222.982c-0.033,0.054-0.066,0.107-0.102,0.159c-0.121,0.042-0.365-0.143-0.393-0.254
						C229.333,222.549,229.709,222.833,229.75,222.982z"/>
					<path d="M231.064,220.784c-0.01,0.151-0.103,0.395-0.254,0.508c-0.107-0.02-0.254-0.113-0.316-0.205
						C230.563,220.825,230.873,220.463,231.064,220.784z"/>
					<path d="M229.505,223.307c-0.028,0.044-0.058,0.089-0.084,0.132c-0.131-0.066-0.233-0.123-0.325-0.246
						C229.197,223.071,229.366,223.266,229.505,223.307z"/>
					<path d="M229.036,223.858c0.045,0.165-0.146,0.428-0.288,0.561c-0.074-0.026-0.143-0.039-0.229-0.112
						C228.543,224.15,228.791,223.631,229.036,223.858z"/>
					<path d="M230.674,221.389c-0.029,0.043-0.059,0.085-0.084,0.13c-0.07,0.016-0.22-0.085-0.236-0.15
						C230.406,221.145,230.621,221.273,230.674,221.389z"/>
					<path d="M231.783,219.616c-0.043,0.068-0.088,0.154-0.146,0.166c-0.092-0.076-0.193-0.152-0.253-0.238
						C231.484,219.417,231.637,219.518,231.783,219.616z"/>
					<path d="M228.32,224.735c0.224,0.182-0.24,0.625-0.371,0.799c-0.026,0.008-0.162-0.017-0.131-0.082
						C227.82,225.266,228.131,224.745,228.32,224.735z"/>
					<path d="M227.744,225.737c0.004,0.34-0.469,0.89-0.7,1.146c-0.252-0.099,0.001-0.354,0.132-0.548
						c0.131-0.213,0.282-0.438,0.385-0.604c0.033-0.029,0.076-0.01,0.107-0.045C227.693,225.704,227.721,225.723,227.744,225.737z"
						/>
					<path d="M230.389,220.682c-0.021,0.076-0.068,0.217-0.156,0.235C229.941,220.848,230.188,220.421,230.389,220.682z"/>
					<path d="M230.843,219.975c-0.032,0.158-0.178,0.416-0.358,0.215c-0.002-0.089,0.123-0.284,0.201-0.319
						C230.742,219.907,230.793,219.94,230.843,219.975z"/>
					<path d="M229.412,222.131c-0.012,0.11-0.157,0.372-0.283,0.264C228.962,222.301,229.23,221.868,229.412,222.131z"/>
					<path d="M229.617,221.633c0.156,0.089-0.029,0.297-0.123,0.366c-0.053-0.03-0.104-0.066-0.156-0.104
						C229.35,221.792,229.492,221.528,229.617,221.633z"/>
					<path d="M229.128,222.508c0.026,0.146-0.137,0.407-0.319,0.203C228.824,222.579,228.977,222.321,229.128,222.508z"/>
					<path d="M228.281,223.297c0.007,0.149-0.182,0.438-0.311,0.543c-0.054-0.034-0.104-0.068-0.156-0.103
						C227.797,223.499,228.092,223.223,228.281,223.297z"/>
					<path d="M227.443,224.131c0.189,0.157-0.008,0.636-0.254,0.799c-0.135-0.017-0.36-0.183-0.446-0.286
						C226.868,224.284,227.216,223.939,227.443,224.131z"/>
					<path d="M226.925,225.28c-0.133,0.332-0.432,0.696-0.634,1.041c-0.134,0.022-0.37-0.145-0.465-0.264
						c0.145-0.313,0.436-0.77,0.662-1.021C226.619,224.98,226.824,225.19,226.925,225.28z"/>
					<path d="M226.059,226.393c-0.057,0.138-0.268-0.051-0.297-0.117c0.018-0.028,0.031-0.052,0.049-0.079
						C225.882,226.192,226.104,226.303,226.059,226.393z"/>
					<path d="M227.893,223.155c0.047,0.125-0.137,0.303-0.219,0.455c-0.093-0.017-0.183-0.07-0.236-0.152
						c0.049-0.139,0.164-0.272,0.276-0.379C227.784,223.15,227.827,223.087,227.893,223.155z"/>
					<path d="M230.591,217.952c0.188,0.162,0.073,0.576-0.146,0.8c-0.145,0.024-0.334-0.154-0.504-0.253
						C229.959,218.145,230.316,217.718,230.591,217.952z"/>
					<path d="M230.361,218.881c-0.027,0.044-0.059,0.088-0.084,0.133c-0.096-0.063-0.19-0.125-0.287-0.187
						c0.021-0.037,0.044-0.073,0.066-0.104C230.145,218.708,230.262,218.827,230.361,218.881z"/>
					<path d="M228.78,220.979c0.024,0.122,0.02,0.253-0.114,0.409c-0.107-0.01-0.337-0.156-0.395-0.254
						C228.398,220.891,228.561,220.784,228.78,220.979z"/>
					<path d="M229.854,219.554c-0.045,0.097-0.1,0.111-0.146,0.167c-0.121-0.097-0.324-0.17-0.38-0.279
						C229.413,219.102,229.805,219.405,229.854,219.554z"/>
					<path d="M228.855,220.173c0.244-0.725,0.957-0.264,0.394,0.255C229.143,220.42,228.908,220.271,228.855,220.173z"/>
					<path d="M228.502,221.579c-0.07,0.242-0.363,0.031-0.381-0.098C228.186,221.206,228.549,221.424,228.502,221.579z"/>
					<path d="M228.316,221.868c-0.032,0.056-0.07,0.104-0.104,0.156c-0.087,0.004-0.279-0.119-0.314-0.201
						C227.968,221.567,228.232,221.735,228.316,221.868z"/>
					<path d="M227.588,222.995c-0.102,0.127-0.188,0.344-0.299,0.4c-0.053-0.031-0.104-0.068-0.159-0.1
						C227.098,223.093,227.436,222.667,227.588,222.995z"/>
					<path d="M226.77,223.692c0.063,0.215-0.097,0.59-0.33,0.79c-0.146-0.112-0.381-0.202-0.453-0.331
						C226.143,223.879,226.428,223.448,226.77,223.692z"/>
					<path d="M226.175,224.831c-0.13,0.328-0.438,0.697-0.635,1.041c-0.144,0-0.403-0.146-0.446-0.291
						C225.32,225.196,225.721,224.146,226.175,224.831z"/>
					<path d="M225.405,225.968c-0.07,0.139-0.207-0.041-0.315-0.089c0.029-0.048,0.057-0.091,0.085-0.134
						C225.257,225.819,225.445,225.868,225.405,225.968z"/>
					<path d="M220.081,233.898c-0.21-0.135-0.417-0.271-0.631-0.405c-0.165-0.91-0.054-1.883-0.233-2.791
						c-0.143-0.157-0.406-0.289-0.611-0.435c-0.408,0.63-0.815,1.259-1.225,1.886c-0.197-0.13-0.398-0.258-0.6-0.391
						c0.972-1.503,1.943-3.003,2.916-4.505c1.007,0.668,2.179,1.252,2.365,2.087c0.236,1.075-1.062,2.162-2.137,1.634
						C219.98,231.848,220.096,233.02,220.081,233.898z M218.895,229.821c0.912,0.754,1.883,1.026,2.354,0.147
						c0.407-0.743-0.36-1.323-1.201-1.815C219.627,228.538,219.282,229.292,218.895,229.821z"/>
					<path d="M227.23,222.803c-0.104,0.131-0.183,0.353-0.31,0.358c-0.092-0.041-0.108-0.098-0.168-0.146
						C226.871,222.752,227.127,222.487,227.23,222.803z"/>
					<path d="M229.938,217.53c0.146,0.157,0.025,0.496-0.174,0.778c-0.143,0.024-0.332-0.151-0.507-0.253
						C229.27,217.706,229.652,217.228,229.938,217.53z"/>
					<path d="M224.34,220.374c0.958,0.619,1.922,1.244,2.881,1.863c-1.908-1.147-3.854-2.483-5.777-3.705
						c0.224,0.062,0.486,0.306,0.724,0.434c0.243,0.158,0.485,0.314,0.733,0.476C223.379,219.753,223.859,220.063,224.34,220.374z"
						/>
					<path d="M229.164,219.071c-0.002,0.084-0.02,0.17-0.104,0.271c-0.071-0.139-0.391-0.221-0.393-0.368
						C228.76,218.682,229.05,218.948,229.164,219.071z"/>
					<path d="M228.098,220.538c0.029,0.123,0.022,0.254-0.113,0.408c-0.125-0.004-0.276-0.158-0.409-0.227
						C227.705,220.454,227.861,220.317,228.098,220.538z"/>
					<path d="M227.635,221.429c-0.031,0.053-0.064,0.105-0.102,0.159c-0.125-0.031-0.285-0.076-0.314-0.205
						C227.291,221.129,227.553,221.297,227.635,221.429z"/>
					<path d="M226.861,222.339c0.17,0.15-0.096,0.396-0.211,0.607c-0.066-0.029-0.125-0.02-0.199-0.093
						C226.418,222.591,226.686,222.466,226.861,222.339z"/>
					<path d="M227.854,221.087c-0.033,0.052-0.066,0.104-0.101,0.158c-0.159,0.039-0.45-0.178-0.213-0.359
						C227.633,220.909,227.818,220.993,227.854,221.087z"/>
					<path d="M228.77,219.448c0.039,0.149-0.078,0.406-0.228,0.524c-0.108-0.021-0.237-0.12-0.36-0.197
						C228.346,219.521,228.495,219.179,228.77,219.448z"/>
					<path d="M226.041,223.257c-0.006,0.218-0.096,0.54-0.318,0.727c-0.142-0.022-0.382-0.197-0.472-0.308
						C225.38,223.354,225.77,222.907,226.041,223.257z"/>
					<path d="M225.456,224.329c-0.202,0.322-0.493,1.119-0.869,1c-0.015,0.074,0.168,0.104,0.063,0.189
						c-0.071,0.064-0.271-0.081-0.305-0.161c0.033-0.098,0.094-0.053,0.137-0.098c-0.104-0.044-0.104-0.106-0.146-0.169
						c0.146-0.321,0.441-0.783,0.676-1.049C225.143,224.079,225.391,224.219,225.456,224.329z"/>
					<path d="M226.548,222.362c-0.13,0.172-0.164,0.284-0.28,0.375c-0.096-0.047-0.141-0.105-0.19-0.162
						C226.188,222.339,226.398,222.073,226.548,222.362z"/>
					<path d="M228.561,217.53c0.399-1.023,1.101-0.289,0.526,0.338C228.924,217.885,228.624,217.671,228.561,217.53z"/>
					<path fill="#F0E369" d="M221.249,229.969c-0.474,0.879-1.442,0.606-2.354-0.147c0.389-0.529,0.732-1.281,1.153-1.668
						C220.889,228.646,221.656,229.226,221.249,229.969z"/>
					<path d="M228.49,218.671c-0.029,0.043-0.057,0.091-0.084,0.133c-0.114,0.043-0.369-0.141-0.438-0.243
						C228.102,218.226,228.407,218.524,228.49,218.671z"/>
					<path d="M226.893,220.278c0.188-0.621,0.84-0.043,0.367,0.239C227.121,220.392,226.967,220.397,226.893,220.278z"/>
					<path d="M227.175,220.646c-0.036,0.054-0.067,0.104-0.103,0.158c-0.1,0.045-0.266-0.087-0.33-0.177
						C226.811,220.325,227.085,220.503,227.175,220.646z"/>
					<path d="M226.934,221.012c-0.026,0.047-0.056,0.089-0.084,0.132c-0.146,0.021-0.227-0.08-0.33-0.177
						c0.043-0.06,0.078-0.122,0.121-0.185C226.751,220.808,226.938,220.907,226.934,221.012z"/>
					<path d="M228.104,218.979c0.057,0.153-0.144,0.457-0.293,0.518c-0.095-0.021-0.277-0.107-0.316-0.203
						C227.659,219.001,227.831,218.767,228.104,218.979z"/>
					<path d="M227.643,219.575c-0.027,0.043-0.055,0.09-0.082,0.133c-0.058,0.014-0.133-0.047-0.201-0.092
						C227.33,219.413,227.598,219.407,227.643,219.575z"/>
					<path d="M224.578,223.797c-0.141,0.31-0.436,0.77-0.662,1.024c-0.133,0.039-0.395-0.176-0.489-0.281
						c0.179-0.305,0.468-0.953,0.765-1.065C224.329,223.579,224.564,223.665,224.578,223.797z"/>
					<path d="M225.509,222.357c-0.019,0.034-0.046,0.071-0.065,0.104c-0.182-0.075-0.381-0.202-0.525-0.338
						c0.02-0.036,0.044-0.069,0.066-0.105C225.184,222.11,225.348,222.212,225.509,222.357z"/>
					<path d="M225,222.512c0.253,0.137,0.048,0.624-0.193,0.877c-0.137-0.039-0.392-0.188-0.474-0.308
						C224.453,222.752,224.783,222.396,225,222.512z"/>
					<path d="M223.794,224.89c-0.104,0.169-0.483-0.072-0.368-0.234C223.52,224.659,223.762,224.8,223.794,224.89z"/>
					<path d="M227.87,217.046c0.456-1.094,1.108-0.034,0.463,0.376C228.156,217.385,227.9,217.186,227.87,217.046z"/>
					<path d="M226.748,219.702c0.02,0.107-0.081,0.24-0.169,0.373c-0.119-0.093-0.326-0.17-0.376-0.276
						C226.326,219.515,226.581,219.452,226.748,219.702z"/>
					<path d="M227.8,218.188c-0.04,0.061-0.077,0.122-0.122,0.184c-0.113-0.012-0.369-0.168-0.373-0.279
						C227.393,217.801,227.698,218.065,227.8,218.188z"/>
					<path d="M227.459,218.6c-0.031,0.149-0.186,0.326-0.277,0.491c-0.113,0.007-0.264-0.167-0.375-0.171
						C226.881,218.571,227.311,218.28,227.459,218.6z"/>
					<path d="M226.248,220.53c-0.041,0.061-0.081,0.123-0.119,0.184c-0.098-0.063-0.193-0.122-0.292-0.189
						c0.022-0.09,0.047-0.121,0.12-0.181C226.039,220.338,226.221,220.454,226.248,220.53z"/>
					<path d="M226.467,220.189c-0.041,0.06-0.078,0.123-0.119,0.183c-0.08,0.01-0.259-0.108-0.287-0.187
						c0.019-0.092,0.045-0.125,0.116-0.185C226.275,219.995,226.414,220.12,226.467,220.189z"/>
					<path d="M224.374,222.104c0.039,0.233-0.095,0.639-0.328,0.791c-0.134-0.007-0.294-0.168-0.437-0.244
						C223.672,222.331,224.044,221.855,224.374,222.104z"/>
					<path d="M223.811,223.264c-0.146,0.317-0.451,0.785-0.683,1.049c-0.144,0.021-0.389-0.159-0.444-0.289
						c0.256-0.313,0.457-0.704,0.672-0.975C223.455,222.923,223.736,223.175,223.811,223.264z"/>
					<path d="M222.593,224.224c0.065-0.161,0.495,0.072,0.294,0.229C222.792,224.377,222.62,224.315,222.593,224.224z"/>
					<path d="M227.842,216.173c0.189,0.158,0.078,0.648-0.188,0.81c-0.133-0.028-0.396-0.196-0.475-0.309
						C227.264,216.331,227.581,215.954,227.842,216.173z"/>
					<path d="M224.707,221.876c-0.168,0.093-0.35-0.115-0.496-0.211c-0.469-0.303-1.093-0.678-1.503-1.008
						c0.015-0.029,0.037-0.053,0.052-0.08C223.357,220.93,224.23,221.419,224.707,221.876z"/>
					<path d="M227.109,217.704c0.018,0.064-0.063,0.149-0.108,0.228c-0.125-0.002-0.274-0.158-0.411-0.229
						C226.662,217.374,226.896,217.565,227.109,217.704z"/>
					<path d="M226.063,219.257c0.019,0.104-0.063,0.229-0.149,0.35c-0.106-0.009-0.341-0.156-0.394-0.252
						C225.639,219.046,225.902,219.018,226.063,219.257z"/>
					<path d="M225.754,219.8c-0.074,0.242-0.371,0.029-0.385-0.098C225.436,219.425,225.797,219.643,225.754,219.8z"/>
					<path d="M225.564,220.088c-0.041,0.06-0.08,0.12-0.119,0.183c-0.12-0.104-0.225-0.07-0.286-0.186
						c0.04-0.061,0.003-0.106,0.073-0.174C225.332,219.866,225.504,219.999,225.564,220.088z"/>
					<path d="M226.055,218.581c0.129,0.084,0.414,0.072,0.246,0.312c-0.098-0.017-0.214-0.103-0.328-0.177
						C226,218.673,226.027,218.63,226.055,218.581z"/>
					<path d="M226.741,218.098c-0.026,0.183-0.166,0.531-0.354,0.553c-0.086-0.063-0.226-0.118-0.246-0.196
						C226.223,218.19,226.473,217.827,226.741,218.098z"/>
					<path d="M227.4,216.963c-0.025,0.046-0.058,0.087-0.082,0.134c-0.147,0.003-0.393-0.248-0.25-0.311
						C227.171,216.821,227.247,216.876,227.4,216.963z"/>
					<path d="M224.014,221.686c-0.021,0.109-0.121,0.236-0.195,0.356c-0.035-0.17-0.047-0.348-0.11-0.517
						C223.813,221.538,223.954,221.598,224.014,221.686z"/>
					<path d="M223.525,221.517c0.267,0.178,0.131,0.664-0.18,0.966c-0.201-0.179-0.438-0.231-0.607-0.433
						C222.873,221.638,223.27,221.353,223.525,221.517z"/>
					<path d="M223.211,222.691c-0.266,0.372-0.506,0.859-0.788,1.161c-0.202-0.046-0.399-0.176-0.524-0.338
						c0.174-0.363,0.504-0.871,0.764-1.179C222.818,222.377,223.109,222.567,223.211,222.691z"/>
					<path d="M227.161,215.729c0.2,0.177,0.065,0.511-0.164,0.825c-0.142-0.039-0.409-0.195-0.498-0.318
						C226.586,215.891,226.885,215.495,227.161,215.729z"/>
					<path d="M222.25,223.89c-0.012,0.018-0.025,0.031-0.036,0.053c-0.069,0.094-0.325-0.13-0.356-0.195
						c0.014-0.018,0.021-0.033,0.033-0.049C221.964,223.605,222.221,223.827,222.25,223.89z"/>
					<path d="M226.453,217.284c-0.031,0.049-0.066,0.102-0.104,0.151c-0.123,0.015-0.269-0.054-0.418-0.159
						C225.95,216.941,226.255,217.112,226.453,217.284z"/>
					<path d="M224.568,219.444c0.156,0.021,0.42,0.191,0.215,0.36c-0.1,0.011-0.221-0.119-0.33-0.175
						C224.473,219.538,224.495,219.502,224.568,219.444z"/>
					<path d="M225.357,218.801c-0.021,0.118-0.057,0.239-0.168,0.376c-0.121-0.096-0.328-0.172-0.375-0.283
						C224.936,218.616,225.191,218.557,225.357,218.801z"/>
					<path d="M225.039,219.411c-0.074,0.152-0.313-0.026-0.369-0.125c0.041-0.061,0.007-0.104,0.079-0.174
						c0.099-0.039,0.378,0.121,0.319,0.243C225.057,219.377,225.048,219.396,225.039,219.411z"/>
					<path d="M226.034,217.64c0.008,0.167-0.095,0.489-0.288,0.559c-0.139-0.01-0.164-0.131-0.313-0.203
						C225.602,217.803,225.719,217.37,226.034,217.64z"/>
					<path d="M225.664,218.441c-0.07,0.091-0.326-0.129-0.359-0.194C225.41,218.114,225.684,218.323,225.664,218.441z"/>
					<path d="M223.007,221.517c-0.143-0.33,0.334-0.456,0.533-0.135C223.361,221.43,223.168,221.399,223.007,221.517z"/>
					<path d="M226.506,215.308c0.059,0.221,0.059,0.573-0.217,0.787c-0.137-0.007-0.309-0.182-0.461-0.256
						C225.822,215.589,226.177,214.976,226.506,215.308z"/>
					<path d="M222.262,222.263c-0.06,0.377-0.521,0.713-0.598,1.098c-0.191,0.008-0.406-0.197-0.527-0.34
						c0.239-0.326,0.453-0.768,0.709-1.029C221.975,221.969,222.225,222.136,222.262,222.263z"/>
					<path d="M222.818,221.063c-0.008,0.241-0.006,0.572-0.26,0.798c-0.158,0.065-0.418-0.08-0.504-0.253
						C222.27,221.254,222.482,220.864,222.818,221.063z"/>
					<path d="M225.766,216.909c-0.041,0.095-0.099,0.112-0.146,0.168c-0.118-0.078-0.245-0.158-0.364-0.238
						C225.238,216.452,225.725,216.721,225.766,216.909z"/>
					<path d="M226.188,216.252c-0.07,0.188-0.231-0.025-0.356-0.081C225.878,215.913,226.206,216.135,226.188,216.252z"/>
					<path d="M224.73,217.874c0.095-0.154,0.248-0.027,0.398,0.072C225.031,218.054,224.814,218.042,224.73,217.874z"/>
					<path d="M224.639,218.3c0.038,0.13,0.006,0.271-0.129,0.436c-0.119-0.097-0.326-0.171-0.38-0.283
						C224.26,218.213,224.418,218.104,224.639,218.3z"/>
					<path d="M225.371,217.284c-0.006,0.148-0.121,0.313-0.234,0.482c-0.109,0.021-0.242-0.078-0.373-0.17
						C224.833,217.303,225.162,216.946,225.371,217.284z"/>
					<path d="M224.177,219.192c-0.04,0.061-0.079,0.12-0.118,0.182c-0.121-0.107-0.229-0.082-0.289-0.188
						c0.041-0.06,0.006-0.104,0.073-0.177C223.934,218.972,224.137,219.098,224.177,219.192z"/>
					<path d="M224.395,218.849c-0.035,0.063-0.078,0.121-0.115,0.184c-0.105-0.006-0.34-0.143-0.282-0.254
						C224.077,218.547,224.313,218.739,224.395,218.849z"/>
					<path d="M221.523,223.458c-0.129,0.16-0.346-0.133-0.479-0.235c0.016-0.026,0.035-0.053,0.049-0.078
						C221.212,223.176,221.533,223.327,221.523,223.458z"/>
					<path d="M216.195,231.346c-0.172-0.047-0.487-0.256-0.604-0.392c0.011-0.486,0.181-1.014,0.284-1.523
						c-0.664-0.432-1.325-0.859-1.993-1.29c-0.454,0.201-0.852,0.646-1.304,0.867c-0.191-0.052-0.412-0.248-0.62-0.365
						c1.574-1.13,3.142-2.259,4.728-3.336c0.201,0.13,0.4,0.261,0.604,0.392C216.943,227.577,216.532,229.468,216.195,231.346z
						 M214.305,227.782c0.56,0.338,1.146,0.791,1.691,1.058c0.176-0.899,0.365-1.806,0.57-2.716
						C215.822,226.716,215.063,227.243,214.305,227.782z"/>
					<path d="M225.79,214.806c0.101,0.241,0.108,0.602-0.181,0.85c-0.15-0.037-0.398-0.199-0.498-0.318
						C225.225,215.028,225.499,214.631,225.79,214.806z"/>
					<path d="M225.084,216.471c-0.042,0.094-0.098,0.108-0.145,0.164c-0.131-0.099-0.353-0.179-0.36-0.31
						C224.661,216.021,225.045,216.333,225.084,216.471z"/>
					<path d="M225.122,215.491c0.146,0.176,0.487,0.164,0.332,0.399c-0.134-0.067-0.265-0.14-0.46-0.262
						C225.033,215.563,225.07,215.502,225.122,215.491z"/>
					<path d="M224.699,216.888c-0.063,0.157-0.126,0.331-0.241,0.438c-0.127-0.05-0.247-0.088-0.378-0.17
						C224.137,216.825,224.561,216.502,224.699,216.888z"/>
					<path d="M223.995,217.922c-0.007,0.104-0.047,0.219-0.149,0.346c-0.109-0.008-0.342-0.157-0.394-0.253
						C223.566,217.698,223.832,217.677,223.995,217.922z"/>
					<path d="M223.08,218.702c0.078-0.311,0.566,0.006,0.313,0.203C223.268,218.872,223.109,218.827,223.08,218.702z"/>
					<path d="M223.716,218.407c-0.04,0.062-0.079,0.123-0.118,0.185C223.084,218.528,223.453,217.976,223.716,218.407z"/>
					<path d="M221.938,220.53c0.236,0.131,0.043,0.633-0.198,0.873c-0.146-0.012-0.327-0.191-0.489-0.279
						C221.311,220.829,221.713,220.403,221.938,220.53z"/>
					<path d="M221.494,221.729c-0.041,0.326-0.454,0.843-0.712,1.101c-0.142-0.023-0.4-0.194-0.431-0.315
						c0.146-0.323,0.448-0.772,0.682-1.046C221.166,221.511,221.408,221.579,221.494,221.729z"/>
					<path d="M220.714,222.933c-0.084,0.143-0.347-0.109-0.405-0.188c0.023-0.022,0.037-0.051,0.056-0.073
						C220.456,222.687,220.742,222.821,220.714,222.933z"/>
					<path d="M224.448,217.508c-0.144,0.091-0.317,0.053-0.523-0.118c0.022-0.031,0.05-0.066,0.068-0.104
						C224.115,217.37,224.271,217.43,224.448,217.508z"/>
					<path d="M221.919,220.034c0.153,0.058,0.535,0.244,0.558,0.397c-0.154,0.092-0.547-0.21-0.606-0.317
						C221.889,220.087,221.902,220.061,221.919,220.034z"/>
					<path d="M224.357,215.924c-0.017,0.071,0.009,0.134-0.066,0.219c-0.119,0.045-0.283-0.125-0.426-0.202
						C223.928,215.602,224.152,215.797,224.357,215.924z"/>
					<path d="M225.145,214.426c0.086,0.218,0.039,0.679-0.283,0.782c-0.147-0.104-0.35-0.198-0.434-0.317
						C224.555,214.595,224.814,214.107,225.145,214.426z"/>
					<path d="M222.754,217.599c0.155-0.568,0.818-0.143,0.408,0.229C223.033,217.803,222.822,217.661,222.754,217.599z"/>
					<path d="M223.982,216.388c0.021,0.148-0.077,0.318-0.209,0.498c-0.107,0.021-0.243-0.081-0.377-0.17
						C223.393,216.437,223.779,216.014,223.982,216.388z"/>
					<path d="M222.816,218.311c-0.035,0.052-0.07,0.101-0.104,0.154c-0.09,0.002-0.28-0.121-0.313-0.203
						C222.475,218.006,222.734,218.176,222.816,218.311z"/>
					<path d="M223.618,217.007c0.073,0.27-0.252,0.035-0.397-0.071c0.039-0.069,0.074-0.13,0.129-0.142
						C223.439,216.87,223.479,217.075,223.618,217.007z"/>
					<path d="M223.037,217.968C222.587,218.504,222.534,217.366,223.037,217.968L223.037,217.968z"/>
					<path d="M221.16,220.063c-0.053,0.231-0.059,0.565-0.313,0.765c-0.131-0.024-0.394-0.193-0.471-0.305
						C220.52,220.219,220.813,219.751,221.16,220.063z"/>
					<path d="M220.592,221.22c-0.14,0.313-0.431,0.771-0.658,1.021c-0.141-0.013-0.406-0.141-0.442-0.287
						c0.125-0.366,0.458-0.643,0.661-1.023C220.275,220.954,220.527,221.118,220.592,221.22z"/>
					<path d="M221.611,219.018c0.201,0.162,0.07,0.498-0.139,0.615c-0.06-0.036-0.119-0.078-0.185-0.118
						C221.318,219.348,221.507,219.146,221.611,219.018z"/>
					<path fill="#F0E369" d="M215.996,228.839c-0.547-0.266-1.133-0.721-1.691-1.057c0.758-0.539,1.519-1.066,2.262-1.66
						C216.361,227.034,216.172,227.939,215.996,228.839z"/>
					<path d="M223.75,214.452c0.284-1.032,1.168-0.383,0.499,0.324C224.105,214.733,223.835,214.577,223.75,214.452z"/>
					<path d="M223.688,215.528c-0.033,0.053-0.067,0.103-0.104,0.155c-0.104,0.044-0.246-0.093-0.371-0.169
						C223.206,215.176,223.576,215.342,223.688,215.528z"/>
					<path d="M221.298,218.815c0.157,0.149,0.062,0.506-0.166,0.598c-0.06-0.041-0.123-0.078-0.185-0.119
						C221.098,219.091,221.121,218.927,221.298,218.815z"/>
					<path d="M222.072,217.159c0.111-0.604,0.836-0.084,0.369,0.237C222.316,217.315,222.191,217.235,222.072,217.159z"/>
					<path d="M224.086,214.854c-0.092,0.25-0.301-0.057-0.445-0.063c-0.014-0.058,0.063-0.17,0.119-0.184
						C223.916,214.68,223.938,214.782,224.086,214.854z"/>
					<path d="M222.623,216.362c0.102,0.217,0.486,0.102,0.256,0.354c-0.111-0.073-0.227-0.149-0.34-0.222
						C222.568,216.452,222.598,216.409,222.623,216.362z"/>
					<path d="M221.818,217.663c0.154,0.021,0.416,0.189,0.211,0.357c-0.094,0.014-0.221-0.115-0.329-0.176
						C221.741,217.786,221.78,217.724,221.818,217.663z"/>
					<path d="M222.327,217.51c-0.021,0.091-0.042,0.126-0.118,0.182c-0.089,0.015-0.204-0.104-0.309-0.159
						C221.906,217.266,222.229,217.312,222.327,217.51z"/>
					<path d="M223.313,215.991c-0.037,0.125-0.176,0.373-0.291,0.443c-0.098,0.01-0.217-0.115-0.328-0.177
						C222.838,215.931,223.16,215.616,223.313,215.991z"/>
					<path d="M219.861,220.743c-0.238,0.334-0.451,0.774-0.705,1.031c-0.166-0.051-0.292-0.152-0.42-0.27
						C218.958,221.063,219.465,220.032,219.861,220.743z"/>
					<path d="M220.421,219.655c0.06,0.19-0.18,0.502-0.31,0.695c-0.156-0.068-0.387-0.156-0.483-0.275
						C219.752,219.618,220.275,219.23,220.421,219.655z"/>
					<path d="M221.123,218.626c-0.145,0.111-0.037,0.422-0.288,0.556c-0.063-0.028-0.124-0.021-0.2-0.09
						c0.035-0.175,0.234-0.427,0.359-0.552C221.035,218.566,221.079,218.598,221.123,218.626z"/>
					<path d="M220.926,218.128c0.121,0.076,0.243,0.154,0.365,0.234c-0.225-0.057-0.486-0.303-0.723-0.432
						C220.67,217.913,220.809,218.077,220.926,218.128z"/>
					<path d="M219.003,221.786c-0.028,0.05-0.067,0.033-0.094,0.09c-0.085-0.064-0.226-0.117-0.246-0.196
						C218.727,221.512,218.954,221.7,219.003,221.786z"/>
					<path d="M223.729,213.508c0.201,0.172,0.068,0.584-0.205,0.833c-0.174-0.028-0.268-0.209-0.474-0.305
						C223.184,213.685,223.436,213.258,223.729,213.508z"/>
					<path d="M223.021,215.059c-0.022,0.071-0.051,0.194-0.139,0.209c-0.123-0.041-0.206-0.119-0.379-0.209
						C222.464,214.718,222.807,214.868,223.021,215.059z"/>
					<path d="M222.628,215.436c0.06,0.207-0.114,0.364-0.215,0.565c-0.146,0.057-0.343-0.09-0.371-0.237
						C222.208,215.511,222.359,215.194,222.628,215.436z"/>
					<path d="M221.891,216.519c0.024,0.123,0.02,0.253-0.113,0.412c-0.125-0.003-0.276-0.159-0.411-0.23
						C221.422,216.446,221.66,216.29,221.891,216.519z"/>
					<path d="M220.688,218.38c0.096,0.183-0.054,0.506-0.263,0.574c-0.092-0.037-0.112-0.096-0.166-0.146
						c0.132-0.147,0.196-0.349,0.375-0.462C220.654,218.358,220.67,218.368,220.688,218.38z"/>
					<path d="M221.247,216.995c0.103-0.278,0.562,0.063,0.28,0.259C221.42,217.228,221.189,217.122,221.247,216.995z"/>
					<path d="M221.427,217.409c-0.034,0.054-0.069,0.104-0.104,0.155c-0.124-0.03-0.282-0.077-0.313-0.202
						C221.082,217.108,221.344,217.275,221.427,217.409z"/>
					<path d="M223.236,214.27c0.011,0.05-0.029,0.111-0.074,0.173c-0.092-0.056-0.176-0.111-0.264-0.167
						c0.021-0.059-0.012-0.102,0.031-0.167C223.063,214.112,223.096,214.252,223.236,214.27z"/>
					<path d="M220.346,218.159c0.18,0.143-0.076,0.377-0.193,0.582c-0.092-0.016-0.18-0.07-0.232-0.152
						c0.141-0.166,0.197-0.333,0.375-0.465C220.311,218.138,220.327,218.146,220.346,218.159z"/>
					<path d="M219.534,219.009c0.229,0.126,0.093,0.548-0.151,0.87c-0.152-0.04-0.398-0.201-0.496-0.323
						C219.087,219.237,219.311,218.889,219.534,219.009z"/>
					<path d="M219.102,220.253c-0.143,0.318-0.446,0.787-0.677,1.049c-0.171-0.064-0.288-0.145-0.42-0.271
						C218.241,220.648,218.635,219.551,219.102,220.253z"/>
					<path d="M218.302,221.374c-0.055,0.138-0.265-0.057-0.295-0.115c0.019-0.029,0.035-0.059,0.052-0.082
						C218.128,221.173,218.35,221.28,218.302,221.374z"/>
					<path d="M219.979,217.923c0.139,0.16,0.011,0.441-0.162,0.599c-0.067-0.03-0.129-0.022-0.201-0.091
						c0.011-0.225,0.183-0.352,0.313-0.544C219.943,217.9,219.961,217.911,219.979,217.923z"/>
					<path d="M220.906,216.03c-0.073,0.092-0.127,0.25-0.213,0.274c-0.043-0.03-0.086-0.06-0.133-0.089
						C220.557,216.038,220.771,215.78,220.906,216.03z"/>
					<path d="M222.018,214.258c-0.047,0.157-0.099,0.147-0.205,0.315c-0.053-0.037-0.104-0.067-0.156-0.104
						c-0.002-0.088,0.126-0.279,0.199-0.316C221.911,214.19,221.963,214.226,222.018,214.258z"/>
					<path d="M220.355,216.827c0.004,0.082-0.11,0.262-0.188,0.289c-0.043-0.027-0.086-0.059-0.132-0.09
						C220.014,216.892,220.176,216.638,220.355,216.827z"/>
					<path d="M220.605,216.432c0.002,0.088-0.121,0.283-0.203,0.315c-0.043-0.029-0.086-0.057-0.131-0.084
						c0.027-0.129,0.074-0.24,0.181-0.332C220.504,216.368,220.557,216.398,220.605,216.432z"/>
					<path d="M221.53,214.952c0,0.114-0.085,0.268-0.22,0.227C221.162,215.079,221.374,214.782,221.53,214.952z"/>
					<path d="M220.557,215.657c-0.013,0.125-0.1,0.325-0.229,0.407c-0.144-0.047-0.368-0.159-0.401-0.298
						C219.99,215.452,220.414,215.307,220.557,215.657z"/>
					<path d="M221.605,214.032c-0.017,0.094-0.058,0.154-0.137,0.209c-0.162-0.041-0.197-0.123-0.355-0.194
						C221.125,213.722,221.415,213.858,221.605,214.032z"/>
					<path d="M220.215,216.178c-0.053,0.101-0.041,0.153-0.135,0.212c-0.105,0.005-0.239-0.133-0.357-0.195
						C219.725,215.846,220.09,215.967,220.215,216.178z"/>
					<path d="M219.943,216.6c-0.053,0.101-0.041,0.151-0.137,0.209c-0.101-0.005-0.318-0.146-0.365-0.237
						C219.531,216.243,219.814,216.434,219.943,216.6z"/>
					<path d="M219.257,217.604c-0.077,0.256-0.255,0.639-0.54,0.43C218.721,217.839,219.063,217.221,219.257,217.604z"/>
					<path d="M218.032,219.487c-0.08,0.313-0.455,0.903-0.71,1.102c-0.316-0.236,0.398-0.785,0.508-1.121
						c0.016-0.026,0.029-0.053,0.047-0.081C217.932,219.421,217.984,219.456,218.032,219.487z"/>
					<path d="M218.639,218.504c0.055,0.159-0.303,0.834-0.529,0.696c-0.129-0.174,0.279-0.748,0.464-0.775
						C218.621,218.448,218.604,218.481,218.639,218.504z"/>
					<path d="M221.215,214.409c-0.009,0.162-0.141,0.386-0.258,0.504c-0.082-0.021-0.253-0.094-0.286-0.188
						C220.742,214.504,220.961,214.124,221.215,214.409z"/>
					<path d="M220.866,215.001c-0.042,0.063-0.007,0.107-0.075,0.174c-0.098,0.013-0.246-0.112-0.244-0.194
						c0.02-0.034,0.042-0.071,0.066-0.104C220.686,214.857,220.78,214.954,220.866,215.001z"/>
					<path d="M221.968,213.3c-0.03,0.044-0.054,0.085-0.083,0.13c-0.068-0.032-0.125-0.021-0.203-0.092
						C221.655,213.141,221.919,213.128,221.968,213.3z"/>
					<path d="M218.21,218.188c0.062,0.203-0.062,0.553-0.298,0.739c-0.189-0.125-0.382-0.252-0.57-0.372
						C217.405,218.175,217.895,217.753,218.21,218.188z"/>
					<path d="M222.364,212.403c0.169,0.149,0.022,0.57-0.216,0.793c-0.153-0.055-0.332-0.125-0.438-0.248
						C221.859,212.602,222.104,212.172,222.364,212.403z"/>
					<path d="M219.363,216.222c-0.063,0.089-0.111,0.229-0.193,0.248c-0.048-0.033-0.102-0.066-0.156-0.102
						C219.03,216.177,219.258,215.997,219.363,216.222z"/>
					<path d="M219.882,215.37c-0.01,0.131-0.166,0.375-0.307,0.246C219.479,215.463,219.76,215.11,219.882,215.37z"/>
					<path d="M221.021,213.614c0,0.088-0.129,0.283-0.203,0.314C220.502,213.853,220.818,213.362,221.021,213.614z"/>
					<path d="M219.614,215.788c-0.027,0.115-0.142,0.369-0.282,0.267C219.165,215.956,219.436,215.524,219.614,215.788z"/>
					<path d="M220.538,214.305c0.009,0.074-0.101,0.242-0.172,0.261c-0.095-0.031-0.078-0.086-0.14-0.126
						C220.309,214.294,220.389,214.142,220.538,214.305z"/>
					<path d="M214.275,223.747c-0.973,1.505-1.943,3.004-2.918,4.506c-0.199-0.133-0.398-0.26-0.601-0.391
						c0.435-0.672,0.867-1.346,1.302-2.018c-0.707-0.548-1.606-1.055-2.391-1.588c-0.467,0.59-0.896,1.365-1.352,2.027
						c-0.197-0.131-0.4-0.263-0.604-0.392c0.985-1.479,1.948-3.078,2.944-4.487c0.194,0.123,0.387,0.248,0.575,0.371
						c-0.428,0.663-0.858,1.326-1.287,1.992c0.713,0.548,1.609,1.057,2.396,1.588c0.46-0.583,0.883-1.349,1.327-2.003
						C213.874,223.487,214.075,223.616,214.275,223.747z"/>
					<path d="M218.189,216.838c0.059,0.172-0.194,0.495-0.34,0.637c-0.127-0.076-0.106-0.188-0.197-0.272
						C217.816,216.995,217.939,216.622,218.189,216.838z"/>
					<path d="M216.951,218.751c0.018,0.164-0.186,0.406-0.319,0.607c-0.139,0.215-0.249,0.52-0.434,0.504
						c-0.169-0.123,0.088-0.369,0.198-0.541c0.139-0.223,0.277-0.43,0.392-0.604c0.024-0.023,0.063,0.018,0.086-0.02
						C216.902,218.717,216.923,218.73,216.951,218.751z"/>
					<path d="M217.523,217.745c0.207,0.156-0.278,0.871-0.49,0.76C216.904,218.348,217.327,217.694,217.523,217.745z"/>
					<path d="M218.369,216.1c-0.061,0.165-0.166,0.136-0.283,0.037c-0.01-0.047,0.032-0.108,0.074-0.172
						C218.229,216.01,218.3,216.057,218.369,216.1z"/>
					<path d="M216.122,214.35c-0.026,0.075-0.156,0.167-0.108,0.224c0.114-0.109,0.17,0.133,0.307,0.16
						C216.421,214.569,216.082,214.503,216.122,214.35z M216.854,215.454c0.078-0.399,0.523-0.746,0.635-1.151
						c-0.258-0.009-0.379,0.616-0.621,0.676c-0.1-0.069-0.191-0.125-0.282-0.146c-0.069,0.131,0.159,0.192,0.267,0.283
						c-0.054,0.072-0.098,0.181-0.162,0.193c-0.308-0.118-0.834-0.372-0.736-0.701c-0.059,0.018-0.172-0.057-0.186-0.119
						c0.043-0.06,0.002-0.104,0.08-0.172c0.043-0.078,0.11-0.033,0.176,0.004c-0.062-0.15-0.08-0.303,0.119-0.41
						c0.104,0.076,0.178,0.164,0.08,0.277c0.148-0.076,0.129,0.135,0.288,0.188c-0.063-0.215-0.116-0.486-0.311-0.608
						c0.146-0.345,0.403-0.793,0.67-1.093c0.047-0.137-0.136-0.124-0.159-0.217c0.116-0.137,0.287,0.008,0.45,0.106
						c0.126,0.308,0.026,0.677,0.342,0.966c0.461,0.43,1.215,0.692,1.758,1.137c0.064,0.438-0.375,0.556-0.479,0.732
						c-0.108,0.199-0.063,0.455-0.343,0.598c-0.113-0.076-0.23-0.162-0.332-0.181c-0.073,0.091-0.006,0.296-0.17,0.261
						c-0.053-0.343,0.553-0.821,0.584-1.184c-0.084,0.014-0.145,0.11-0.252-0.013c0.084,0.309-0.34,0.819-0.584,1.071
						c-0.102-0.018-0.217-0.103-0.332-0.174c-0.004-0.15,0.125-0.313,0.25-0.509c0.105-0.163,0.33-0.366,0.211-0.496
						c-0.086,0.12-0.234,0.304-0.362,0.507c-0.107,0.053-0.263-0.078-0.384-0.101c-0.023,0.164,0.144,0.142,0.281,0.256
						c-0.06,0.082-0.106,0.209-0.183,0.22C217.066,215.588,216.96,215.522,216.854,215.454z M217.846,215.648
						c-0.1-0.043-0.223-0.196-0.297-0.116C217.607,215.606,217.768,215.764,217.846,215.648z"/>
					<path d="M216.229,218.542c-0.207,0.295-0.396,0.681-0.617,0.898c-0.146,0.01-0.344-0.119-0.393-0.25
						c0.211-0.297,0.406-0.703,0.635-0.928C216.01,218.237,216.195,218.417,216.229,218.542z"/>
					<path d="M215.543,219.549c-0.016,0.231-0.302,0.042-0.47-0.081c-0.011-0.049,0.03-0.111,0.077-0.173
						C215.395,219.284,215.37,219.607,215.543,219.549z"/>
					<path d="M216.617,217.31c0.22,0.184-0.031,0.671-0.313,0.947c-0.144-0.028-0.422-0.206-0.457-0.331
						C216.005,217.528,216.35,217.079,216.617,217.31z"/>
					<path fill="#FFFFFF" d="M217.549,215.532c0.074-0.08,0.197,0.073,0.297,0.116C217.768,215.764,217.607,215.606,217.549,215.532
						z"/>
					<path d="M215.939,216.868c0.492,0.266-0.416,1.465-0.721,0.648C215.361,217.188,215.672,216.725,215.939,216.868z"/>
					<path d="M215.955,216.618c-0.126,0.047-0.227,0.225-0.364,0.211c-0.063-0.09,0.009-0.211-0.062-0.297
						C215.667,216.53,215.807,216.564,215.955,216.618z"/>
					<path d="M215.445,216.549c0.168,0.448-0.645,1.282-0.838,0.538C214.77,216.743,215.079,216.27,215.445,216.549z"/>
					<path d="M215.332,216.253c-0.104,0.174-0.262,0.111-0.389,0.195c-0.045-0.164-0.012-0.344-0.123-0.492
						c0.082-0.082,0.273,0.095,0.215,0.178C215.134,216.173,215.284,216.099,215.332,216.253z"/>
					<path fill="#FFFFFF" d="M216.32,214.733c-0.139-0.027-0.192-0.271-0.309-0.16c-0.047-0.057,0.082-0.147,0.109-0.224
						C216.082,214.503,216.421,214.569,216.32,214.733z"/>
					<path d="M215.742,212.575c0.095-0.631,0.994-0.063,0.488,0.282C216.055,212.778,215.956,212.692,215.742,212.575z"/>
					<path d="M215.477,213.854c0.025,0.079-0.024,0.171-0.103,0.271c-0.119-0.002-0.274-0.159-0.411-0.228
						C214.961,213.534,215.27,213.702,215.477,213.854z"/>
					<path d="M215.749,213.547c-0.034,0.051-0.069,0.104-0.104,0.159c-0.123-0.021-0.373-0.185-0.443-0.291
						C215.338,213.077,215.652,213.392,215.749,213.547z"/>
					<path d="M213.051,217.196c-0.027,0.117-0.158,0.353-0.268,0.416c-0.195-0.043-0.356-0.146-0.516-0.296
						C212.268,216.825,212.854,216.768,213.051,217.196z"/>
					<path d="M213.836,215.579c0.162,0.209-0.018,0.687-0.285,0.783c-0.208-0.123-0.264-0.209-0.447-0.289
						C213.204,215.723,213.605,215.34,213.836,215.579z"/>
					<path d="M212.688,217.7c-0.029,0.043-0.061,0.088-0.086,0.131c-0.166-0.021-0.369-0.215-0.496-0.324
						C212.234,217.327,212.559,217.538,212.688,217.7z"/>
					<path fill="#F0E369" d="M209.53,213.87c0.305,0.19,0.532-0.217,0.665-0.535c0.021,0.102,0.011,0.23,0.103,0.252
						c-0.083,0.123-0.161,0.242-0.243,0.363c-0.037,0.155,0.16,0.254,0.328,0.363c0.066,0.031,0.111-0.046,0.172-0.039
						c0.157-0.144,0.33-0.71,0.254-0.395c0.014,0.053,0.074,0.094,0.144,0.129c-0.104,0.166-0.308,0.314-0.277,0.488
						c0.173,0.095,0.263,0.209,0.392,0.254c0.475-0.059,0.481-1.118-0.098-0.768c0.086-0.229,0.463-0.023,0.676-0.013
						c-0.527-0.465-1.188-0.901-1.805-1.353c-0.046-0.181,0.271-0.664,0.453-0.748c0.132,0.117-0.193,0.304-0.255,0.509
						c-0.024,0.077,0.078,0.2,0.175,0.186c0.146-0.055,0.229-0.409,0.371-0.465c0.191,0.138-0.173,0.323-0.238,0.551
						c0.006,0.058,0.096,0.099,0.164,0.142c0.202-0.006,0.268-0.473,0.417-0.471c0.154,0.185-0.274,0.357-0.26,0.574
						c0.063,0.098,0.161,0.135,0.253,0.127c0.156-0.156,0.178-0.438,0.333-0.453c0.155,0.145-0.257,0.414-0.235,0.59
						c0.043,0.029,0.088,0.056,0.131,0.084c0.201,0.013,0.25-0.461,0.4-0.445c0.155,0.152-0.232,0.395-0.224,0.523
						c-0.007,0.061,0.044,0.107,0.118,0.153c0.225,0.041,0.211-0.37,0.4-0.446c0.297,0.074-0.389,0.437-0.14,0.613
						c0.026,0.012,0.047-0.007,0.073,0.012c0.154-0.113,0.211-0.258,0.312-0.431c0.183-0.002,0.474,0.205,0.509,0.366
						c-0.113,0.095-0.293,0.35-0.322,0.499c0.07,0.041,0.142,0.106,0.201,0.091c0.166,0.005,0.244-0.393,0.4-0.448
						c0.186,0.163-0.297,0.451-0.303,0.696c0.281,0.085,0.428-0.454,0.695-0.439c-0.035,0.209-0.34,0.479-0.371,0.688
						c0.16,0.028,0.338-0.072,0.473-0.216c0.08-0.084,0.074-0.311,0.223-0.229c0.096,0.146-0.269,0.388-0.242,0.55
						c0.276,0.31,0.364-0.248,0.555-0.347c0.16,0.142-0.241,0.397-0.215,0.565c0.091,0.082,0.166,0.08,0.246,0.086
						c0.111-0.127,0.19-0.426,0.338-0.413c0.148,0.135-0.262,0.347-0.243,0.55c0.054,0.047,0.101,0.059,0.146,0.057
						c0.146-0.092,0.217-0.231,0.301-0.4c0.099-0.018,0.229-0.004,0.293,0.117c-0.668,1.229-1.66,2.764-2.508,3.877
						c-0.055-0.035-0.105-0.068-0.158-0.102c-0.006-0.181,0.229-0.408,0.061-0.558c0.096-0.048,0.213,0.003,0.293-0.106
						c0.146-0.219-0.203-0.423-0.422-0.496c-0.07,0.055-0.135,0.143-0.191,0.244c-0.229,0.102-0.529-0.133-0.802-0.256
						c-0.101-0.016-0.177,0.096-0.249,0.212c-0.119-0.089,0.055-0.237,0.034-0.35c-0.062-0.115-0.32-0.183-0.228-0.333
						c0.1-0.006,0.228,0.135,0.322,0.135c0.146-0.081,0.149-0.254,0.256-0.395c-0.07-0.195-0.309-0.494-0.543-0.428
						c-0.107,0.223,0.379,0.313,0.465,0.489c-0.172-0.005-0.41-0.31-0.573-0.26c-0.05,0.077-0.099,0.157-0.15,0.235
						c-0.276-0.227-0.53,0.199-0.687,0.189c0.248-0.614,0.858-1.402,1.223-1.999c0.01-0.151-0.355-0.386-0.506-0.365
						c-0.061,0.104-0.098,0.202-0.119,0.296c0.148,0.074,0.212,0.166,0.325,0.248c-0.103,0.059-0.25-0.1-0.377-0.168
						c-0.023,0.164,0.413,0.227,0.294,0.41c-0.107,0.006-0.242-0.133-0.36-0.193c-0.209-0.039-0.505,0.443-0.261,0.574
						c-0.061,0.027-0.145-0.066-0.217-0.064c0.039,0.119,0.146,0.224,0.316,0.316c0.131-0.074-0.023-0.203,0.051-0.195
						c0.148,0.069,0.018,0.197-0.047,0.307c-0.192-0.028-0.352-0.223-0.561-0.175c0.184-0.455,0.665-0.968,0.846-1.425
						c-0.128-0.414-0.726-0.429-0.725,0.092c0.152,0.095,0.308,0.189,0.404,0.296c-0.162,0.19-0.306-0.177-0.488-0.167
						c-0.368,0.169-0.393,0.617,0.025,0.762c-0.111,0.027-0.285-0.23-0.381-0.098c-0.035,0.119,0.209,0.182,0.307,0.273
						c-0.142,0.144-0.401-0.257-0.547-0.133c-0.133,0.211-0.271,0.418-0.405,0.63c0.019-0.668,1.118-1.577,1.155-2.188
						c-0.139-0.116-0.416-0.199-0.369-0.353c0.123,0.08,0.244,0.158,0.367,0.239C209.684,213.952,209.598,213.913,209.53,213.87z
						 M212.783,217.612c0.107-0.063,0.238-0.299,0.268-0.416c-0.195-0.429-0.783-0.371-0.781,0.12
						C212.427,217.467,212.588,217.569,212.783,217.612z M213.551,216.362c0.27-0.097,0.447-0.572,0.285-0.781
						c-0.229-0.24-0.632,0.143-0.732,0.492C213.287,216.155,213.343,216.241,213.551,216.362z M212.604,217.829
						c0.024-0.043,0.056-0.086,0.086-0.131c-0.131-0.16-0.455-0.371-0.584-0.192C212.232,217.616,212.436,217.809,212.604,217.829z
						 M213.221,216.819c0.075-0.027,0.191-0.207,0.187-0.291c-0.249-0.222-0.66-0.421-0.63,0.002
						C212.911,216.659,213.055,216.762,213.221,216.819z M212.51,216.544c0.09-0.127,0.225-0.381,0.184-0.404
						c-0.063,0.098-0.123,0.193-0.188,0.291c-0.07,0.025-0.156-0.035-0.234-0.041C211.941,216.186,212.408,216.575,212.51,216.544z
						 M211.718,217.702c0.273-0.182,0.466-0.696,0.601-0.985c-0.094-0.128-0.317-0.228-0.479-0.347
						c-0.135,0.037-0.293,0.308-0.332,0.455c0.104,0.188,0.498,0.203,0.455,0.442c-0.093-0.204-0.457-0.397-0.606-0.209
						c0.141,0.104,0.363,0.196,0.383,0.321c-0.149-0.078-0.323-0.25-0.461-0.26c-0.103,0.037-0.149,0.201-0.141,0.278
						c0.192,0.118,0.271,0.246,0.467,0.304C211.671,217.497,211.852,217.616,211.718,217.702z M212.889,215.897
						c0.198-0.224,0.375-0.654,0.188-0.809c-0.009-0.008-0.017-0.014-0.024-0.018c-0.32-0.244-0.613,0.139-0.742,0.449
						c0.047,0.075,0.145,0.139,0.246,0.201c0.06,0.041,0.121,0.08,0.184,0.109c0.02,0.014,0.037,0.025,0.054,0.039
						c0.004-0.002,0.006-0.004,0.008-0.008C212.832,215.878,212.861,215.89,212.889,215.897z M212.486,216.344
						c0.102-0.062,0.178-0.204,0.162-0.304c-0.241-0.201-0.6-0.42-0.633-0.002C212.094,216.157,212.352,216.308,212.486,216.344z
						 M211.271,216.669c0.119-0.028,0.291-0.283,0.313-0.426c-0.091-0.137-0.346-0.242-0.507-0.363
						c-0.126,0.033-0.294,0.287-0.272,0.415C210.85,216.448,211.105,216.55,211.271,216.669z M211.28,215.563
						c0.144,0.3,0.551,0.338,0.71,0.052C211.732,215.434,211.331,215.092,211.28,215.563z M212.033,215.378
						c0.269-0.098,0.447-0.569,0.285-0.78c-0.229-0.241-0.631,0.146-0.729,0.494C211.77,215.17,211.831,215.26,212.033,215.378z"/>
					<path d="M213.406,216.528c0.006,0.084-0.11,0.264-0.188,0.291c-0.166-0.058-0.309-0.158-0.441-0.289
						C212.746,216.107,213.157,216.307,213.406,216.528z"/>
					<path d="M216.52,212.303c-0.09-0.046-0.531-0.187-0.367-0.354C216.241,212.128,216.583,212.054,216.52,212.303z"/>
					<path d="M215.998,213.155c-0.061,0.108-0.12,0.195-0.199,0.202c-0.136-0.126-0.253-0.168-0.355-0.267
						C215.45,212.714,215.88,212.975,215.998,213.155z"/>
					<path d="M215.338,212.688c-0.018,0.104-0.097,0.242-0.193,0.244c-0.137-0.129-0.248-0.147-0.354-0.265
						C214.823,212.317,215.127,212.523,215.338,212.688z"/>
					<path d="M215.376,211.596c0.121-0.121,0.496,0.082,0.505,0.254C215.753,211.909,215.452,211.636,215.376,211.596z"/>
					<path d="M209.508,221.407c-0.183,0.07-0.337,0.231-0.507,0.152c-0.188-0.086-0.215-0.421-0.327-0.585
						c-0.257-0.375-0.799-0.751-1.267-0.856c-1.895-0.42-3.401,2.521-1.796,3.746c0.667,0.51,1.114,0.414,1.718,0.442
						c0.075,0.151,0.028,0.328,0.104,0.478c-1.469,0.569-3.136-0.865-3.271-2.191c-0.055-0.561,0.151-1.264,0.532-1.85
						c0.781-1.209,2.153-1.736,3.48-1.019C209.009,220.177,209.363,220.763,209.508,221.407z"/>
					<path d="M212.691,216.14c0.043,0.023-0.092,0.277-0.183,0.404c-0.102,0.029-0.567-0.358-0.239-0.154
						c0.078,0.006,0.164,0.066,0.235,0.041C212.568,216.333,212.629,216.237,212.691,216.14z"/>
					<path d="M212.316,216.717c-0.135,0.289-0.325,0.805-0.6,0.985c0.133-0.088-0.047-0.205-0.115,0.002
						c-0.194-0.059-0.272-0.187-0.467-0.305c-0.009-0.076,0.039-0.242,0.143-0.277c0.137,0.009,0.311,0.181,0.459,0.259
						c-0.019-0.125-0.241-0.218-0.381-0.321c0.148-0.188,0.514,0.005,0.605,0.209c0.043-0.238-0.352-0.256-0.455-0.443
						c0.039-0.146,0.197-0.418,0.332-0.455C212,216.489,212.225,216.589,212.316,216.717z"/>
					<path fill="#F0E369" d="M213.077,215.089c0.187,0.154,0.01,0.585-0.188,0.809c-0.025-0.008-0.057-0.02-0.088-0.033
						C213.039,215.659,213.141,215.304,213.077,215.089z"/>
					<path d="M213.077,215.089c0.063,0.215-0.038,0.57-0.276,0.775c-0.02-0.009-0.039-0.02-0.062-0.031
						c-0.058-0.037-0.119-0.074-0.183-0.11c-0.078-0.056-0.146-0.113-0.189-0.164c0.138-0.3,0.455-0.637,0.686-0.487
						C213.061,215.075,213.068,215.081,213.077,215.089z"/>
					<path d="M212.648,216.04c0.016,0.1-0.062,0.242-0.162,0.304c-0.135-0.036-0.394-0.187-0.471-0.306
						C212.05,215.62,212.407,215.839,212.648,216.04z"/>
					<path d="M212.801,215.864c-0.002,0.004-0.004,0.006-0.008,0.008c-0.016-0.014-0.034-0.025-0.054-0.039
						C212.762,215.846,212.781,215.856,212.801,215.864z"/>
					<path fill="#F0E369" d="M212.557,215.723c0.063,0.036,0.127,0.073,0.184,0.11C212.678,215.803,212.615,215.764,212.557,215.723
						z"/>
					<path d="M214.736,213.672c-0.11,0.04-0.369-0.142-0.438-0.243c0.06-0.363,0.324-0.107,0.524,0.002
						C214.813,213.508,214.818,213.581,214.736,213.672z"/>
					<path d="M214.546,212.993c0.153-0.321,0.313-0.053,0.53,0.045c-0.008,0.078-0.003,0.151-0.084,0.24
						C214.814,213.245,214.661,213.137,214.546,212.993z"/>
					<path d="M215.579,212.435c-0.129-0.085-0.403-0.181-0.524-0.342C215.238,211.557,215.975,212.063,215.579,212.435z"/>
					<path d="M212.311,215.521c0.129-0.312,0.422-0.694,0.742-0.45c-0.229-0.148-0.548,0.188-0.686,0.487
						c0.043,0.052,0.111,0.108,0.189,0.164C212.454,215.659,212.357,215.597,212.311,215.521z"/>
					<path d="M214.409,211.713c0.077-0.642,1.011-0.019,0.47,0.305C214.699,211.849,214.615,211.85,214.409,211.713z"/>
					<path d="M214.411,212.683c-0.03,0.053-0.065,0.104-0.104,0.157c-0.121-0.021-0.373-0.185-0.441-0.289
						C213.953,212.198,214.359,212.534,214.411,212.683z"/>
					<path d="M214.658,212.245c-0.016,0.097-0.072,0.183-0.154,0.236c-0.186-0.111-0.215-0.128-0.393-0.256
						C214.141,211.876,214.447,212.081,214.658,212.245z"/>
					<path d="M215.061,211.167c-0.049,0.149,0.141,0.125,0.182,0.23c-0.131,0.137-0.352-0.169-0.512-0.186
						c0.021-0.035,0.043-0.068,0.069-0.102C214.889,211.161,215.002,211.292,215.061,211.167z"/>
					<path d="M211.585,216.243c-0.021,0.143-0.194,0.396-0.313,0.426c-0.166-0.119-0.422-0.223-0.465-0.374
						c-0.021-0.128,0.146-0.382,0.271-0.415C211.239,216.001,211.494,216.107,211.585,216.243z"/>
					<path d="M211.99,215.614c-0.159,0.287-0.566,0.248-0.71-0.052C211.331,215.092,211.732,215.434,211.99,215.614z"/>
					<path d="M212.318,214.598c0.162,0.211-0.018,0.685-0.285,0.78c-0.202-0.118-0.264-0.208-0.444-0.286
						C211.688,214.743,212.09,214.356,212.318,214.598z"/>
					<path d="M213.618,212.985c0.06-0.357,0.321-0.104,0.521,0.004c0.021,0.112-0.062,0.234-0.166,0.264
						C213.857,213.163,213.663,213.092,213.618,212.985z"/>
					<path d="M213.581,211.956c0.185-0.383,0.429-0.78,0.692-1.186c0.023-0.066,0.074-0.005,0.104-0.045
						c0.023,0.01,0.018,0.027,0.01,0.041c-0.214,0.369-0.447,0.654-0.673,0.98C213.67,211.819,213.625,211.887,213.581,211.956z"/>
					<path d="M212.184,212.278c0.105-0.236,0.344-0.68,0.635-0.404c0.041,0.188-0.113,0.416-0.27,0.644
						C212.395,212.508,212.295,212.398,212.184,212.278z"/>
					<path d="M212.207,211.439c0.025,0.179-0.134,0.507-0.313,0.653c-0.108,0.003-0.281-0.141-0.342-0.219
						C211.667,211.62,211.9,211.138,212.207,211.439z"/>
					<path d="M211.593,211.007c-0.014,0.18-0.159,0.497-0.34,0.635c-0.146-0.007-0.321-0.176-0.331-0.29
						C211.111,211.088,211.354,210.678,211.593,211.007z"/>
					<path fill="#F0E369" d="M209.548,213.249c0.026,0.048-0.196,0.344-0.151,0.463c-0.09,0.001-0.17-0.018-0.229-0.11
						C209.293,213.466,209.443,213.491,209.548,213.249z"/>
					<path d="M211.145,210.491c0.053-0.076-0.008-0.195,0.111-0.225c0.026,0.018,0.053,0.035,0.077,0.051
						c-0.181,0.303-0.44,0.62-0.55,0.907c-0.137,0.007-0.251-0.147-0.254-0.237c0.144-0.113,0.156-0.291,0.305-0.474
						C210.932,210.476,211.032,210.448,211.145,210.491z"/>
					<path d="M210.988,209.87c-0.025,0.273-0.396,0.73-0.582,0.963C210.046,210.461,210.813,210.083,210.988,209.87z"/>
					<path d="M205.34,217.961c-1.388,2.053-2.391,4.634-4.494,3.56c-0.592-0.3-1.086-0.885-1.223-1.385
						c-0.345-1.262,1.146-2.844,2.079-4.417c0.024-0.037,0.044-0.075,0.078-0.063c0.19,0.125,0.384,0.25,0.576,0.375
						c-0.54,1.225-1.946,2.344-2.066,3.532c-0.105,1.082,1.284,1.923,2.191,1.271c0.925-0.66,1.39-2.245,2.259-3.262
						C204.94,217.704,205.142,217.833,205.34,217.961z"/>
					<path d="M207.264,212.069c0.504-1.191,1.598-0.214,0.741,0.519C207.773,212.461,207.445,212.297,207.264,212.069z"/>
					<path d="M207.689,212.79c-0.073,0.091-0.131,0.248-0.217,0.271c-0.166-0.122-0.404-0.229-0.507-0.364
						C207.018,212.235,207.496,212.581,207.689,212.79z"/>
					<path d="M206.832,214.057c0.016,0.063-0.066,0.149-0.109,0.228c-0.172-0.067-0.425-0.158-0.543-0.312
						C206.209,213.55,206.676,213.864,206.832,214.057z"/>
					<path d="M206.986,213.639c-0.026,0.043-0.057,0.087-0.082,0.132c-0.121,0-0.275-0.156-0.409-0.229
						c0.04-0.063,0.079-0.123,0.118-0.184C206.73,213.452,206.938,213.53,206.986,213.639z"/>
					<path d="M209.355,210.038c-0.154-0.034-0.36-0.183-0.461-0.26c0.127-0.387,0.566-0.798,0.752-0.479
						C209.747,209.468,209.539,209.84,209.355,210.038z"/>
					<path d="M207.105,213.567c-0.16-0.115-0.381-0.217-0.477-0.348c0.077-0.477,0.469-0.148,0.699,0.009
						C207.333,213.352,207.234,213.54,207.105,213.567z"/>
					<path d="M206.807,212.255c-0.062,0.082-0.025,0.145-0.108,0.227c-0.2,0.025-0.462-0.255-0.689-0.369
						c0.065-0.108,0.136-0.219,0.212-0.271C206.418,211.903,206.715,212.103,206.807,212.255z"/>
					<path d="M205.913,213.464c-0.015,0.094-0.07,0.183-0.153,0.236c-0.165-0.119-0.329-0.213-0.487-0.279
						C205.225,212.975,205.745,213.23,205.913,213.464z"/>
					<path d="M208.643,208.614c0.194,0.146-0.021,0.539-0.205,0.834c-0.154-0.063-0.388-0.153-0.487-0.279
						C208.075,208.825,208.432,208.452,208.643,208.614z"/>
					<path d="M208.26,209.665c-0.091-0.069-0.246-0.127-0.271-0.213c0.019-0.024,0.034-0.051,0.051-0.078
						C208.143,209.389,208.441,209.522,208.26,209.665z"/>
					<path d="M205.567,212.905c0.1-0.304,0.451,0.084,0.555,0.174c-0.024,0.047-0.054,0.086-0.083,0.133
						C205.912,213.186,205.646,213.014,205.567,212.905z"/>
					<path d="M205.693,212.653c-0.004-0.101,0.129-0.258,0.203-0.314c0.207,0.1,0.494,0.236,0.588,0.416
						c-0.018,0.115-0.125,0.203-0.213,0.271C206.102,212.98,205.814,212.784,205.693,212.653z"/>
					<path d="M206.991,211.971c-0.218-0.207-0.538-0.291-0.696-0.529c0.104-0.255,0.282-0.479,0.464-0.553
						C207.344,210.663,207.604,211.597,206.991,211.971z"/>
					<path d="M205.34,210.788c0.415-1.119,1.618-0.232,0.725,0.541C205.829,211.21,205.478,211.034,205.34,210.788z"/>
					<path d="M205.322,212.372c-0.168-0.041-0.441-0.23-0.554-0.355c0.036-0.51,0.624-0.122,0.747,0.109
						C205.45,212.212,205.396,212.353,205.322,212.372z"/>
					<path d="M207.648,207.969c0.232,0.144,0.006,0.616-0.226,0.858c-0.142-0.067-0.35-0.149-0.444-0.287
						C207.104,208.21,207.434,207.838,207.648,207.969z"/>
					<path d="M205.072,212.583c-0.131-0.006-0.293-0.168-0.438-0.246c0.043-0.059,0.004-0.104,0.074-0.172
						c0.125,0.02,0.376,0.182,0.446,0.287C205.127,212.495,205.1,212.536,205.072,212.583z"/>
					<path d="M204.835,213.062c-0.164-0.021-0.364-0.216-0.542-0.313c0.112-0.453,0.505-0.047,0.678,0.102
						C204.925,212.925,204.879,212.993,204.835,213.062z"/>
					<path d="M205.066,211.501c0.172-0.377,0.579-0.133,0.813,0.119c-0.012,0.123-0.123,0.209-0.213,0.271
						C205.466,211.762,205.266,211.634,205.066,211.501z"/>
					<path fill="#F0E369" d="M203.312,212.485c-0.024,0.143-0.188,0.434-0.353,0.256c0.02-0.063,0.185-0.218,0.273-0.308
						C203.259,212.45,203.287,212.47,203.312,212.485z"/>
					<path d="M204.087,211.464c-0.024,0.051-0.061,0.035-0.045,0.009c0.596-0.92,1.136-2.065,1.851-2.856
						c0.033,0.028,0.074,0.055,0.097,0.022c0.024,0.015,0.018,0.03,0.007,0.045C205.358,209.612,204.726,210.553,204.087,211.464z"
						/>
					<path d="M199.047,217.868c-0.136,0.646-0.702,1.041-1.137,1.121c-0.92,0.176-2.056-0.806-3.082-1.436
						c0.984-1.487,1.945-3.08,2.942-4.492c0.822,0.605,2.039,1.116,2.388,1.881c0.407,0.891-0.627,2.163-1.593,1.721
						C198.87,217.06,199.141,217.429,199.047,217.868z M197.417,218.37c0.457,0.033,1.03-0.418,0.983-0.998
						c-0.046-0.594-0.908-0.965-1.621-1.457c-0.343,0.437-0.762,1.078-1.016,1.57C196.325,217.78,196.846,218.333,197.417,218.37z
						 M198.664,216.28c0.508-0.011,1.047-0.693,0.822-1.215c-0.195-0.453-0.831-0.717-1.392-1.124
						c-0.384,0.335-0.696,1.033-1.054,1.511C197.632,215.768,198.089,216.288,198.664,216.28z"/>
					<path fill="#F0E369" d="M202.048,211.743c0.085,0.108,0.152,0.222,0.058,0.369c-0.075,0.019-0.152-0.004-0.245-0.084
						C201.84,211.917,201.937,211.769,202.048,211.743z"/>
					<path fill="#F0E369" d="M198.4,217.372c0.047,0.58-0.526,1.031-0.983,0.998c-0.571-0.037-1.092-0.592-1.653-0.885
						c0.253-0.492,0.673-1.135,1.016-1.57C197.492,216.407,198.354,216.778,198.4,217.372z"/>
					<path fill="#F0E369" d="M201.889,211.641c-0.019,0.129-0.137,0.304-0.265,0.233
						C201.433,211.758,201.79,211.346,201.889,211.641z"/>
					<path fill="#F0E369" d="M199.486,215.065c0.225,0.521-0.314,1.204-0.822,1.215c-0.574,0.01-1.031-0.513-1.623-0.828
						c0.357-0.478,0.669-1.176,1.054-1.511C198.655,214.349,199.291,214.612,199.486,215.065z"/>
				</g>
			</g>
		</g>
		<path fill="#CD1225" d="M219.098,210.956c-0.158,0.434-0.414,0.888-0.556,1.314c-0.28-0.16-0.539-0.207-0.78-0.172
			C218.143,211.534,218.184,210.208,219.098,210.956z"/>
		<path fill="#042B7D" d="M219.8,213.085c-0.14-0.029-0.458,0.035-0.719-0.205c0.228-0.455,0.386-0.896,0.612-1.352
			c0.246,0.234,0.562,0.231,0.67,0.172c0.08,0.219-0.104,0.431-0.184,0.627c-0.227,0.574-0.502,1.302-0.804,1.933
			C219.42,213.979,219.691,213.456,219.8,213.085z"/>
		<path fill="#FBD022" d="M219.098,210.956c0,0,0.264,0.148,0.363,0.291c0.1,0.144,0.232,0.281,0.232,0.281l-0.612,1.352
			c0,0-0.207-0.309-0.31-0.45c-0.101-0.144-0.229-0.158-0.229-0.158L219.098,210.956z"/>
	</g>
	<path opacity="0.16" fill="#65A7D1" enable-background="new    " d="M153.332,178.377c1.44-1.779,2.658-3.296,3.889-4.8
		c0.561-0.686,1.297-1.068,2.174-1.198c0.576-0.087,0.981,0.13,0.993,0.715c0.022,1.119,0.652,1.726,1.546,2.267
		c1.963,1.188,3.9,2.42,5.794,3.715c0.441,0.301,0.668,0.916,0.992,1.389c0.133,0.191,0.222,0.443,0.401,0.572
		c3.279,2.319,6.562,4.633,9.858,6.93c0.921,0.645,2.063,0.492,3.158-0.404c0.867-0.709,1.657-1.52,2.553-2.184
		c2.411-1.79,5.22-2.078,8.109-2.062c3.645,0.024,6.74,1.451,9.659,3.527c9.415,6.692,18.89,13.301,28.313,19.983
		c9.994,7.084,19.933,14.246,29.953,21.297c1.67,1.177,2.27,2.582,2.1,4.5c-0.284,3.214-1.225,6.25-2.492,9.19
		c-2.316,5.368-5.509,10.168-9.566,14.368c-2.137,2.209-4.474,4.174-7.377,5.367c-2.088,0.859-3.867,0.566-5.748-0.712
		c-5.242-3.556-10.589-6.961-15.891-10.429c-6.348-4.152-12.684-8.318-19.037-12.459c-5.456-3.558-10.958-7.037-16.382-10.642
		c-3.528-2.346-7.047-4.729-10.391-7.326c-3.217-2.495-5.22-5.829-5.75-9.976c-0.292-2.301,0.199-4.391,1.211-6.428
		c0.86-1.731,0.465-3.064-1.138-4.094c-3.104-2-6.205-4.002-9.327-5.975c-0.322-0.203-0.776-0.189-1.162-0.296
		c-0.512-0.144-1.095-0.192-1.513-0.478c-1.892-1.302-3.748-2.652-5.591-4.021c-0.649-0.479-1.299-0.655-2.097-0.475
		c-1.033,0.232-1.171,0.078-1.383-0.977c-0.187-0.936-0.001-1.806,0.451-2.598C150.905,182.465,152.21,180.284,153.332,178.377z"/>
	<path opacity="0.22" fill="#FFFFFF" enable-background="new    " d="M186.167,208.141c-3.18-11.478-10.354-16.047-12.724-17.276
		c-0.445-0.231-10.007-6.274-10.345-5.902l-2.108,3.521c-0.423,0.464,2.735,3.386,3.216,3.791
		c2.659,2.235,16.955,5.13,12.183,13.607c-6.778,12.039,34.166,32.205,45.782,41.231c0.226,0.174,11.507,7.303,13.609,8.506
		c0.19,0.107,1.661,1.039,1.866,0.967l4.158-1.932c0.98-0.262-15.793-8.43-16.697-8.891
		C216.415,241.338,190.323,223.137,186.167,208.141z"/>
</g>
</svg>
