<?xml version="1.0" encoding="utf-8"?>
<!-- Generator: Adobe Illustrator 15.1.0, SVG Export Plug-In . SVG Version: 6.00 Build 0)  -->
<!DOCTYPE svg PUBLIC "-//W3C//DTD SVG 1.1//EN" "http://www.w3.org/Graphics/SVG/1.1/DTD/svg11.dtd">
<svg version="1.1" id="Layer_1" xmlns="http://www.w3.org/2000/svg" xmlns:xlink="http://www.w3.org/1999/xlink" x="0px" y="0px"
	 width="422.977px" height="299.076px" viewBox="0 0 422.977 299.076" enable-background="new 0 0 422.977 299.076"
	 xml:space="preserve">
<g>
	<path fill="#013F61" d="M214.484,168.306c0,0,3.251-4.635,9.614-5.119l-2.214,4.221L214.484,168.306z"/>
	<path fill="#013F61" d="M235.445,172.388l2.074-2.904c1.038-2.215,0-2.354,0-2.354c-4.22-0.208-7.747,4.082-7.747,4.082v1.176
		v1.176c0,0,3.527,4.289,7.747,4.082c0,0,1.038-0.138,0-2.352L235.445,172.388z"/>
	<polygon fill="#013F61" points="215.521,177.61 221.779,181.553 221.194,178.269 	"/>
	<path fill="#013F61" d="M220.156,166.577c-5.998,0-11.321,3.943-11.321,6.227c0,1.868,5.323,6.227,11.321,6.227
		s10.86-4.635,10.86-6.227C231.018,170.589,226.154,166.577,220.156,166.577z M213.446,173.204c-0.794,0-1.438-0.645-1.438-1.438
		c0-0.795,0.646-1.438,1.438-1.438c0.795,0,1.438,0.644,1.438,1.438C214.885,172.56,214.241,173.204,213.446,173.204z"/>
</g>
</svg>
