<?xml version="1.0" encoding="utf-8"?>
<!-- Generator: Adobe Illustrator 15.1.0, SVG Export Plug-In . SVG Version: 6.00 Build 0)  -->
<!DOCTYPE svg PUBLIC "-//W3C//DTD SVG 1.1//EN" "http://www.w3.org/Graphics/SVG/1.1/DTD/svg11.dtd">
<svg version="1.1" id="Layer_1" xmlns="http://www.w3.org/2000/svg" xmlns:xlink="http://www.w3.org/1999/xlink" x="0px" y="0px"
	 width="422.977px" height="299.076px" viewBox="0 0 422.977 299.076" enable-background="new 0 0 422.977 299.076"
	 xml:space="preserve">
<path fill="#435E60" d="M162.629,248.192c0,0-2.74-6.53-0.98-8.608c1.758-2.075,7.656-2.412,9.527-3.471
	c2.467-1.395,3.015-4.786,2.076-4.991c-0.939-0.203-0.786,2.827-3.118,4.04c-1.999,1.038-7.882,1.924-8.788,3.717
	c0,0,1.666-4.563,2.797-5.499c0,0,1.175-0.217,1.739-0.48c0,0,2.428,2.316,3.481,1.528c1.053-0.787-2.363-2.204-2.363-2.204
	s4.07-1.695,5.748-5.128c1.676-3.434,0.788-5.204,0.212-5.142c-0.575,0.063-0.583,2.815-0.914,3.589c0,0-0.458-3.736-1.509-3.412
	c-1.053,0.321,1.312,3.977,0.695,5.289c-0.617,1.312-4.145,4.334-6.353,4.698c0,0,4.061-5.692,4.143-10.129
	c0,0,3.307-2.837,3.024-4.151s-3.037,2.992-3.037,2.992s-0.429-6.176-2.506-6.021c-2.077,0.154,2.729,4.906,1.114,8.886
	c0,0-1.751-1.17-2.353-2.495c0,0,1.351-2.603,0.734-3.202c-0.616-0.6-1.266,2.076-1.266,2.076s-0.593-1.182-0.72-2.334
	c-0.126-1.149,0.3-3.11-0.461-2.867c-0.228,0.07-2.514,3.019,2.273,8.409c0,0-1.34-0.614-2.871-0.521
	c-1.529,0.093-2.523,0.934-2.181,1.319c0.341,0.386,3.19-1.41,6.694,0.494c0,0-1.179,3.52-2.214,4.624c0,0-0.933-0.745-1.227-1.144
	c-0.474-0.638-1.137-2.511-1.834-2.063s0.428,2.784,2.719,3.776c0,0-2.392,3.1-3.633,6.565c-0.826,2.307-1.148,4.009-1.442,3.941
	c-0.294-0.069-1.242-2.823-2.466-3.908c0,0-0.009-0.426,0.762-1.32c0.92-1.067,4.136-3.493,3.661-4.625
	c-0.473-1.13-3.179,3.495-3.594,2.855c-0.415-0.643,1.981-4.177,0.661-4.907c-1.318-0.73-1.371,6.601-2.66,6.854
	c0,0-0.259-0.97-1.931-2.26c0,0,0.362-2.166,1.581-3.572c1.219-1.405,3.52-5.094,3.645-6.855c0.157-2.211-0.221-5.608-1.647-5.232
	c-1.426,0.375,0.675,3.495,0.152,5.44c0,0-1.45-0.027-2.414-1.13c-0.965-1.103-0.384-2.991-1.806-2.56
	c-0.823,0.252-0.39,1.631,0.268,2.535c0.479,0.655,1.158,0.942,1.158,0.942s-2.601,0.591-2.32,1.414
	c0.282,0.823,2.886-0.696,2.886-0.696s1.153,0.396,2.02,0.345c0,0-0.184,1.776-1.128,2.937c-0.944,1.158-2.715,3.496-3.151,5.9
	c0,0-1.036-0.837-1.696-1.23c0,0,0.796-1.295,1.182-2.506c0.416-1.3,0.15-2.327-0.513-2.259c-1.151,0.12-0.174,3.373-1.433,4.114
	c0,0-2.057-1.441-2.48-3.647c0,0,1.955-1.249,2.398-2.55c0.443-1.302,0.35-3.324-0.574-3.271c-0.923,0.059,0.367,3.195-2.248,5.005
	c0,0,0.92-5.881-0.306-6.037c-1.227-0.158-1.157,2.443-0.833,4.453c0,0-0.728-0.043-1.702-0.359
	c-0.975-0.316-0.897-1.423-1.697-1.229c-0.8,0.191-0.519,2.93,3.481,2.457c0,0,0.639,4.364,3.238,6.15
	c2.599,1.786,6.582,4.906,7.68,8.23c0,0-1.987-1.243-5.632-1.138c0,0-0.126-1.15-0.595-2.196c0,0,1.906-1.069,1.432-1.736
	c-0.476-0.668-1.856,0.952-1.856,0.952s-0.896-2.874-2.369-2.293c-1.472,0.582,2.139,2.797,2.401,5.245c0,0-1.741-0.039-2.645-0.624
	c-0.904-0.582-1.243-1.865-2.273-1.659c-1.032,0.207-1.049,3.279,5.097,3.345c6.147,0.066,6.584,1.083,7.019,2.04
	c0.436,0.961,0.075,1.241,0.075,1.241s-2.111-1.843-2.793-1.163c-0.682,0.679,3,2.659,3,2.659s-0.084,2.932-1.088,4.065
	L162.629,248.192z"/>
<path fill="#354F4E" d="M336.055,245.898c-5.937-4.09-2.631-3.024-7.393-10.351c-6.417-9.871-3.879-14.701-9.117-16.003
	c1.761-0.781,3.994-2.412,4.945-5.79c1.68-5.967-3.356-8.584-3.356-8.584s5.643,7.538-2.732,14.142
	c-0.166-0.026-0.332-0.052-0.499-0.07c1.646-1.277,4.232-3.704,4.232-6.316c0-1.885-1.936-5.15-3.887-8.378
	c2.193-2.555,4.813-5.735,4.813-8.35c0-4.501-3.487-7.641-3.487-7.641s2.583,5.023,1.42,6.802c-0.587,0.898-2.72,3.343-4.69,5.922
	c-1.189-2.074-2.06-3.904-2.05-5.028c0.062-8.782,3.205-18.648,3.205-18.648s-5.766,13.254-5.531,18.844
	c0.109,2.675,1.234,5.086,2.609,7.275c-1.127,1.675-1.94,3.212-1.94,4.195c0,2.656,3.915,8.741,3.685,11.262
	c-0.833,0.031-1.81-0.106-2.519,0.422c-9.492,7.075-13.795,3.517-16.516,4.487c-9.15,3.268-37.722,41.036-37.722,41.036l4.084-3.702
	c0,0,82.063-0.438,126.321-14.377C389.927,247.047,346.82,253.313,336.055,245.898z M315.305,208.651
	c0-0.442,0.48-1.158,1.205-2.056c1.96,2.704,3.743,5.032,3.46,7.079c-0.345,2.459-1.627,4.423-2.515,5.524
	c-0.211-0.017-0.421-0.022-0.632-0.026c0.977-0.996,2.447-2.986,1.452-5.187C316.856,210.85,315.305,210.432,315.305,208.651z
	 M307.743,212.252c2.206,7.833,9.669,8.521,9.669,8.521c-13.4-8.932-5.258-19.788-5.258-19.788S305.537,204.42,307.743,212.252z"/>
<path fill="#435E60" d="M328.707,252.313c0,0,10.139-32.602,11.624-36.033c1.481-3.434,4.203-5.149,4.945-5.436
	c0.741-0.287,2.968,1.718,3.708,1.718c0.742,0,9.153-15.731,11.625-18.306c2.474-2.574,8.162-5.147,14.592-2.572
	c6.432,2.574,7.667,5.721,12.615,3.432c4.946-2.287,8.655-3.432,12.861,2.573c4.205,6.008,15.83,36.608,15.83,36.608
	L328.707,252.313z"/>
<path fill="#435E60" d="M372.257,208.512c0,0-5.267-12.547-1.887-16.539c3.38-3.988,14.715-4.637,18.309-6.667
	c4.739-2.681,5.794-9.203,3.99-9.597c-1.806-0.394-1.511,5.438-5.991,7.767c-3.841,1.997-15.148,3.696-16.89,7.144
	c0,0,3.201-8.77,5.377-10.572c0,0,2.257-0.415,3.342-0.925c0,0,4.667,4.451,6.693,2.94c2.023-1.518-4.542-4.236-4.542-4.236
	s7.821-3.258,11.047-9.854c3.222-6.6,1.513-10.005,0.407-9.884c-1.107,0.125-1.122,5.415-1.759,6.902c0,0-0.878-7.188-2.898-6.563
	c-2.023,0.621,2.52,7.645,1.336,10.165c-1.188,2.522-7.964,8.331-12.21,9.03c0,0,7.805-10.938,7.962-19.468
	c0,0,6.354-5.448,5.813-7.979c-0.543-2.528-5.836,5.754-5.836,5.754s-0.823-11.867-4.817-11.573
	c-3.991,0.295,5.246,9.43,2.143,17.077c0,0-3.363-2.248-4.521-4.795c0,0,2.595-5.002,1.411-6.153
	c-1.185-1.154-2.435,3.987-2.435,3.987s-1.139-2.27-1.384-4.482c-0.243-2.212,0.578-5.98-0.888-5.516
	c-0.438,0.139-4.83,5.805,4.368,16.165c0,0-2.575-1.181-5.519-1.005c-2.939,0.177-4.849,1.794-4.19,2.535
	c0.657,0.741,6.13-2.707,12.864,0.952c0,0-2.266,6.764-4.255,8.889c0,0-1.792-1.437-2.356-2.197
	c-0.909-1.226-2.187-4.823-3.524-3.965c-1.338,0.86,0.823,5.354,5.228,7.26c0,0-4.599,5.955-6.984,12.615
	c-1.588,4.437-2.208,7.705-2.772,7.572c-0.566-0.134-2.389-5.426-4.739-7.512c0,0-0.018-0.818,1.463-2.538
	c1.771-2.055,7.948-6.713,7.038-8.887c-0.909-2.174-6.11,6.715-6.909,5.484c-0.798-1.233,3.808-8.028,1.271-9.434
	c-2.534-1.406-2.633,12.689-5.11,13.17c0,0-0.501-1.861-3.712-4.343c0,0,0.695-4.163,3.039-6.864c2.343-2.7,6.764-9.79,7.003-13.175
	c0.301-4.247-0.425-10.777-3.166-10.054c-2.741,0.721,1.296,6.715,0.294,10.45c0,0-2.787-0.055-4.64-2.171
	c-1.856-2.114-0.736-5.746-3.47-4.913c-1.584,0.48-0.75,3.131,0.514,4.867c0.92,1.267,2.227,1.813,2.227,1.813
	s-4.998,1.138-4.46,2.721c0.542,1.582,5.546-1.336,5.546-1.336s2.219,0.758,3.882,0.656c0,0-0.352,3.415-2.166,5.644
	c-1.815,2.227-5.221,6.719-6.057,11.334c0,0-1.989-1.604-3.262-2.363c0,0,1.53-2.486,2.273-4.816
	c0.797-2.496,0.287-4.472-0.983-4.338c-2.212,0.229-0.335,6.48-2.754,7.903c0,0-3.954-2.77-4.766-7.006c0,0,3.753-2.398,4.605-4.9
	c0.854-2.503,0.673-6.392-1.104-6.282c-1.774,0.106,0.706,6.139-4.32,9.614c0,0,1.771-11.299-0.586-11.604
	c-2.357-0.304-2.224,4.699-1.602,8.561c0,0-1.397-0.082-3.274-0.693c-1.873-0.609-1.724-2.734-3.261-2.365
	c-1.536,0.371-0.997,5.63,6.688,4.723c0,0,1.229,8.392,6.227,11.823c4.992,3.431,12.65,9.428,14.76,15.816
	c0,0-3.817-2.387-10.823-2.188c0,0-0.243-2.213-1.146-4.221c0,0,3.662-2.058,2.75-3.34c-0.911-1.281-3.565,1.83-3.565,1.83
	s-1.725-5.521-4.553-4.403c-2.83,1.118,4.107,5.376,4.613,10.081c0,0-3.346-0.078-5.083-1.2c-1.737-1.118-2.389-3.586-4.367-3.189
	c-1.98,0.396-2.017,6.303,9.798,6.427c11.813,0.126,12.653,2.08,13.489,3.922c0.836,1.845,0.146,2.388,0.146,2.388
	s-4.059-3.544-5.37-2.237c-1.314,1.304,5.765,5.109,5.765,5.109s-0.162,5.636-2.09,7.811L372.257,208.512z"/>
<path fill="#436059" d="M132.682,205.42c0,0-2.812,4.079-2.049,8.525c0.41,2.398,7.229,11.391,3.478,15.534
	c0,0,0.998-2.32,0.367-4.764c-0.632-2.442-5.217-7.694-5.225-11.77C129.243,208.872,132.682,205.42,132.682,205.42z"/>
<path fill="#436059" d="M141.691,219.577c0,0-2.812,4.077-2.049,8.524c0.41,2.398,7.23,11.39,3.479,15.533
	c0,0,0.998-2.319,0.366-4.764c-0.632-2.441-5.216-7.694-5.225-11.77C138.252,223.029,141.691,219.577,141.691,219.577z"/>
<path fill="#436059" d="M133.89,209.786c-0.75,1.316,0.639,6.202,0.958,9.396c0.319,3.195-2.363,8.401-0.981,10.342
	c0,0-1.381-1.502-0.761-4.824c0.619-3.32,1.314-4.441,0.865-5.954C131.889,211.734,133.89,209.786,133.89,209.786z"/>
<path fill="#436059" d="M138.221,211.476c0.75,1.317-0.639,6.202-0.959,9.397c-0.319,3.195,2.363,8.402,0.981,10.341
	c0,0,1.381-1.501,0.762-4.822c-0.62-3.322-1.314-4.441-0.865-5.954C140.222,213.422,138.221,211.476,138.221,211.476z"/>
<path fill="#436059" d="M131.572,220.638c1.13,1.189-0.422,8.083,1.961,8.828c0,0-2.13,0.132-2.449-2.688
	C130.765,223.96,131.572,220.638,131.572,220.638z"/>
<path fill="#436059" d="M276.273,246.387c0,0-78.099,1.011-92.235-8.724c-7.796-5.368-35.32-11.295-54.768-9.008
	c-9.441,1.111-30.654,10.313-36.608,9.15c-5.956-1.161-21.922-4.194-21.922-4.194l-2.555,10.753c0,0,44.519,16.598,93.688,19.184
	C204.083,265.766,249.43,254.841,276.273,246.387z"/>
<path fill="#506E61" d="M422.971,221.345c-84.081-4.678-183.509,37.512-327.353,49.562l327.353,2.127V221.345z"/>
<g>
	<path fill="#435E60" d="M32.403,145.807c0,0-9.805,9.786-9.501,17.127c0.411,9.879,11.342,17.04,10.563,22.62
		c-0.707,5.067-4.456,8.542-4.456,8.542s7.296-4.506,7.296-9.528c0-5.023-10.454-17.511-10.349-21.891
		C26.125,155.594,32.403,145.807,32.403,145.807z"/>
	<path fill="#435E60" d="M32.94,152.572c0,0,3.394,6.595,1.865,8.931c-1.526,2.337-11.026,12.644-11.026,16.491
		c0,3.85,6.276,13.194,4.58,15.666c0,0,4.751-3.573,2.883-7.696c-1.865-4.12-3.901-4.672-3.901-7.008s10.179-10.443,10.179-16.353
		C37.521,156.692,32.94,152.572,32.94,152.572z"/>
	<path fill="#435E60" d="M34.99,174.387c0,0,8.143,10.855-5.259,19.787c0,0,7.465-0.687,9.67-8.52
		C41.606,177.822,34.99,174.387,34.99,174.387z"/>
</g>
<path fill="#435E60" d="M46.712,213.561c-3.718-1.145-5.148-12.582-7.721-16.3c-2.575-3.72-10.583-5.149-16.302-3.719
	C19.201,194.414,3.104,238.624,0,240.664l11.441,14.656l57.294-13.156c0,0-6.577-23.453-9.151-27.457
	C57.008,210.703,50.431,214.705,46.712,213.561z"/>
<path fill="#80896E" d="M84.179,244.163c-39.91-3.828-49.764-2.002-84.179,6.067v30.256h280.373v-13.729
	C243.765,274.191,125.935,248.167,84.179,244.163z"/>
<path fill="#506E61" d="M35.933,240.218c-4.505,0-12.807-15.565-21.347-20.572C7.799,215.665,0,222.005,0,222.005v44.178
	l68.734-3.719c0,0-0.231-7.026-4.388-18.735C60.188,232.022,44.017,240.218,35.933,240.218z"/>
<path fill="#9B9779" d="M0,299.074h1.222h421.749v-40.2c-3.925-0.328-8.154-0.573-12.757-0.697
	c-42.328-1.144-70.927-1.716-127.554,8.008c-56.628,9.725-178.813-5.918-220.791-7.437C26.264,257.462,11.662,254.46,0,259.152
	V299.074z"/>
<path fill="#938E73" d="M135.085,280.772c-23.141-2.003-39.519-10.237-36.631-18.643c-3.78-0.463-7.493-0.904-11.112-1.309
	c-7.329,6.061-9.614,14.644-1.448,17.949c12.011,4.859,47.189,5.433,50.908,13.441c1.249,2.69,0.363,4.99-1.357,6.862h24.875
	C158.604,291.75,152.897,282.313,135.085,280.772z"/>
<path fill="#938E73" d="M323.344,275.266c19.519-2.574,11.78-10.888,12.44-16.087c-0.028-0.006-0.058-0.008-0.085-0.013
	c-5.308,0.441-10.827,0.997-16.634,1.678c4.065,8.446-15.44,17.893-40.624,18.785c-22.332,0.79-28.003,12.366-29.375,19.447h26.863
	C272.857,291.905,303.722,277.853,323.344,275.266z"/>
<g>
	<path fill="#D87451" d="M63.306,246.739c0,0,6.699-11.846,3.81-16.204c-2.89-4.356-14.07-6.327-17.403-8.768
		c-4.393-3.217-4.676-9.818-2.837-9.996c1.838-0.179,0.862,5.576,5.042,8.413c3.58,2.434,14.61,5.444,15.937,9.07
		c0,0-2.155-9.081-4.104-11.125c0,0-2.194-0.678-3.211-1.312c0,0-5.156,3.875-6.99,2.135c-1.834-1.739,5.007-3.677,5.007-3.677
		s-7.388-4.149-9.817-11.076c-2.427-6.932-0.333-10.112,0.753-9.862c1.084,0.253,0.479,5.509,0.937,7.06c0,0,1.714-7.033,3.649-6.18
		c1.937,0.855-3.397,7.296-2.517,9.94c0.882,2.643,6.933,9.207,11.069,10.4c0,0-6.472-11.778-5.627-20.268
		c0,0-5.673-6.156-4.838-8.604c0.835-2.448,5.121,6.396,5.121,6.396s2.21-11.689,6.14-10.928c3.929,0.762-6.314,8.75-4.126,16.709
		c0,0,3.605-1.838,5.05-4.231c0,0-1.991-5.272-0.682-6.278c1.313-1.008,1.95,4.247,1.95,4.247s1.397-2.121,1.897-4.291
		c0.501-2.169,0.128-6.006,1.528-5.374c0.418,0.19,4.117,6.33-6.232,15.543c0,0,2.697-0.872,5.597-0.353
		c2.9,0.519,4.605,2.353,3.865,3.01c-0.739,0.656-5.771-3.408-12.888-0.563c0,0,1.459,6.981,3.185,9.323
		c0,0,1.949-1.214,2.599-1.903c1.046-1.111,2.733-4.537,3.966-3.525c1.229,1.013-1.444,5.218-6.041,6.598
		c0,0,3.868,6.453,5.457,13.346c1.058,4.592,1.292,7.91,1.867,7.847c0.577-0.065,3.007-5.109,5.587-6.903
		c0,0,0.114-0.813-1.155-2.693c-1.517-2.245-7.107-7.596-5.948-9.649c1.158-2.053,5.282,7.386,6.22,6.253
		c0.937-1.131-2.841-8.414-0.158-9.516c2.683-1.1,1.13,12.908,3.535,13.68c0,0,0.714-1.79,4.196-3.878c0,0-0.205-4.216-2.215-7.175
		c-2.011-2.957-5.571-10.515-5.412-13.903c0.199-4.256,1.684-10.655,4.321-9.614c2.638,1.037-2.073,6.517-1.516,10.345
		c0,0,2.774,0.271,4.863-1.612c2.089-1.885,1.403-5.622,4.021-4.476c1.516,0.665,0.378,3.197-1.081,4.775
		c-1.062,1.147-2.423,1.542-2.423,1.542s4.831,1.715,4.108,3.225c-0.722,1.508-5.349-1.979-5.349-1.979s-2.292,0.494-3.934,0.199
		c0,0-0.051,3.435,1.493,5.858c1.541,2.425,4.396,7.282,4.685,11.966c0,0,2.166-1.36,3.516-1.967c0,0-1.227-2.648-1.69-5.049
		c-0.5-2.572,0.238-4.475,1.486-4.193c2.169,0.485-0.427,6.476,1.809,8.175c0,0,4.25-2.287,5.553-6.401c0,0-3.447-2.821-4-5.403
		c-0.555-2.584,0.08-6.426,1.832-6.111c1.748,0.316-1.42,6.016,3.164,10.058c0,0-0.435-11.43,1.94-11.454
		c2.378-0.025,1.658,4.928,0.589,8.688c0,0,1.397,0.081,3.332-0.306c1.931-0.389,2.03-2.516,3.514-1.968
		c1.483,0.547,0.333,5.706-7.194,3.904c0,0-2.202,8.19-7.566,11.011c-5.363,2.823-13.667,7.882-16.512,13.98
		c0,0,4.074-1.923,11.004-0.905c0,0,0.501-2.168,1.631-4.058c0,0-3.396-2.471-2.34-3.639c1.058-1.165,3.328,2.233,3.328,2.233
		s2.358-5.28,5.037-3.84s-4.712,4.858-5.765,9.472c0,0,3.332,0.313,5.19-0.597c1.857-0.909,2.791-3.281,4.711-2.655
		c1.922,0.627,1.266,6.495-10.483,5.236c-11.746-1.263-12.811,0.582-13.855,2.314c-1.045,1.731-0.421,2.354-0.421,2.354
		s4.443-3.044,5.595-1.596c1.15,1.449-6.323,4.4-6.323,4.4s-0.5,5.614,1.162,8.003L63.306,246.739z"/>
	<g>
		<path fill="#B85951" d="M69.294,212.721c1.656,1.788,4.005,6.512,4.748,5.913C72.636,216.898,70.415,212.642,69.294,212.721z"/>
		<path fill="#B85951" d="M78.215,223.716c0,0,0.062-0.148,0.224-0.402c-1.229-3.396-1.183-14.425-3.45-13.57
			C76.191,212.476,76.232,223.08,78.215,223.716z"/>
		<path fill="#B85951" d="M69.386,231.591c0.105-0.015,0.273-0.191,0.49-0.483c-0.308-1.343-0.646-3.756-1.325-6.694
			c-1.587-6.893-5.457-13.346-5.457-13.346c4.596-1.38,7.271-5.587,6.041-6.598c-0.236-0.193-0.49-0.223-0.751-0.139
			c0.235,1.508-2.311,4.864-6.322,6.068c0,0,3.867,6.453,5.457,13.347C68.576,228.337,68.809,231.656,69.386,231.591z"/>
		<path fill="#B85951" d="M84.642,197.224c-1.062,1.146-2.424,1.542-2.424,1.542s0.374,0.464,1.115,0.805
			c0.46-0.185,1.588-0.863,2.343-1.68c1.459-1.578,2.596-4.11,1.081-4.776c-0.173-0.074-0.33-0.127-0.476-0.162
			C86.829,193.969,85.847,195.924,84.642,197.224z"/>
		<path fill="#B85951" d="M87.362,202.656c0.364-0.761-0.678-1.569-1.804-2.188c0.622,0.479,1.014,1.011,0.771,1.52
			c-0.427,0.894-2.222,0.034-3.618-0.813C84.031,202.078,86.816,203.799,87.362,202.656z"/>
		<path fill="#B85951" d="M84.336,218.58c-0.642-4.288-3.356-9.632-4.763-11.845c-1.543-2.424-1.492-5.859-1.492-5.859
			c1.49,0.27,3.509-0.112,3.87-0.187c-0.573-0.383-0.972-0.681-0.972-0.681s-2.291,0.492-3.932,0.199c0,0-0.051,3.434,1.491,5.857
			s4.567,8.357,4.857,13.039C83.394,219.109,83.808,218.896,84.336,218.58z"/>
		<path fill="#B85951" d="M95.92,208.256c0,0-0.006-0.172-0.014-0.475c-2.983-3.896-1.556-9.745-3.146-10.032
			c-0.174-0.029-0.333-0.01-0.485,0.035C92.56,199.479,92.198,204.975,95.92,208.256z"/>
		<path fill="#B85951" d="M87.569,207.491c-0.111-0.023-0.217-0.025-0.318-0.02c0.724,1.694-0.201,6.993,1.668,8.415
			c0,0,0.142-0.078,0.379-0.228C88.332,213.35,89.449,207.913,87.569,207.491z"/>
		<path fill="#B85951" d="M50.526,204.49c0.735,2.198,5.046,7.104,8.857,9.379c-3.521-2.463-7.154-6.71-7.823-8.713
			c-0.881-2.645,4.454-9.083,2.518-9.94c-0.212-0.093-0.419-0.078-0.622-0.002C53.608,197.132,49.769,202.213,50.526,204.49z"/>
		<path fill="#B85951" d="M97.348,205.105c0,0,0.469,0.022,1.223-0.024c0.937-3.573,1.501-8.563-0.576-8.715
			C98.86,197.846,98.176,202.194,97.348,205.105z"/>
		<path fill="#B85951" d="M57.507,214.613c0.008-0.002,0.016-0.004,0.016-0.004s-0.081-0.047-0.196-0.115
			C57.391,214.54,57.445,214.574,57.507,214.613z"/>
		<path fill="#B85951" d="M60.539,216.818c0.655,0.41,2.814,1.23,3.544,1.481c-0.117-0.17-0.193-0.775-0.31-0.898
			c0,0-3.25-0.614-4.268-1.249c0,0-3.944,2.963-6.161,2.543c0.05,0.086,0.114,0.174,0.205,0.26
			C55.383,220.693,60.539,216.818,60.539,216.818z"/>
		<path fill="#B85951" d="M65.723,192.668c-0.306-1.361-1.266-4.829-2.009-4.339c0.583,1.255,1.292,5.072,1.292,5.072
			S65.339,193.402,65.723,192.668z"/>
		<path fill="#B85951" d="M96.822,227.675c-0.131-0.044-0.258-0.068-0.381-0.085c0.833,1.622-1.12,5.729-11.134,4.652
			c-11.748-1.26-12.81,0.583-13.856,2.315c-1.046,1.731-0.422,2.353-0.422,2.353s0.386-0.263,0.95-0.593
			c0.089-0.302,0.246-0.663,0.504-1.093c1.045-1.732,2.109-3.576,13.855-2.315C98.088,234.172,98.745,228.302,96.822,227.675z"/>
		<path fill="#B85951" d="M76.741,235.597c0.155,1.517-6.44,4.121-6.44,4.121s-0.498,5.613,1.164,8.001l-7.917-1.42
			c-0.15,0.278-0.24,0.438-0.24,0.438l9.191,1.647c-1.661-2.388-1.162-8.001-1.162-8.001s7.475-2.951,6.323-4.4
			C77.448,235.718,77.125,235.607,76.741,235.597z"/>
		<path fill="#B85951" d="M92.688,221.455c-0.177-0.099-0.354-0.158-0.527-0.197c0.811,1.64-5.319,4.831-6.271,9
			c0,0,0.499,0.048,1.217,0.052C88.625,226.011,95.246,222.832,92.688,221.455z"/>
		<path fill="#B85951" d="M105.301,202.768c-0.208-0.076-0.383-0.098-0.546-0.082c0.447,1.456-1.371,4.83-7.683,3.32
			c0,0-2.201,8.189-7.565,11.009c-5.36,2.824-13.667,7.883-16.511,13.98c0,0,0.587-0.274,1.692-0.563
			c3.308-5.545,10.856-10.118,15.853-12.748c5.363-2.821,7.566-11.011,7.566-11.011
			C105.633,208.474,106.784,203.313,105.301,202.768z"/>
		<path fill="#B85951" d="M85.136,222.871c0.793,0.73,1.48,1.759,1.48,1.759s0.074-0.162,0.202-0.412
			C86.326,223.646,85.696,223.037,85.136,222.871z"/>
		<path fill="#B85951" d="M49.565,221.646c0.051,0.039,0.095,0.084,0.147,0.121c2.582,1.891,9.873,3.499,14.37,6.152
			C60.154,225.134,52.938,223.463,49.565,221.646z"/>
		<path fill="#B85951" d="M50.882,219.518c0.238,0.162,0.512,0.327,0.812,0.494c-3.907-2.89-3.015-8.416-4.819-8.24
			c-0.044,0.004-0.082,0.028-0.124,0.041C47.5,213.405,47.656,217.325,50.882,219.518z"/>
		<path fill="#B85951" d="M63.095,197.304c0,0-1.428,1.171-0.113,1.023c10.2-9.123,6.462-15.209,6.061-15.393
			c-0.238-0.106-0.42-0.077-0.569,0.043C69.318,184.856,71.514,189.807,63.095,197.304z"/>
		<path fill="#B85951" d="M71.242,200.469c-0.741,0.657-5.771-3.407-12.888-0.563c0,0,1.734,7.728,3.461,10.072
			c0,0,0.366-0.018,0.635-0.19c-1.463-2.878-3.063-9.213-3.063-9.213c7.118-2.848,12.149,1.219,12.888,0.563
			c0.525-0.469-0.187-1.524-1.678-2.286C71.348,199.476,71.623,200.128,71.242,200.469z"/>
		<path fill="#B85951" d="M58.38,199.233c0,0,0.324-0.165,0.813-0.459c-1.023-7.57,7.977-15.897,4.231-16.62
			c-0.056-0.011-0.11-0.011-0.165-0.017C63.861,184.33,56.477,192.31,58.38,199.233z"/>
		<path fill="#B85951" d="M49.396,200.729c0,0,0.446,1.949,0.95,0.556c-0.029-1.794,0.333-6.618-0.853-6.946
			c-0.161-0.046-0.349,0.013-0.541,0.132C49.327,196.049,49.039,199.517,49.396,200.729z"/>
		<path fill="#B85951" d="M56.961,193.564c0,0,0.272,0.089,0.406-0.502c-1.094-2.059-3.895-6.927-4.812-6.795
			C54.106,187.99,56.961,193.564,56.961,193.564z"/>
		<path fill="#B85951" d="M76.897,199.09c0,0,0.392,0.038,0.991-0.015c0.009-3.768,3.988-9.238,1.501-10.217
			c-0.126-0.049-0.246-0.065-0.366-0.084C79.901,190.568,76.409,195.739,76.897,199.09z"/>
	</g>
</g>
<path fill="#938E73" d="M307.94,299.074h26.301c-0.774-1.613-2.081-6.534,6.121-12.943c10.083-7.882,10.942-10.778,7.079-15.604
	c-3.432-4.286-11.759-7.941,2.238-12.313c-2.04,0.106-4.101,0.229-6.188,0.365c-7.642,2.067-16.006,4.79-16.006,6.803
	c0,3.698,20.597,1.769,16.307,7.881C339.569,279.28,312.066,287.018,307.94,299.074z"/>
<path fill="#A8A483" d="M400.397,299.074c-1.419-2.509-5.455-7.822-15.83-12.49c-14.163-6.367-23.996-11.385-24.677-15.92
	c-0.939-6.234,2.885-9.914,10.465-13.074c-1.793,0.018-3.588,0.044-5.388,0.079c-5.448,2.501-12.587,6.616-12.587,11.024
	c0,7.126,14.591,15.77,14.806,23.048c0.102,3.454-1.15,5.806-2.494,7.333H400.397L400.397,299.074z"/>
<path fill="#A8A483" d="M23.532,275.841c-4.978-6.151,15.726-6.268,15.296-10.268c-0.243-2.248-9.458-4.359-17.49-5.781
	c-3.789,0.486-7.107,1.091-10.092,1.795c19.174,0.151,13.408,7.418,7.439,9.174c-4.861,1.431-0.858,10.296,9.757,18.624
	c4.954,3.889,6.85,7.239,7.48,9.689h24.809C52.876,288.003,28.093,281.476,23.532,275.841z"/>
<g>
	<path fill="#898C6D" d="M23.7,261.25c0,0,5.149-12.661,11.373-12.019c6.222,0.646,6.437,3.435,9.441,3.435
		c3.003,0,9.656-9.441,15.02-9.441c5.364,0,33.506,14.591,29.61,18.666C85.249,265.968,23.903,265.112,23.7,261.25z"/>
</g>
<path fill="#228643" d="M28.663,176.121c0,0-8.831,14.785-4.412,27.483c4.014,11.53,9.331,27.482,7.804,35.286
	c-1.526,7.805-8.821,14.591-8.312,20.358c0,0,5.885-10.075,9.956-14.656c4.071-4.58,2.767-12.657,1.241-20.801
	C33.413,215.651,18.823,196.309,28.663,176.121z"/>
<g>
	<path fill="#898C6D" d="M347.21,262.733c0,0,7.234-20.286,16.251-23.945c4.808-1.95,9.454,1.087,17.725,1.333
		c8.269,0.244,20.127-4.855,25.608,0.96c5.481,5.814,9.737,18.86,9.737,18.86S381.791,267.391,347.21,262.733z"/>
	<path fill="#A8A483" d="M351.586,257.749c0.411,2.223,8.15-13.014,14.299-14.157c6.148-1.146,14.443-0.143,14.871-1.573
		c0.432-1.432-11.296-3.575-16.302-1.001C359.449,243.592,350.871,253.888,351.586,257.749z"/>
	<path fill="#A8A483" d="M404.781,241.018c0.979,1.042-5.721,2.858-11.727,2.433c-6.006-0.432-9.152,1.429-8.724-0.573
		c0.43-2.001,6.437-3.146,9.726-3.146C397.345,239.731,402.493,238.588,404.781,241.018z"/>
</g>
<path fill="#558B2F" d="M18.922,208.837c0,0-3.394,8.143-1.865,11.029c1.526,2.884,11.027,15.608,11.027,20.357
	c0,4.75-6.277,16.285-4.581,19.339c0,0-4.751-4.41-2.883-9.5c1.866-5.089,3.902-5.768,3.902-8.653
	c0-2.883-10.18-12.892-10.18-20.188C14.342,213.927,18.922,208.837,18.922,208.837z"/>
<path fill="#228643" d="M15.585,235.239c0,0-8.143,13.403,5.259,24.429c0,0-7.463-0.849-9.669-10.519S15.585,235.239,15.585,235.239
	z"/>
<path fill="#228643" d="M394.843,186.813c0,0-8.883,12.885-6.479,26.936c1.297,7.573,22.836,35.979,10.987,49.068
	c0,0,3.151-7.33,1.157-15.046c-1.996-7.718-16.479-24.316-16.505-37.182C383.978,197.724,394.843,186.813,394.843,186.813z"/>
<path fill="#43A047" d="M398.653,200.609c-2.365,4.16,2.021,19.591,3.028,29.686c1.01,10.093-7.468,26.542-3.101,32.668
	c0,0-4.365-4.742-2.406-15.238c1.958-10.494,4.151-14.033,2.733-18.812C392.33,206.758,398.653,200.609,398.653,200.609z"/>
<path fill="#22775E" d="M401.548,262.364c0,0,10.085-5.762,9.072-15.855c-1.01-10.093-8.758-23.539-4.815-31.86
	c0,0-5.527,7.335-3.136,15.645C405.063,238.603,409.448,253.243,401.548,262.364z"/>
<path fill="#558B2F" d="M391.333,234.89c3.567,3.755-1.336,25.54,6.191,27.899c0,0-6.729,0.407-7.735-8.497
	C388.779,245.389,391.333,234.89,391.333,234.89z"/>
<ellipse fill="#B5AB67" cx="106.484" cy="292.639" rx="2.717" ry="1.019"/>
<ellipse fill="#B5AB67" cx="100.05" cy="290.495" rx="1.859" ry="0.697"/>
<ellipse fill="#B5AB67" cx="97.262" cy="287.276" rx="1.859" ry="0.697"/>
<ellipse fill="#B5AB67" cx="116.137" cy="272.906" rx="1.43" ry="0.536"/>
<ellipse fill="#B5AB67" cx="121.5" cy="296.5" rx="1.43" ry="0.537"/>
<ellipse fill="#B5AB67" cx="122.358" cy="287.599" rx="1.431" ry="0.535"/>
<ellipse fill="#B5AB67" cx="119.496" cy="275.766" rx="2.717" ry="1.019"/>
<ellipse fill="#B5AB67" cx="111.204" cy="267.491" rx="2.718" ry="1.019"/>
<ellipse fill="#B5AB67" cx="71.307" cy="273.907" rx="2.002" ry="0.75"/>
<ellipse fill="#B5AB67" cx="104.339" cy="289.566" rx="2.003" ry="0.75"/>
<ellipse fill="#A8A483" cx="222.506" cy="280.257" rx="2.718" ry="1.02"/>
<ellipse fill="#A8A483" cx="174.744" cy="286.264" rx="2.717" ry="1.019"/>
<ellipse fill="#A8A483" cx="245.958" cy="291.287" rx="2.718" ry="1.021"/>
<ellipse fill="#B5AB67" cx="151.578" cy="277.148" rx="1.86" ry="0.696"/>
<ellipse fill="#A8A483" cx="230.514" cy="273.841" rx="1.858" ry="0.697"/>
<ellipse fill="#B5AB67" cx="229.868" cy="276.576" rx="2.003" ry="0.752"/>
<ellipse fill="#B5AB67" cx="224.221" cy="272.25" rx="2.718" ry="1.02"/>
<ellipse fill="#B5AB67" cx="229.513" cy="283.28" rx="1.857" ry="0.698"/>
<ellipse fill="#A8A483" cx="236.519" cy="287.73" rx="1.859" ry="0.697"/>
<ellipse fill="#A8A483" cx="179.606" cy="283.28" rx="1.861" ry="0.698"/>
<ellipse fill="#B5AB67" cx="232.803" cy="284.996" rx="2.003" ry="0.75"/>
<ellipse fill="#B5AB67" cx="35.415" cy="280.199" rx="1.86" ry="0.697"/>
<ellipse fill="#C0941A" cx="16.109" cy="288.994" rx="1.86" ry="0.698"/>
<ellipse fill="#A8A483" cx="21.544" cy="265.828" rx="1.859" ry="0.698"/>
<g>
	<ellipse fill="#BCAAA4" cx="67.016" cy="277.626" rx="4.576" ry="1.715"/>
	<ellipse fill="#BCAAA4" cx="290.236" cy="291.354" rx="4.578" ry="1.716"/>
	<ellipse fill="#BCAAA4" cx="102.052" cy="295.93" rx="4.576" ry="1.717"/>
	<ellipse fill="#BCAAA4" cx="219.933" cy="269.551" rx="1.431" ry="0.537"/>
	<ellipse fill="#BCAAA4" cx="128.078" cy="277.517" rx="1.431" ry="0.537"/>
	<ellipse fill="#BCAAA4" cx="298.82" cy="297.359" rx="2.002" ry="0.75"/>
	<ellipse fill="#BCAAA4" cx="74.524" cy="280.628" rx="2.503" ry="0.939"/>
	<ellipse fill="#BCAAA4" cx="284.662" cy="296.849" rx="2.503" ry="0.939"/>
	<ellipse fill="#BCAAA4" cx="42.922" cy="267.758" rx="2.503" ry="0.939"/>
	<ellipse fill="#BCAAA4" cx="48.143" cy="266.041" rx="1.859" ry="0.697"/>
	<ellipse fill="#BCAAA4" cx="64.159" cy="286.849" rx="1.86" ry="0.697"/>
</g>
<ellipse fill="#C0941A" cx="23.188" cy="290.351" rx="3.361" ry="1.261"/>
<ellipse fill="#B5AB67" cx="27.764" cy="293.639" rx="2.235" ry="0.839"/>
<g>
	<g>
		<ellipse fill="#BCAAA4" cx="379.325" cy="278.484" rx="4.576" ry="1.715"/>
		<ellipse fill="#BCAAA4" cx="338.183" cy="294.355" rx="2.963" ry="1.112"/>
		<ellipse fill="#BCAAA4" cx="397.813" cy="293.499" rx="2.964" ry="1.111"/>
		<ellipse fill="#BCAAA4" cx="414.505" cy="262.61" rx="2.003" ry="0.75"/>
	</g>
	<ellipse fill="#BCAAA4" cx="347.438" cy="265.613" rx="1.859" ry="0.697"/>
	<ellipse fill="#BCAAA4" cx="316.265" cy="262.877" rx="1.858" ry="0.699"/>
	<ellipse fill="#BCAAA4" cx="371.177" cy="276.357" rx="2.233" ry="0.839"/>
</g>
<g>
	<path fill="#938E73" d="M325.992,286.991c0,0,2.783,1.002,6.521,0.716c3.735-0.286,10.329,3.789,11.431,5.005
		c1.1,1.216,3.517,2.718,7.032,2.145c3.519-0.569-1.023-7.506,2.344-7.937c3.37-0.429,9.158,3.361,15.68,0.788
		c6.523-2.574-13.262-8.224-10.478-10.154s7.254-2.359,8.206-4.361c0.953-2.002-4.835-3.504-7.913-3.359
		C355.738,269.975,323.867,286.062,325.992,286.991z"/>
	<g>
		<path fill="#C4846F" d="M342.561,272.259c3.742-0.195,12.271-4.979,16.778-3.137c4.506,1.843-5.419,6.873-4.572,8.136
			c0.846,1.264,11.532,7.671,9.136,9.964c-2.394,2.295-11.029-3.113-13.515-1.81c-2.487,1.307,1.599,8.883-2.523,9.133
			c-4.729,0.287-4.937-8.937-9.565-9.614c-4.627-0.684-13.156,4.102-12.637,1.021c0.521-3.076,9.821-7.777,9.963-9.136
			c0.143-1.357-6.25-5.744-4.038-6.297C333.796,269.97,342.561,272.259,342.561,272.259z"/>
		<g>
			<g>
				<path fill="#BA5A52" d="M353.62,275.973c0.139,0.206,0.545,0.552,1.107,0.993c0.414-1.605,8.771-6.095,4.64-7.826
					C359.4,271.407,352.931,274.94,353.62,275.973z"/>
				<path fill="#BA5A52" d="M334.066,274.622c-0.558-0.744-1.573-1.708-2.458-2.616
					C332.194,272.778,333.205,273.737,334.066,274.622z"/>
				<path fill="#BA5A52" d="M362.393,283.503c0.727,0.979,0.979,1.842,0.364,2.434c-2.396,2.294-11.03-3.112-13.516-1.81
					c-2.486,1.306,1.6,8.885-2.523,9.133c-0.916,0.058-1.661-0.248-2.304-0.774c0.882,1.268,1.933,2.154,3.445,2.064
					c4.123-0.25,0.037-7.827,2.524-9.133c2.485-1.307,11.121,4.104,13.515,1.809C364.777,286.383,363.897,284.99,362.393,283.503z"
					/>
				<path fill="#BA5A52" d="M337.153,283.643c-3.424-0.505-8.982,1.981-11.431,2.063c-0.025,0.085-0.051,0.169-0.063,0.249
					c-0.52,3.078,8.01-1.704,12.637-1.023c0.729,0.107,1.348,0.429,1.895,0.889C339.393,284.688,338.445,283.834,337.153,283.643z"
					/>
			</g>
			
				<ellipse transform="matrix(-0.9152 0.4029 -0.4029 -0.9152 762.5804 396.0938)" fill="#BA5A52" cx="339.627" cy="278.258" rx="2.343" ry="1.04"/>
			
				<ellipse transform="matrix(-0.9371 -0.3491 0.3491 -0.9371 564.3942 651.9987)" fill="#BA5A52" cx="340.955" cy="275.137" rx="2.341" ry="1.039"/>
			
				<ellipse transform="matrix(-0.9656 -0.2601 0.2601 -0.9656 608.6075 636.757)" fill="#BA5A52" cx="346.428" cy="278.117" rx="2.341" ry="1.039"/>
			
				<ellipse transform="matrix(-0.9657 -0.2598 0.2598 -0.9657 618.0085 641.1187)" fill="#BA5A52" cx="351.372" cy="279.719" rx="2.066" ry="0.917"/>
			
				<ellipse transform="matrix(-0.9121 -0.4099 0.4099 -0.9121 564.5585 683.9756)" fill="#BA5A52" cx="355.589" cy="281.478" rx="1.544" ry="0.685"/>
			
				<ellipse transform="matrix(-0.9119 -0.4105 0.4105 -0.9119 570.3268 689.1909)" fill="#BA5A52" cx="359.149" cy="283.37" rx="1.542" ry="0.685"/>
			<path fill="#BA5A52" d="M344.68,282.385c-0.633,0.383-1.679-0.186-2.33-1.268c-0.65-1.078-0.668-2.268-0.03-2.651
				c0.636-0.382,1.682,0.186,2.328,1.269C345.302,280.813,345.315,282,344.68,282.385z"/>
			
				<ellipse transform="matrix(-0.3089 -0.9511 0.9511 -0.3089 180.4585 700.5012)" fill="#BA5A52" cx="344.733" cy="284.687" rx="1.762" ry="1.232"/>
			<path fill="#BA5A52" d="M346.166,289.604c-0.493,0.16-1.082-0.282-1.312-0.989c-0.23-0.707-0.018-1.411,0.479-1.572
				c0.493-0.158,1.082,0.283,1.31,0.99C346.874,288.738,346.659,289.442,346.166,289.604z"/>
			
				<ellipse transform="matrix(-0.3086 -0.9512 0.9512 -0.3086 176.3422 710.7278)" fill="#BA5A52" cx="346.463" cy="291.278" rx="0.987" ry="0.69"/>
			
				<ellipse transform="matrix(-0.9372 -0.3487 0.3487 -0.9372 557.0356 647.0695)" fill="#BA5A52" cx="336.762" cy="273.395" rx="1.42" ry="0.631"/>
			
				<ellipse transform="matrix(-0.9367 -0.3502 0.3502 -0.9367 550.6154 642.8217)" fill="#BA5A52" cx="333.434" cy="271.622" rx="1.152" ry="0.51"/>
			
				<ellipse transform="matrix(-0.9151 0.4031 -0.4031 -0.9151 754.1732 401.9532)" fill="#BA5A52" cx="334.782" cy="280.352" rx="1.251" ry="0.556"/>
			
				<ellipse transform="matrix(-0.9152 0.403 -0.403 -0.9152 748.8444 406.3533)" fill="#BA5A52" cx="331.671" cy="281.96" rx="1.252" ry="0.556"/>
			
				<ellipse transform="matrix(-0.915 0.4035 -0.4035 -0.915 744.2972 410.3014)" fill="#BA5A52" cx="328.921" cy="283.567" rx="0.914" ry="0.405"/>
			
				<ellipse transform="matrix(-0.9151 0.4032 -0.4032 -0.9151 773.2107 387.1494)" fill="#BA5A52" cx="345.852" cy="274.967" rx="2.429" ry="1.079"/>
			
				<ellipse transform="matrix(-0.9153 0.4027 -0.4027 -0.9153 779.96 381.5212)" fill="#BA5A52" cx="349.874" cy="272.752" rx="1.683" ry="0.748"/>
			
				<ellipse transform="matrix(-0.9155 0.4023 -0.4023 -0.9155 785.3274 377.565)" fill="#BA5A52" cx="353.011" cy="271.259" rx="1.097" ry="0.661"/>
			
				<ellipse transform="matrix(-0.9716 0.2367 -0.2367 -0.9716 766.0757 448.3386)" fill="#BA5A52" cx="356.13" cy="270.147" rx="1.096" ry="0.66"/>
		</g>
	</g>
</g>
<g>
	<path fill="#938E73" d="M37.896,286.063c0,0-1.997,1.166-4.907,1.478s-7.395,4.382-8.066,5.471
		c-0.67,1.093-2.315,2.588-5.097,2.649c-2.783,0.062-0.28-5.912-2.93-5.762c-2.65,0.15-6.557,3.885-11.929,2.836
		c-5.376-1.05,9.015-8.203,6.601-9.29c-2.412-1.086-5.908-0.776-6.923-2.181c-1.017-1.401,3.215-3.38,5.6-3.708
		C12.626,277.229,39.395,285.048,37.896,286.063z"/>
	<g>
		<path fill="#FFAB91" d="M23.071,277.108c-2.9,0.381-10.131-2.078-13.33-0.021c-3.198,2.057,5.141,4.506,4.67,5.598
			c-0.47,1.09-7.763,7.532-5.597,8.953c2.165,1.42,8.028-3.964,10.123-3.315c2.096,0.647,0.038,7.05,3.237,6.652
			c3.674-0.45,2.521-7.565,5.979-8.744c3.455-1.184,10.688,1.277,9.85-1.016c-0.836-2.289-8.649-4.574-8.952-5.597
			c-0.302-1.021,3.982-5.304,2.205-5.411C29.478,274.101,23.071,277.108,23.071,277.108z"/>
		<g>
			<g>
				<path fill="#FF8A65" d="M15.107,281.532c-0.077,0.181-0.34,0.503-0.711,0.925c-0.545-1.178-7.603-3.434-4.678-5.353
					C10.018,278.85,15.49,280.644,15.107,281.532z"/>
				<path fill="#FF8A65" d="M29.933,277.711c0.321-0.65,0.966-1.534,1.515-2.36C31.108,276.03,30.467,276.911,29.933,277.711z"/>
				<path fill="#FF8A65" d="M9.442,288.566c-0.419,0.854-0.493,1.554,0.065,1.92c2.167,1.421,8.029-3.962,10.124-3.314
					c2.096,0.648,0.037,7.052,3.238,6.653c0.713-0.088,1.242-0.429,1.66-0.922c-0.497,1.099-1.178,1.929-2.356,2.072
					c-3.2,0.396-1.142-6.005-3.237-6.652c-2.095-0.648-7.959,4.733-10.123,3.313C8.02,291.116,8.498,289.923,9.442,288.566z"/>
				<path fill="#FF8A65" d="M28.847,285.083c2.557-0.876,7.18,0.24,9.072-0.046c0.032,0.062,0.062,0.121,0.083,0.183
					c0.837,2.291-6.394-0.168-9.849,1.015c-0.545,0.188-0.976,0.52-1.329,0.95C27.275,286.203,27.882,285.41,28.847,285.083z"/>
			</g>
			
				<ellipse transform="matrix(0.9735 0.2288 -0.2288 0.9735 65.0664 1.4803)" fill="#FF8A65" cx="26.151" cy="281.292" rx="1.829" ry="0.811"/>
			
				<ellipse transform="matrix(0.8578 -0.5141 0.5141 0.8578 -139.9511 52.4038)" fill="#FF8A65" cx="24.714" cy="279.083" rx="1.828" ry="0.811"/>
			
				<ellipse transform="matrix(0.9021 -0.4315 0.4315 0.9021 -119.697 36.651)" fill="#FF8A65" cx="20.933" cy="282.147" rx="1.829" ry="0.812"/>
			
				<ellipse transform="matrix(0.9022 -0.4313 0.4313 0.9022 -120.8223 35.2656)" fill="#FF8A65" cx="17.36" cy="284.082" rx="1.613" ry="0.715"/>
			
				<ellipse transform="matrix(0.8218 -0.5698 0.5698 0.8218 -160.4268 59.1626)" fill="#FF8A65" cx="14.374" cy="286.065" rx="1.205" ry="0.536"/>
			
				<ellipse transform="matrix(0.8221 -0.5693 0.5693 0.8221 -161.8226 57.986)" fill="#FF8A65" cx="11.888" cy="287.971" rx="1.206" ry="0.533"/>
			
				<ellipse transform="matrix(0.3519 -0.936 0.936 0.3519 -250.1444 205.7633)" fill="#FF8A65" cx="23.513" cy="283.515" rx="1.787" ry="1.049"/>
			<path fill="#FF8A65" d="M22.981,288.321c0.525,0.069,1.035-0.486,1.133-1.24c0.1-0.752-0.245-1.42-0.775-1.488
				c-0.524-0.068-1.033,0.484-1.131,1.238C22.106,287.583,22.455,288.251,22.981,288.321z"/>
			
				<ellipse transform="matrix(0.1311 -0.9914 0.9914 0.1311 -267.5133 274.6127)" fill="#FF8A65" cx="22.905" cy="289.918" rx="1.052" ry="0.735"/>
			<path fill="#FF8A65" d="M22.701,293.034c0.294,0.037,0.581-0.273,0.634-0.693c0.056-0.423-0.137-0.798-0.433-0.837
				c-0.295-0.037-0.58,0.273-0.635,0.695C22.212,292.62,22.406,292.994,22.701,293.034z"/>
			
				<ellipse transform="matrix(0.8579 -0.5138 0.5138 0.8579 -138.4794 53.6109)" fill="#FF8A65" cx="27.686" cy="277.168" rx="1.109" ry="0.491"/>
			
				<ellipse transform="matrix(0.858 -0.5136 0.5136 0.858 -137.1323 54.4917)" fill="#FF8A65" cx="30.005" cy="275.308" rx="0.899" ry="0.397"/>
			
				<ellipse transform="matrix(0.9734 0.2292 -0.2292 0.9734 65.4798 0.5984)" fill="#FF8A65" cx="30.163" cy="282.212" rx="0.978" ry="0.434"/>
			
				<ellipse transform="matrix(0.9736 0.2282 -0.2282 0.9736 65.4545 -0.0122)" fill="#FF8A65" cx="32.78" cy="282.999" rx="0.978" ry="0.434"/>
			
				<ellipse transform="matrix(0.9734 0.2292 -0.2292 0.9734 65.9995 -0.5024)" fill="#FF8A65" cx="35.162" cy="283.833" rx="0.714" ry="0.317"/>
			
				<ellipse transform="matrix(0.9734 0.2291 -0.2291 0.9734 64.6366 2.6392)" fill="#FF8A65" cx="20.954" cy="279.651" rx="1.899" ry="0.844"/>
			
				<ellipse transform="matrix(0.9733 0.2295 -0.2295 0.9733 64.3901 3.4078)" fill="#FF8A65" cx="17.544" cy="278.533" rx="1.315" ry="0.585"/>
			
				<ellipse transform="matrix(0.9733 0.2294 -0.2294 0.9733 64.122 3.9851)" fill="#FF8A65" cx="14.917" cy="277.839" rx="0.856" ry="0.518"/>
			
				<ellipse transform="matrix(0.9984 0.0559 -0.0559 0.9984 15.5282 -0.2541)" fill="#FF8A65" cx="12.304" cy="277.38" rx="0.856" ry="0.515"/>
		</g>
	</g>
</g>
<g>
	<path fill="#938E73" d="M392.947,279.984c0,0,5.471,1.932,10.08,0.537c4.611-1.396,2.788-2.789,7.078-2.789
		s15.229-4.611,11.368-5.685s-10.832-1.501-10.832-1.501L392.947,279.984z"/>
	<path fill="#C7B09B" d="M412.497,268.189c-1.003-0.014-1.709,0.195-2.171,0.41c-0.423-0.6-0.979-1.041-1.624-1.181
		c-1.968-0.428-3.053,0.265-3.473,0.641c-1.375-1.368-3.207-1.874-5.115-1.726c-2.473,0.193-4.048,1.614-4.47,2.041
		c-0.59-0.168-1.226-0.284-1.921-0.327c-7.219-0.458-10.529,2.166-10.529,2.166c0.8,0.172,5.638,10.159,11.155,9.901
		c2.885-0.135,4.744-1.487,5.612-3.241c4.095,1.414,6.214-0.39,6.936-2.564c0.004,0.044,0.006,0.072,0.006,0.072
		c2.619,0.448,3.869-0.698,4.195-2.19c3.976,0.773,7.132-3.176,7.132-3.176C414.979,269.559,414.522,268.218,412.497,268.189z"/>
	<path fill="#9E8571" d="M417.579,269.104c-1.061,0.854-2.986,2.098-5.219,2.1c-0.188-0.461-0.473-1.096-0.772-1.554
		c-0.523-0.798-1.359-1.099-1.359-1.099s0.294,0.598,0.645,1.394c0.2,0.46,0.171,0.845,0.107,1.097
		c-0.018-0.006-0.036-0.006-0.055-0.012c-0.339,1.167-1.28,2.065-2.987,2.079c0.097-0.752,0.069-1.907-0.712-2.949
		c-1.287-1.716-2.373-2.515-2.373-2.515s0.335,1.014,1.193,2.73c0.855,1.717,0.429,2.5,0.429,2.5l0.112,0.093
		c-0.04-0.011-0.072-0.011-0.112-0.021c0,0,0-0.027,0-0.072c-0.73,1.765-2.432,3.204-5.342,2.692
		c-0.299-1.018-0.939-2.911-1.844-4.119c-1.288-1.718-3.77-2.943-3.77-2.943s2.158,2.086,3.019,3.801
		c0.856,1.717,0.644,2.69,0.644,2.69c-1,1.695-2.998,2.928-5.973,2.879c-2.265-0.037-4.317-1.685-6.021-3.669
		c2.772,1.942,6.167,3.28,8.298,0.422c1.17-1.567-0.397-4.791-4.224-5.704c-3.821-0.912-8.673,1.169-8.673,1.169
		s0.863,0.983,2.174,2.169c2.021,2.954,5.629,8.039,9.586,7.855c2.885-0.135,4.744-1.487,5.612-3.241
		c4.095,1.416,6.214-0.39,6.936-2.565c0.004,0.044,0.006,0.072,0.006,0.072c2.619,0.447,3.869-0.698,4.195-2.19
		c3.976,0.773,7.132-3.176,7.132-3.176C417.999,269.055,417.785,269.081,417.579,269.104z"/>
</g>
<g>
	<path fill="#938E73" d="M412.512,283.6c0.025-0.093,0.048-0.171,0.063-0.244c0.002-0.007,0.004-0.017,0.008-0.022
		c1.487-0.271,4.521-1.044,5.32-1.814c0,0-0.02-0.825-0.693-1.96c-0.021-0.034-0.041-0.068-0.062-0.104
		c-0.375-0.609-2.409-1.69-3.356-1.848l0,0c-0.007-0.006-0.016-0.012-0.021-0.02c-0.296-0.241-0.63-0.484-0.999-0.729
		c-0.003-0.001-0.005-0.002-0.005-0.003l0,0c-0.301-0.195-0.615-0.391-0.966-0.579c-0.332-0.18-0.65-0.327-0.964-0.464l0,0
		c-0.004-0.001-0.009-0.002-0.01-0.004c-1.63-0.697-3.008-0.825-4.066-0.733c-0.022,0.002-0.041,0.006-0.063,0.008
		c-0.24,0.021-0.471,0.056-0.677,0.098c-0.003,0-0.005,0-0.006,0.001l0,0c-1.041,0.211-1.623,0.595-1.623,0.595
		s0.344,2.159,1.59,4.254c-0.009,0.014-0.017,0.031-0.024,0.045c-0.023,0.038-0.047,0.079-0.069,0.129
		c-0.013,0.026-0.026,0.058-0.04,0.086c-0.241,0.558-0.405,1.529-0.123,2.038c0.4,0.725,2.892,0.637,3.066,0.629
		c0.006,0.004,0.011,0.008,0.017,0.012c-0.006-0.002-0.016-0.002-0.021-0.002c0,0,0.02,0.021,0.043,0.049
		c0.007,0.005,0.007,0.005,0.014,0.011c0.306,0.33,1.941,2.043,2.694,1.892C412.061,284.812,412.36,284.107,412.512,283.6
		L412.512,283.6z"/>
	<g>
		<path fill="#706E58" d="M408.335,281.853c0,0-2.58,0.211-2.954-0.499c-0.373-0.709,0.213-2.442,0.549-2.394
			C406.265,279.012,408.335,281.853,408.335,281.853z"/>
		<path fill="#706E58" d="M408.313,281.864c0,0,1.779,1.979,2.588,1.787c0.808-0.191,1.126-1.825,1.126-1.825
			S408.616,281.84,408.313,281.864z"/>
		<g>
			<path fill="#9B9779" d="M412.027,281.826c0,0-3.411,0.014-3.714,0.038c0,0,0.271,0.3,0.646,0.654
				c0.838,0.162,1.89,0.079,2.927-0.173C411.983,282.053,412.027,281.826,412.027,281.826z"/>
			<path fill="#9B9779" d="M408.335,281.853c0,0-2.07-2.841-2.405-2.893c-0.135-0.021-0.306,0.246-0.441,0.614
				c0.507,0.855,1.178,1.683,2.068,2.307C408,281.879,408.335,281.853,408.335,281.853z"/>
		</g>
		<path fill="#BDBDBD" d="M408.454,281.938c1.736,0.933,5.657-0.101,7.197-1.587c0,0,0.058-2.852-4.198-5.055
			c-4.255-2.202-7.131-0.229-7.131-0.229S404.931,280.045,408.454,281.938z"/>
		<g>
			<path fill="#9B9779" d="M407.941,281.466c-0.126-0.198-0.263-0.506-0.408-0.875c-0.075-0.186-0.123-0.398-0.19-0.613
				c-0.074-0.213-0.104-0.455-0.156-0.695c-0.093-0.482-0.132-1.009-0.151-1.528c-0.021-1.05,0.106-2.09,0.249-2.853
				c0.051-0.252,0.097-0.459,0.142-0.644c-0.577,0.006-1.085,0.077-1.516,0.179c-0.002,0.113-0.004,0.219-0.006,0.344
				c0.004,0.847,0.082,1.975,0.315,3.07c0.126,0.548,0.273,1.086,0.468,1.573c0.104,0.24,0.179,0.479,0.299,0.688
				c0.115,0.209,0.203,0.415,0.32,0.589c0.221,0.354,0.415,0.631,0.578,0.807c0.055,0.064,0.097,0.115,0.134,0.161
				c0.018,0.01,0.035,0.021,0.054,0.031C408.039,281.646,407.996,281.567,407.941,281.466z"/>
			<path fill="#9B9779" d="M413.751,279.922c0.445-0.229,0.828-0.508,1.174-0.724c0.133-0.096,0.249-0.179,0.361-0.262
				c-0.146-0.325-0.348-0.688-0.634-1.071c-0.123,0.131-0.269,0.274-0.438,0.451c-0.284,0.242-0.597,0.56-0.979,0.837
				c-0.373,0.295-0.776,0.604-1.207,0.875c-0.421,0.294-0.856,0.557-1.281,0.778c-0.416,0.235-0.813,0.459-1.174,0.606
				c-0.578,0.266-0.995,0.452-1.131,0.517c0.004,0.002,0.007,0.004,0.012,0.007c0.014,0.005,0.025,0.009,0.037,0.016
				c0.18-0.049,0.6-0.163,1.161-0.317c0.378-0.091,0.809-0.246,1.272-0.421c0.469-0.16,0.963-0.355,1.436-0.586
				C412.849,280.419,413.314,280.168,413.751,279.922z"/>
			<path fill="#9B9779" d="M408.558,281.647c0.166-0.146,0.42-0.346,0.698-0.607c0.556-0.526,1.272-1.261,1.954-2.025
				c0.829-0.927,1.624-1.888,2.12-2.501c-0.283-0.229-0.605-0.46-0.967-0.689c-0.383,0.671-1.006,1.74-1.679,2.791
				c-0.542,0.855-1.122,1.68-1.582,2.286c-0.231,0.3-0.445,0.531-0.587,0.706c-0.104,0.122-0.174,0.205-0.206,0.242
				c0.002,0.001,0.002,0.003,0.005,0.004C408.354,281.82,408.437,281.752,408.558,281.647z"/>
			<path fill="#9B9779" d="M408.197,281.509c-0.02-0.225,0.012-0.536,0.043-0.903c0.054-0.372,0.136-0.798,0.256-1.246
				c0.132-0.448,0.284-0.916,0.472-1.377c0.368-0.919,0.817-1.802,1.184-2.443c0.153-0.269,0.282-0.481,0.391-0.653
				c-0.425-0.174-0.831-0.303-1.224-0.397c-0.063,0.169-0.136,0.355-0.216,0.571c-0.265,0.729-0.574,1.719-0.789,2.729
				c-0.11,0.505-0.187,1.016-0.242,1.495c-0.046,0.481-0.056,0.931-0.043,1.315c0.032,0.388,0.058,0.704,0.112,0.917
				c0.025,0.122,0.043,0.202,0.057,0.263c0.004,0.003,0.01,0.006,0.014,0.009C408.205,281.729,408.203,281.646,408.197,281.509z"/>
		</g>
	</g>
</g>
<path fill="#938E73" d="M111.204,284.775c0.043,0.433-15.416,5.435-27.704-0.715C71.213,277.912,110.92,281.916,111.204,284.775z"/>
<g>
	<path fill="#A8A483" d="M85.894,283.589c0,0,7.2-10.909,12.218-10.909c5.019,0,13.092,12,13.092,12S95.931,287.515,85.894,283.589z
		"/>
	<path fill="#B5B193" d="M93.616,276.411c0.333,1.331,3.217-0.967,6.22,0c3.003,0.964,4.183,3.218,5.148,2.572
		c0.965-0.643-4.826-5.361-6.971-5.577C95.868,273.192,93.509,275.981,93.616,276.411z"/>
</g>
<path fill="#A8A483" d="M36.505,255.009c7.99,0.827,7.629,5.046,14.78-1.185c6.13-5.342,9.802-4.437,16.732-1.215
	c2.503,1.165,16.681,10.714,17.833,9.506c2.671-2.795-9-9.172-10.426-9.991c-4.797-2.764-10.182-5.848-15.653-7.027
	c-6.452-1.395-11.221,10.875-16.694,8.121c-6.838-3.44-10.866-3.276-15.113,3.771C21.114,268.354,32.962,254.645,36.505,255.009
	C42.229,255.603,32.85,254.632,36.505,255.009z"/>
<path fill="#43A047" d="M18.174,199.956c0,0,9.804,12.082,9.5,21.144c-0.41,12.196-11.342,21.038-10.563,27.925
	c0.706,6.255,4.456,10.546,4.456,10.546s-7.295-5.564-7.295-11.764s10.454-21.62,10.349-27.025
	C24.451,212.038,18.174,199.956,18.174,199.956z"/>
<path fill="#7A7660" d="M91.608,264.052c0,0,9.349,2.067,1.257,6.154c0,0-5.952,3.541-11.53-0.321c0,0-7.382,1.594-9.957-1.268
	c0,0-18.47,2.363-13.984-6.259c0,0,22.707,2.469,26.996,2.897C88.683,265.687,91.608,264.052,91.608,264.052z"/>
<path fill="#D87451" d="M89.722,260.187c0,0-1.29-4.755,0.298-5.411c1.59-0.659,0.608,4.642,0.608,4.642s1.973-4.694,3.168-4.455
	c1.196,0.24-1.978,4.798-1.978,4.798s3.045-2.609,3.776-1.728c0.731,0.887-3.261,3.288-3.261,3.288s3.713-1.709,4.402-0.848
	c0.69,0.862-4.036,2.006-4.036,2.006s3.563-0.196,3.778,0.563c0.215,0.758-3.523,0.219-3.523,0.219s4.79,0.751,4.429,1.879
	c-0.36,1.127-4.789-1.23-5.775-1.085c0,0-0.33,0.2-0.783,1.314c-1.003,2.474-4.675,5.638-7.268,2.179
	c-2.592-3.461,1.191-5.872,2.375-6.277C87.704,260.657,89.043,261.404,89.722,260.187z"/>
<path fill="#AB534B" d="M58.428,262.95c0,0-4.034,2.825-5.192,1.554c-1.16-1.271,4.159-2.146,4.159-2.146s-5.084-0.264-5.266-1.47
	c-0.179-1.206,5.186,0.232,5.186,0.232s-3.488-1.979-2.905-2.968c0.583-0.986,4.199,1.955,4.199,1.955s-2.868-2.915-2.291-3.856
	c0.578-0.941,3.257,3.118,3.257,3.118s-1.394-3.286-0.754-3.747c0.64-0.459,1.401,3.239,1.401,3.239s-0.918-4.76,0.265-4.803
	c1.183-0.045,0.468,4.923,0.938,5.8c0,0,0.3,0.243,1.504,0.29c2.666,0.104,6.888,2.485,4.513,6.1
	c-2.377,3.611-5.928,0.871-6.711-0.104C59.558,264.69,59.804,263.174,58.428,262.95z"/>
<g>
	<path fill="#BA5A52" d="M72.062,256.162c0,0,3.143-1.984,5.06-0.685c1.917,1.298,7.358,6.265,5.891,9.914
		s-12.646,3.755-14.132,1.464C67.394,264.565,67.36,259.318,72.062,256.162z"/>
	<path fill="#D87451" d="M71.129,260.337c0,0,1.621,2.421,0.452,2.931c-1.168,0.51-1.744-2.502-1.744-2.502s-1.948,4.652-3.55,4.351
		c-1.602-0.301,1.699-4.069,1.699-4.069s-5.935,4.37-6.873,1.912c-0.938-2.457,7.025-3.219,7.025-3.219s-7.955-0.728-6.792-3.039
		c1.164-2.314,6.874,1.907,6.874,1.907s-5.447-4.487-4.499-5.535c0.949-1.049,4.975,4.005,4.975,4.005s-4.073-5.785-2.651-6.348
		c1.421-0.563,4.153,5.661,4.153,5.661s-1.6-7.416,0.205-8.43c1.806-1.014,1.723,6.223,1.723,6.223s0.152-6.136,1.231-6.308
		s0.041,6.041,0.041,6.041s1.299-4.196,2.306-4.462c1.006-0.263,0.695,2.828-1.17,5.076c0,0,2.047-2.394,2.902-1.353
		c0.854,1.044-2.654,3.05-2.654,3.05s1.232,1.068,0.433,1.819c-0.799,0.75-2.191-0.071-2.191-0.071s2.228,2.027,1.418,2.729
		C73.634,261.406,71.129,260.337,71.129,260.337z"/>
	<path fill="#AB534B" d="M71.48,257.802c0,0,1.729,2.698,0.92,3.205c-0.81,0.508-1.599-2.154-1.599-2.154s-0.576,3.21-1.506,3.039
		c-0.93-0.17,0.401-2.62,0.401-2.62s-3.187,2.264-4.024,0.69c-0.325-0.606,3.635-1.049,3.635-1.049s-4.945,0.174-4.42-1.332
		c0.286-0.817,4.163,0.417,4.163,0.417s-3.811-1.372-3.533-1.941c0.276-0.567,2.214,0.541,2.214,0.541s-2.284-1.615-1.863-2.48
		c0.42-0.865,3.863,2.13,3.863,2.13s-3.411-3.179-2.817-3.818c0.592-0.641,3.38,3.416,3.38,3.416s-1.555-3.346-0.917-4.021
		c0.638-0.677,1.832,2.72,1.914,3.886c0,0,0.44-1.082,0.214-2.064c-0.227-0.983-1.413-1.617-1.066-2.041
		c0.348-0.422,2.73,0.99,1.451,3.916c0,0,1.188-3.083,1.894-2.799c0.705,0.287-1.029,3.106-1.029,3.106s2.502-1.036,3.058-0.093
		c0.553,0.945-3.5,1.003-3.5,1.003s2.075,0.308,2.013,0.781c-0.063,0.479-2.606-0.142-2.606-0.142s3.136,0.849,2.726,1.637
		C74.029,259.799,71.48,257.802,71.48,257.802z"/>
</g>
<ellipse fill="#A8A483" cx="243.956" cy="294.433" rx="1.432" ry="0.537"/>
<ellipse fill="#A8A483" cx="241.382" cy="296.721" rx="2.72" ry="1.02"/>
<path fill="#938E73" d="M200.795,286.133c10.084-7.882,10.942-10.778,7.081-15.604c-0.47-0.589-1.033-1.163-1.617-1.73
	c-2.77-0.104-5.554-0.217-8.351-0.344c4.519,0.743,8.43,1.804,6.319,4.81c-4.226,6.018-31.729,13.754-35.855,25.811h26.301
	C193.9,297.461,192.593,292.54,200.795,286.133z"/>
</svg>
