<?xml version="1.0" encoding="utf-8"?>
<!-- Generator: Adobe Illustrator 15.1.0, SVG Export Plug-In . SVG Version: 6.00 Build 0)  -->
<!DOCTYPE svg PUBLIC "-//W3C//DTD SVG 1.1//EN" "http://www.w3.org/Graphics/SVG/1.1/DTD/svg11.dtd">
<svg version="1.1" id="Layer_1" xmlns="http://www.w3.org/2000/svg" xmlns:xlink="http://www.w3.org/1999/xlink" x="0px" y="0px"
	 width="422.977px" height="299.076px" viewBox="0 0 422.977 299.076" enable-background="new 0 0 422.977 299.076"
	 xml:space="preserve">
<path fill="#435E60" d="M162.489,249.238c0,0-2.737-6.524-0.979-8.601c1.756-2.074,7.649-2.41,9.519-3.467
	c2.464-1.393,3.012-4.783,2.074-4.988c-0.938-0.203-0.785,2.826-3.115,4.037c-1.997,1.038-7.875,1.922-8.78,3.713
	c0,0,1.664-4.558,2.795-5.494c0,0,1.174-0.217,1.737-0.48c0,0,2.426,2.314,3.479,1.527c1.052-0.786-2.361-2.202-2.361-2.202
	s4.067-1.693,5.743-5.123c1.675-3.431,0.787-5.2,0.212-5.138c-0.575,0.064-0.583,2.814-0.913,3.586c0,0-0.457-3.733-1.508-3.409
	c-1.052,0.321,1.31,3.973,0.695,5.284c-0.617,1.311-4.141,4.33-6.348,4.695c0,0,4.058-5.688,4.139-10.121
	c0,0,3.304-2.834,3.022-4.147c-0.282-1.313-3.034,2.989-3.034,2.989s-0.429-6.17-2.504-6.016c-2.075,0.154,2.727,4.902,1.113,8.879
	c0,0-1.75-1.169-2.351-2.494c0,0,1.35-2.6,0.734-3.199c-0.616-0.599-1.265,2.074-1.265,2.074s-0.593-1.18-0.72-2.332
	c-0.126-1.148,0.3-3.107-0.461-2.865c-0.228,0.07-2.511,3.017,2.271,8.402c0,0-1.339-0.613-2.868-0.521
	c-1.528,0.093-2.521,0.934-2.179,1.318c0.341,0.386,3.187-1.408,6.688,0.494c0,0-1.178,3.517-2.212,4.621
	c0,0-0.932-0.746-1.226-1.143c-0.473-0.637-1.136-2.508-1.833-2.061c-0.696,0.446,0.428,2.781,2.717,3.772c0,0-2.39,3.097-3.63,6.56
	c-0.825,2.305-1.147,4.006-1.441,3.938c-0.294-0.069-1.241-2.821-2.464-3.905c0,0-0.009-0.425,0.761-1.319
	c0.919-1.067,4.132-3.49,3.658-4.621c-0.473-1.129-3.176,3.492-3.591,2.853c-0.415-0.642,1.979-4.173,0.66-4.903
	c-1.317-0.73-1.369,6.596-2.657,6.848c0,0-0.259-0.969-1.93-2.258c0,0,0.362-2.164,1.58-3.569c1.218-1.404,3.517-5.089,3.641-6.849
	c0.157-2.209-0.221-5.604-1.646-5.229c-1.425,0.375,0.674,3.492,0.152,5.435c0,0-1.448-0.027-2.412-1.129
	c-0.964-1.101-0.383-2.988-1.804-2.556c-0.822,0.251-0.389,1.629,0.268,2.532c0.478,0.656,1.157,0.943,1.157,0.943
	s-2.599,0.59-2.318,1.412c0.281,0.823,2.883-0.695,2.883-0.695s1.152,0.396,2.018,0.344c0,0-0.183,1.775-1.127,2.934
	c-0.943,1.157-2.713,3.493-3.148,5.895c0,0-1.035-0.836-1.695-1.229c0,0,0.795-1.294,1.181-2.504
	c0.415-1.299,0.15-2.325-0.512-2.257c-1.15,0.12-0.174,3.37-1.432,4.111c0,0-2.055-1.44-2.478-3.644c0,0,1.953-1.248,2.396-2.548
	c0.443-1.301,0.35-3.321-0.574-3.268c-0.922,0.058,0.367,3.192-2.246,5c0,0,0.92-5.875-0.305-6.032
	c-1.226-0.158-1.156,2.442-0.833,4.45c0,0-0.727-0.043-1.701-0.36s-0.896-1.422-1.695-1.229c-0.799,0.192-0.519,2.928,3.478,2.455
	c0,0,0.638,4.361,3.235,6.146c2.597,1.784,6.577,4.901,7.674,8.223c0,0-1.986-1.241-5.627-1.137c0,0-0.126-1.149-0.594-2.194
	c0,0,1.904-1.068,1.43-1.734c-0.475-0.668-1.854,0.951-1.854,0.951s-0.896-2.871-2.367-2.291c-1.471,0.582,2.137,2.795,2.399,5.24
	c0,0-1.739-0.039-2.643-0.623c-0.903-0.582-1.241-1.863-2.271-1.658c-1.031,0.207-1.048,3.277,5.093,3.342
	c6.142,0.065,6.579,1.082,7.013,2.039c0.435,0.959,0.075,1.24,0.075,1.24s-2.109-1.842-2.791-1.162
	c-0.682,0.677,2.997,2.655,2.997,2.655s-0.084,2.931-1.087,4.063L162.489,249.238z"/>
<path fill="#354F4E" d="M335.765,246.946c-5.932-4.086-2.628-3.021-7.386-10.342c-6.412-9.862-3.876-14.688-9.109-15.989
	c1.758-0.78,3.99-2.41,4.94-5.785c1.679-5.961-3.354-8.576-3.354-8.576s5.638,7.531-2.729,14.129
	c-0.166-0.026-0.332-0.051-0.499-0.069c1.644-1.277,4.229-3.701,4.229-6.312c0-1.883-1.934-5.146-3.883-8.37
	c2.191-2.553,4.808-5.73,4.808-8.343c0-4.497-3.484-7.634-3.484-7.634s2.581,5.019,1.419,6.796c-0.587,0.897-2.718,3.34-4.687,5.916
	c-1.188-2.072-2.058-3.9-2.049-5.023c0.062-8.774,3.204-18.633,3.204-18.633s-5.761,13.243-5.527,18.828
	c0.109,2.672,1.233,5.081,2.607,7.269c-1.126,1.674-1.939,3.209-1.939,4.192c0,2.653,3.911,8.733,3.682,11.252
	c-0.833,0.031-1.809-0.106-2.517,0.421c-9.484,7.069-13.783,3.514-16.502,4.483c-9.141,3.265-37.688,41.001-37.688,41.001
	l4.08-3.699c0,0,81.992-0.438,126.213-14.364C389.591,248.094,346.521,254.354,335.765,246.946z M315.033,209.731
	c0-0.442,0.48-1.157,1.203-2.053c1.959,2.701,3.741,5.027,3.457,7.072c-0.343,2.457-1.625,4.42-2.511,5.521
	c-0.211-0.017-0.421-0.023-0.632-0.027c0.975-0.996,2.445-2.984,1.451-5.182C316.583,211.928,315.033,211.51,315.033,209.731z
	 M307.478,213.329c2.204,7.826,9.661,8.513,9.661,8.513c-13.39-8.924-5.254-19.771-5.254-19.771S305.273,205.504,307.478,213.329z"
	/>
<path fill="#435E60" d="M328.424,253.354c0,0,10.13-32.573,11.613-36.002c1.481-3.43,4.2-5.144,4.941-5.43
	c0.741-0.287,2.965,1.715,3.706,1.715s9.145-15.717,11.614-18.289c2.471-2.572,8.155-5.143,14.58-2.57
	c6.426,2.572,7.66,5.716,12.604,3.429c4.942-2.285,8.648-3.429,12.85,2.571c4.201,6.002,15.816,36.576,15.816,36.576
	L328.424,253.354z"/>
<path fill="#435E60" d="M371.936,209.592c0,0-5.262-12.536-1.885-16.524c3.377-3.986,14.702-4.633,18.293-6.662
	c4.735-2.678,5.789-9.195,3.986-9.588c-1.804-0.394-1.509,5.433-5.986,7.759c-3.837,1.995-15.135,3.694-16.875,7.138
	c0,0,3.199-8.762,5.373-10.563c0,0,2.255-0.414,3.339-0.924c0,0,4.663,4.447,6.687,2.937c2.022-1.515-4.538-4.233-4.538-4.233
	s7.815-3.254,11.037-9.844c3.219-6.594,1.512-9.996,0.407-9.875c-1.106,0.124-1.121,5.41-1.757,6.895c0,0-0.877-7.18-2.896-6.557
	c-2.021,0.621,2.518,7.637,1.335,10.156c-1.187,2.52-7.957,8.324-12.2,9.023c0,0,7.799-10.929,7.955-19.451
	c0,0,6.35-5.444,5.808-7.971c-0.542-2.527-5.831,5.748-5.831,5.748s-0.823-11.857-4.813-11.563
	c-3.988,0.295,5.241,9.422,2.141,17.063c0,0-3.361-2.246-4.518-4.791c0,0,2.593-4.998,1.41-6.149
	c-1.183-1.153-2.432,3.985-2.432,3.985s-1.138-2.268-1.383-4.479c-0.243-2.211,0.577-5.975-0.887-5.511
	c-0.438,0.139-4.826,5.799,4.364,16.151c0,0-2.573-1.18-5.513-1.004c-2.938,0.176-4.845,1.793-4.188,2.533s6.125-2.705,12.854,0.951
	c0,0-2.264,6.758-4.251,8.881c0,0-1.791-1.434-2.355-2.195c-0.908-1.225-2.184-4.82-3.521-3.961s0.822,5.348,5.222,7.253
	c0,0-4.594,5.95-6.977,12.604c-1.587,4.433-2.206,7.699-2.771,7.566s-2.386-5.421-4.735-7.505c0,0-0.018-0.817,1.462-2.536
	c1.768-2.053,7.941-6.707,7.032-8.879s-6.105,6.709-6.903,5.479c-0.798-1.232,3.803-8.021,1.269-9.425
	c-2.532-1.405-2.631,12.678-5.106,13.158c0,0-0.5-1.859-3.709-4.338c0,0,0.695-4.16,3.037-6.859
	c2.341-2.698,6.758-9.781,6.997-13.163c0.3-4.244-0.425-10.768-3.164-10.046c-2.738,0.721,1.295,6.709,0.294,10.442
	c0,0-2.784-0.055-4.636-2.169c-1.854-2.113-0.735-5.742-3.467-4.91c-1.582,0.481-0.749,3.129,0.514,4.864
	c0.919,1.265,2.225,1.813,2.225,1.813s-4.995,1.136-4.456,2.717c0.541,1.581,5.541-1.335,5.541-1.335s2.216,0.758,3.878,0.657
	c0,0-0.351,3.412-2.165,5.638c-1.813,2.225-5.215,6.713-6.05,11.325c0,0-1.988-1.604-3.259-2.362c0,0,1.528-2.485,2.271-4.813
	c0.796-2.494,0.287-4.467-0.983-4.334c-2.21,0.229-0.334,6.475-2.751,7.897c0,0-3.951-2.767-4.762-7c0,0,3.75-2.397,4.602-4.896
	c0.853-2.5,0.672-6.386-1.103-6.277c-1.772,0.107,0.705,6.134-4.316,9.607c0,0,1.769-11.289-0.586-11.594
	c-2.355-0.304-2.222,4.695-1.6,8.553c0,0-1.396-0.082-3.271-0.693c-1.872-0.609-1.723-2.732-3.258-2.363
	c-1.535,0.371-0.997,5.625,6.683,4.719c0,0,1.228,8.383,6.22,11.812c4.989,3.428,12.64,9.42,14.747,15.803
	c0,0-3.814-2.385-10.813-2.187c0,0-0.243-2.211-1.145-4.217c0,0,3.659-2.055,2.748-3.336s-3.563,1.828-3.563,1.828
	s-1.723-5.517-4.549-4.4c-2.827,1.117,4.105,5.371,4.61,10.072c0,0-3.343-0.078-5.079-1.199c-1.736-1.117-2.386-3.582-4.363-3.186
	c-1.979,0.396-2.015,6.298,9.789,6.422c11.804,0.125,12.643,2.078,13.478,3.918c0.835,1.842,0.145,2.385,0.145,2.385
	s-4.054-3.541-5.365-2.235c-1.313,1.303,5.76,5.104,5.76,5.104s-0.162,5.631-2.089,7.805L371.936,209.592z"/>
<path fill="#436059" d="M132.568,206.503c0,0-2.809,4.075-2.048,8.518c0.41,2.396,7.223,11.381,3.475,15.52
	c0,0,0.997-2.318,0.367-4.759c-0.632-2.44-5.213-7.688-5.221-11.759C129.132,209.952,132.568,206.503,132.568,206.503z"/>
<path fill="#436059" d="M141.569,220.647c0,0-2.809,4.074-2.048,8.518c0.41,2.396,7.224,11.38,3.476,15.52
	c0,0,0.997-2.318,0.366-4.76c-0.632-2.439-5.212-7.688-5.221-11.759C138.133,224.097,141.569,220.647,141.569,220.647z"/>
<path fill="#436059" d="M133.774,210.865c-0.749,1.315,0.638,6.196,0.958,9.389c0.319,3.192-2.361,8.394-0.98,10.332
	c0,0-1.38-1.5-0.761-4.819c0.619-3.318,1.313-4.438,0.864-5.949C131.775,212.812,133.774,210.865,133.774,210.865z"/>
<path fill="#436059" d="M138.102,212.553c0.749,1.316-0.638,6.197-0.958,9.39c-0.319,3.192,2.361,8.395,0.98,10.332
	c0,0,1.38-1.5,0.761-4.819c-0.619-3.319-1.313-4.437-0.864-5.949C140.101,214.498,138.102,212.553,138.102,212.553z"/>
<path fill="#436059" d="M131.459,221.707c1.129,1.188-0.422,8.076,1.959,8.821c0,0-2.128,0.131-2.447-2.686
	C130.652,225.026,131.459,221.707,131.459,221.707z"/>
<path fill="#436059" d="M276.035,247.435c0,0-78.031,1.01-92.155-8.717c-7.789-5.363-35.29-11.285-54.721-9
	c-9.433,1.11-30.628,10.305-36.577,9.143c-5.95-1.161-21.903-4.191-21.903-4.191l-2.552,10.743c0,0,44.48,16.584,93.607,19.167
	C203.907,266.796,249.215,255.881,276.035,247.435z"/>
<path fill="#506E61" d="M422.605,222.414c-84.007-4.674-183.349,37.479-327.07,49.519l327.07,2.125V222.414z"/>
<g>
	<path fill="#435E60" d="M32.375,146.941c0,0-9.797,9.778-9.493,17.112c0.41,9.871,11.332,17.025,10.554,22.601
		c-0.706,5.063-4.452,8.535-4.452,8.535s7.29-4.502,7.29-9.521c0-5.018-10.445-17.495-10.34-21.872
		C26.103,156.72,32.375,146.941,32.375,146.941z"/>
	<path fill="#435E60" d="M32.912,153.7c0,0,3.391,6.59,1.864,8.924c-1.525,2.334-11.017,12.632-11.017,16.477
		c0,3.846,6.271,13.182,4.576,15.652c0,0,4.747-3.57,2.881-7.689c-1.864-4.117-3.898-4.668-3.898-7.002s10.17-10.435,10.17-16.338
		C37.489,157.817,32.912,153.7,32.912,153.7z"/>
	<path fill="#435E60" d="M34.96,175.496c0,0,8.136,10.847-5.254,19.771c0,0,7.458-0.687,9.661-8.513
		C41.571,178.929,34.96,175.496,34.96,175.496z"/>
</g>
<path fill="#435E60" d="M46.672,214.637c-3.715-1.144-5.144-12.571-7.715-16.286c-2.572-3.717-10.573-5.146-16.288-3.716
	C19.184,195.506,3.101,239.678,0,241.717l11.431,14.644l57.245-13.146c0,0-6.572-23.433-9.144-27.433
	C56.959,211.781,50.387,215.78,46.672,214.637z"/>
<path fill="#80896E" d="M84.106,245.212c-39.875-3.824-49.721-2-84.106,6.063v30.229h280.131v-13.716
	C243.555,275.215,125.826,249.213,84.106,245.212z"/>
<path fill="#506E61" d="M35.902,241.271c-4.501,0-12.796-15.552-21.329-20.555C7.792,216.739,0,223.073,0,223.073v44.14
	l68.675-3.716c0,0-0.231-7.02-4.385-18.719C60.136,233.082,43.979,241.271,35.902,241.271z"/>
<path fill="#9B9779" d="M0,300.076h1.221h421.384V259.91c-3.92-0.327-8.146-0.572-12.745-0.696
	c-42.292-1.143-70.866-1.714-127.444,8.001c-56.579,9.716-178.658-5.913-220.6-7.43C26.241,258.5,11.652,255.5,0,260.188V300.076z"
	/>
<path fill="#938E73" d="M134.969,281.79c-23.121-2.001-39.485-10.229-36.6-18.626c-3.776-0.463-7.486-0.904-11.102-1.308
	c-7.322,6.055-9.606,14.632-1.447,17.934c12.001,4.855,47.149,5.428,50.864,13.43c1.248,2.688,0.363,4.986-1.356,6.856h24.854
	C158.468,292.758,152.765,283.33,134.969,281.79z"/>
<path fill="#938E73" d="M323.064,276.288c19.502-2.572,11.771-10.878,12.43-16.073c-0.028-0.006-0.057-0.008-0.084-0.013
	c-5.304,0.441-10.818,0.996-16.62,1.677c4.063,8.438-15.427,17.877-40.589,18.769c-22.313,0.789-27.979,12.355-29.35,19.43h26.84
	C272.622,292.913,303.46,278.873,323.064,276.288z"/>
<g>
	<path fill="#D87451" d="M63.251,247.786c0,0,6.693-11.835,3.806-16.189c-2.887-4.354-14.058-6.322-17.388-8.761
		c-4.389-3.214-4.672-9.81-2.835-9.987c1.837-0.179,0.862,5.571,5.037,8.406c3.577,2.432,14.598,5.439,15.923,9.063
		c0,0-2.153-9.074-4.1-11.116c0,0-2.192-0.677-3.208-1.31c0,0-5.152,3.87-6.984,2.133c-1.832-1.739,5.003-3.674,5.003-3.674
		s-7.382-4.146-9.809-11.067c-2.425-6.925-0.332-10.104,0.752-9.854c1.083,0.252,0.479,5.504,0.936,7.053
		c0,0,1.712-7.027,3.646-6.174c1.935,0.855-3.395,7.289-2.515,9.932c0.881,2.641,6.927,9.199,11.059,10.392
		c0,0-6.466-11.769-5.622-20.25c0,0-5.668-6.151-4.834-8.597c0.834-2.446,5.117,6.392,5.117,6.392s2.208-11.68,6.134-10.919
		c3.926,0.762-6.309,8.743-4.123,16.695c0,0,3.602-1.837,5.046-4.229c0,0-1.989-5.267-0.681-6.272
		c1.311-1.007,1.948,4.243,1.948,4.243s1.396-2.119,1.896-4.287c0.501-2.167,0.128-6.001,1.527-5.369
		c0.418,0.189,4.113,6.324-6.227,15.529c0,0,2.694-0.871,5.592-0.352s4.601,2.35,3.862,3.006c-0.738,0.657-5.765-3.404-12.877-0.561
		c0,0,1.458,6.976,3.182,9.316c0,0,1.948-1.213,2.597-1.903c1.045-1.11,2.731-4.533,3.962-3.521
		c1.229,1.011-1.443,5.212-6.035,6.591c0,0,3.865,6.448,5.452,13.334c1.057,4.588,1.291,7.904,1.866,7.84
		c0.576-0.065,3.004-5.104,5.582-6.897c0,0,0.114-0.812-1.154-2.69c-1.515-2.244-7.101-7.59-5.943-9.642
		c1.157-2.051,5.277,7.379,6.214,6.248c0.936-1.13-2.838-8.408-0.157-9.508c2.68-1.099,1.129,12.897,3.531,13.668
		c0,0,0.714-1.789,4.193-3.875c0,0-0.205-4.212-2.213-7.168c-2.009-2.955-5.566-10.506-5.407-13.892
		c0.199-4.252,1.682-10.646,4.318-9.606c2.635,1.036-2.072,6.512-1.515,10.336c0,0,2.772,0.271,4.859-1.61
		c2.087-1.884,1.402-5.617,4.017-4.472c1.515,0.664,0.378,3.194-1.08,4.771c-1.061,1.146-2.421,1.541-2.421,1.541
		s4.827,1.713,4.105,3.221c-0.721,1.507-5.344-1.977-5.344-1.977s-2.29,0.493-3.93,0.199c0,0-0.051,3.432,1.491,5.854
		c1.54,2.421,4.392,7.275,4.681,11.955c0,0,2.164-1.36,3.513-1.965c0,0-1.226-2.647-1.689-5.045c-0.5-2.57,0.238-4.471,1.484-4.19
		c2.168,0.485-0.426,6.47,1.808,8.168c0,0,4.247-2.285,5.548-6.396c0,0-3.444-2.819-3.996-5.399c-0.554-2.582,0.08-6.42,1.83-6.105
		c1.747,0.315-1.419,6.01,3.162,10.049c0,0-0.435-11.42,1.938-11.445c2.376-0.025,1.656,4.923,0.588,8.681
		c0,0,1.396,0.081,3.329-0.306c1.93-0.387,2.029-2.512,3.511-1.965s0.332,5.701-7.188,3.901c0,0-2.2,8.183-7.56,11.001
		c-5.358,2.82-13.656,7.875-16.498,13.969c0,0,4.07-1.923,10.995-0.906c0,0,0.501-2.166,1.63-4.053c0,0-3.393-2.469-2.338-3.636
		c1.057-1.164,3.325,2.231,3.325,2.231s2.356-5.275,5.033-3.836c2.677,1.439-4.708,4.854-5.76,9.463c0,0,3.329,0.313,5.185-0.596
		c1.856-0.908,2.789-3.278,4.707-2.653c1.921,0.627,1.265,6.489-10.474,5.231c-11.735-1.26-12.799,0.582-13.843,2.313
		s-0.421,2.352-0.421,2.352s4.439-3.041,5.59-1.594c1.149,1.447-6.318,4.396-6.318,4.396s-0.499,5.61,1.161,7.996L63.251,247.786z"
		/>
	<g>
		<path fill="#B85951" d="M69.235,213.797c1.654,1.787,4.002,6.507,4.743,5.908C72.573,217.972,70.354,213.718,69.235,213.797z"/>
		<path fill="#B85951" d="M78.148,224.783c0,0,0.062-0.148,0.223-0.402c-1.228-3.393-1.181-14.412-3.446-13.559
			C76.125,213.552,76.166,224.147,78.148,224.783z"/>
		<path fill="#B85951" d="M69.326,232.651c0.105-0.014,0.273-0.191,0.49-0.483c-0.308-1.342-0.646-3.753-1.324-6.688
			c-1.586-6.887-5.452-13.334-5.452-13.334c4.592-1.379,7.264-5.582,6.035-6.592c-0.236-0.193-0.489-0.223-0.751-0.139
			c0.235,1.506-2.309,4.859-6.316,6.063c0,0,3.864,6.448,5.452,13.336C68.517,229.399,68.749,232.717,69.326,232.651z"/>
		<path fill="#B85951" d="M84.569,198.313c-1.061,1.146-2.422,1.541-2.422,1.541s0.373,0.463,1.114,0.804
			c0.46-0.185,1.587-0.862,2.341-1.679c1.458-1.576,2.594-4.106,1.08-4.771c-0.173-0.074-0.33-0.127-0.475-0.162
			C86.754,195.062,85.773,197.015,84.569,198.313z"/>
		<path fill="#B85951" d="M87.287,203.741c0.364-0.76-0.677-1.567-1.802-2.186c0.621,0.48,1.013,1.01,0.771,1.519
			c-0.427,0.893-2.221,0.034-3.615-0.813C83.959,203.164,86.741,204.883,87.287,203.741z"/>
		<path fill="#B85951" d="M84.263,219.651c-0.641-4.284-3.353-9.623-4.759-11.834c-1.542-2.422-1.491-5.854-1.491-5.854
			c1.489,0.268,3.506-0.113,3.867-0.186c-0.573-0.383-0.971-0.68-0.971-0.68s-2.289,0.491-3.928,0.198c0,0-0.051,3.431,1.489,5.853
			c1.541,2.422,4.563,8.35,4.853,13.028C83.322,220.181,83.736,219.967,84.263,219.651z"/>
		<path fill="#B85951" d="M95.838,209.336c0,0-0.006-0.172-0.014-0.474c-2.98-3.893-1.555-9.737-3.143-10.023
			c-0.174-0.029-0.333-0.011-0.484,0.034C92.48,200.567,92.118,206.058,95.838,209.336z"/>
		<path fill="#B85951" d="M87.493,208.572c-0.11-0.023-0.216-0.025-0.317-0.019c0.723,1.692-0.201,6.987,1.667,8.407
			c0,0,0.142-0.077,0.378-0.226C88.256,214.426,89.372,208.994,87.493,208.572z"/>
		<path fill="#B85951" d="M50.483,205.574c0.734,2.196,5.042,7.098,8.849,9.37c-3.518-2.461-7.148-6.704-7.816-8.705
			c-0.88-2.643,4.45-9.075,2.515-9.932c-0.211-0.092-0.418-0.078-0.621-0.002C53.562,198.222,49.726,203.299,50.483,205.574z"/>
		<path fill="#B85951" d="M97.264,206.188c0,0,0.469,0.023,1.222-0.024c0.936-3.57,1.5-8.556-0.576-8.707
			C98.775,198.935,98.092,203.28,97.264,206.188z"/>
		<path fill="#B85951" d="M57.457,215.688c0.008-0.002,0.016-0.004,0.016-0.004s-0.08-0.047-0.195-0.115
			C57.342,215.615,57.396,215.649,57.457,215.688z"/>
		<path fill="#B85951" d="M60.487,217.892c0.654,0.409,2.812,1.229,3.541,1.479c-0.117-0.169-0.193-0.774-0.31-0.897
			c0,0-3.248-0.613-4.264-1.248c0,0-3.941,2.961-6.155,2.541c0.05,0.086,0.114,0.174,0.204,0.26
			C55.335,221.763,60.487,217.892,60.487,217.892z"/>
		<path fill="#B85951" d="M65.666,193.762c-0.306-1.36-1.265-4.825-2.008-4.335c0.582,1.254,1.291,5.067,1.291,5.067
			S65.283,194.495,65.666,193.762z"/>
		<path fill="#B85951" d="M96.739,228.738c-0.131-0.044-0.258-0.068-0.381-0.085c0.832,1.621-1.119,5.724-11.125,4.649
			c-11.738-1.259-12.799,0.583-13.844,2.313c-1.045,1.73-0.421,2.351-0.421,2.351s0.385-0.263,0.949-0.593
			c0.089-0.301,0.245-0.662,0.504-1.092c1.044-1.73,2.107-3.572,13.843-2.313C98.004,235.229,98.66,229.365,96.739,228.738z"/>
		<path fill="#B85951" d="M76.675,236.653c0.155,1.516-6.435,4.117-6.435,4.117s-0.497,5.609,1.163,7.994l-7.911-1.418
			c-0.15,0.278-0.24,0.438-0.24,0.438l9.183,1.646c-1.659-2.385-1.161-7.994-1.161-7.994s7.468-2.949,6.318-4.396
			C77.381,236.774,77.058,236.664,76.675,236.653z"/>
		<path fill="#B85951" d="M92.608,222.524c-0.177-0.098-0.354-0.158-0.527-0.197c0.81,1.638-5.314,4.826-6.265,8.992
			c0,0,0.498,0.048,1.216,0.052C88.549,227.076,95.164,223.899,92.608,222.524z"/>
		<path fill="#B85951" d="M105.21,203.853c-0.208-0.076-0.383-0.098-0.546-0.082c0.447,1.455-1.37,4.826-7.676,3.317
			c0,0-2.2,8.183-7.559,11c-5.356,2.821-13.655,7.876-16.497,13.968c0,0,0.587-0.275,1.691-0.563
			c3.305-5.54,10.847-10.109,15.839-12.737c5.359-2.819,7.56-11.001,7.56-11.001C105.542,209.554,106.692,204.397,105.21,203.853z"
			/>
		<path fill="#B85951" d="M85.063,223.938c0.792,0.731,1.479,1.758,1.479,1.758s0.074-0.162,0.202-0.412
			C86.252,224.713,85.622,224.104,85.063,223.938z"/>
		<path fill="#B85951" d="M49.522,222.715c0.051,0.039,0.095,0.084,0.147,0.121c2.58,1.89,9.864,3.496,14.358,6.147
			C60.102,226.199,52.892,224.53,49.522,222.715z"/>
		<path fill="#B85951" d="M50.838,220.588c0.238,0.162,0.511,0.327,0.811,0.494c-3.904-2.888-3.013-8.409-4.815-8.233
			c-0.044,0.004-0.082,0.028-0.124,0.041C47.459,214.481,47.615,218.397,50.838,220.588z"/>
		<path fill="#B85951" d="M63.041,198.394c0,0-1.427,1.17-0.113,1.022c10.191-9.115,6.457-15.196,6.056-15.379
			c-0.238-0.106-0.42-0.077-0.569,0.043C69.259,185.957,71.452,190.903,63.041,198.394z"/>
		<path fill="#B85951" d="M71.18,201.556c-0.74,0.657-5.766-3.404-12.877-0.562c0,0,1.733,7.721,3.458,10.063
			c0,0,0.366-0.017,0.635-0.19c-1.462-2.876-3.06-9.205-3.06-9.205c7.112-2.845,12.139,1.218,12.877,0.562
			c0.525-0.468-0.186-1.523-1.677-2.283C71.286,200.563,71.561,201.215,71.18,201.556z"/>
		<path fill="#B85951" d="M58.33,200.321c0,0,0.324-0.165,0.812-0.458c-1.022-7.564,7.97-15.884,4.228-16.606
			c-0.056-0.011-0.11-0.011-0.165-0.017C63.806,185.431,56.428,193.403,58.33,200.321z"/>
		<path fill="#B85951" d="M49.353,201.815c0,0,0.446,1.947,0.949,0.555c-0.029-1.792,0.333-6.612-0.852-6.939
			c-0.161-0.046-0.349,0.012-0.54,0.131C49.284,197.14,48.996,200.604,49.353,201.815z"/>
		<path fill="#B85951" d="M56.912,194.657c0,0,0.272,0.089,0.406-0.501c-1.093-2.058-3.891-6.921-4.808-6.789
			C54.059,189.088,56.912,194.657,56.912,194.657z"/>
		<path fill="#B85951" d="M76.831,200.178c0,0,0.391,0.038,0.99-0.015c0.009-3.764,3.984-9.23,1.5-10.208
			c-0.126-0.049-0.246-0.065-0.366-0.084C79.832,191.664,76.343,196.83,76.831,200.178z"/>
	</g>
</g>
<path fill="#938E73" d="M307.675,300.076h26.278c-0.773-1.612-2.079-6.528,6.115-12.933c10.075-7.875,10.934-10.768,7.074-15.59
	c-3.429-4.283-11.748-7.935,2.236-12.303c-2.038,0.107-4.097,0.229-6.182,0.365c-7.635,2.066-15.992,4.787-15.992,6.797
	c0,3.695,20.579,1.767,16.292,7.874C339.276,280.3,311.797,288.03,307.675,300.076z"/>
<path fill="#A8A483" d="M400.052,300.076c-1.417-2.507-5.45-7.815-15.817-12.479c-14.15-6.361-23.974-11.375-24.655-15.906
	c-0.938-6.229,2.883-9.906,10.456-13.063c-1.792,0.018-3.585,0.044-5.383,0.079c-5.443,2.498-12.576,6.61-12.576,11.015
	c0,7.12,14.578,15.756,14.793,23.027c0.102,3.451-1.149,5.801-2.492,7.327H400.052L400.052,300.076z"/>
<path fill="#A8A483" d="M23.511,276.863c-4.973-6.146,15.713-6.263,15.283-10.259c-0.242-2.246-9.45-4.356-17.475-5.776
	c-3.786,0.485-7.101,1.09-10.083,1.793c19.157,0.151,13.396,7.412,7.433,9.166c-4.857,1.43-0.857,10.287,9.749,18.608
	c4.949,3.885,6.844,7.233,7.474,9.681h24.787C52.831,289.015,28.069,282.493,23.511,276.863z"/>
<g>
	<path fill="#898C6D" d="M23.679,262.284c0,0,5.145-12.649,11.363-12.008c6.217,0.645,6.431,3.432,9.433,3.432
		c3.001,0,9.648-9.434,15.007-9.434s33.477,14.578,29.585,18.651S23.883,266.144,23.679,262.284z"/>
</g>
<path fill="#228643" d="M28.638,177.229c0,0-8.823,14.773-4.408,27.459c4.01,11.521,9.323,27.459,7.797,35.256
	c-1.525,7.798-8.813,14.578-8.305,20.341c0,0,5.88-10.066,9.947-14.644c4.068-4.576,2.765-12.646,1.24-20.783
	C33.384,216.726,18.807,197.399,28.638,177.229z"/>
<g>
	<path fill="#898C6D" d="M346.91,263.767c0,0,7.229-20.269,16.237-23.925c4.804-1.948,9.447,1.086,17.709,1.332
		c8.262,0.244,20.111-4.852,25.587,0.959c5.477,5.81,9.729,18.845,9.729,18.845S381.462,268.42,346.91,263.767z"/>
	<path fill="#A8A483" d="M351.282,258.786c0.411,2.222,8.144-13.002,14.287-14.145c6.143-1.144,14.431-0.142,14.859-1.572
		c0.43-1.43-11.286-3.571-16.288-1C359.14,244.642,350.568,254.929,351.282,258.786z"/>
	<path fill="#A8A483" d="M404.432,242.069c0.979,1.041-5.715,2.857-11.716,2.431c-6.001-0.431-9.145,1.428-8.716-0.572
		s6.431-3.144,9.717-3.144C397.002,240.784,402.146,239.642,404.432,242.069z"/>
</g>
<path fill="#558B2F" d="M18.906,209.917c0,0-3.391,8.136-1.864,11.02c1.525,2.881,11.017,15.594,11.017,20.34
	s-6.271,16.271-4.576,19.322c0,0-4.747-4.406-2.881-9.492c1.864-5.084,3.899-5.763,3.899-8.646c0-2.881-10.171-12.881-10.171-20.17
	S18.906,209.917,18.906,209.917z"/>
<path fill="#228643" d="M15.572,236.296c0,0-8.136,13.393,5.254,24.408c0,0-7.457-0.848-9.661-10.51
	C8.961,240.533,15.572,236.296,15.572,236.296z"/>
<path fill="#228643" d="M394.502,187.912c0,0-8.875,12.874-6.474,26.912c1.296,7.567,22.817,35.948,10.978,49.026
	c0,0,3.149-7.324,1.156-15.033c-1.994-7.711-16.464-24.295-16.49-37.149C383.646,198.813,394.502,187.912,394.502,187.912z"/>
<path fill="#43A047" d="M398.31,201.696c-2.364,4.156,2.018,19.574,3.025,29.66c1.009,10.084-7.461,26.519-3.098,32.64
	c0,0-4.361-4.738-2.404-15.226c1.956-10.484,4.147-14.02,2.731-18.795C391.992,207.84,398.31,201.696,398.31,201.696z"/>
<path fill="#22775E" d="M401.201,263.397c0,0,10.076-5.756,9.065-15.842c-1.009-10.084-8.75-23.518-4.811-31.832
	c0,0-5.523,7.329-3.134,15.631C404.714,239.656,409.095,254.284,401.201,263.397z"/>
<path fill="#558B2F" d="M390.995,235.947c3.565,3.751-1.334,25.518,6.187,27.875c0,0-6.723,0.407-7.729-8.489
	C388.444,246.437,390.995,235.947,390.995,235.947z"/>
<ellipse fill="#B5AB67" cx="106.392" cy="293.647" rx="2.715" ry="1.018"/>
<ellipse fill="#B5AB67" cx="99.964" cy="291.504" rx="1.858" ry="0.697"/>
<ellipse fill="#B5AB67" cx="97.178" cy="288.289" rx="1.858" ry="0.697"/>
<ellipse fill="#B5AB67" cx="116.037" cy="273.931" rx="1.429" ry="0.535"/>
<ellipse fill="#B5AB67" cx="121.395" cy="297.505" rx="1.429" ry="0.536"/>
<ellipse fill="#B5AB67" cx="122.253" cy="288.611" rx="1.429" ry="0.535"/>
<ellipse fill="#B5AB67" cx="119.393" cy="276.788" rx="2.715" ry="1.018"/>
<ellipse fill="#B5AB67" cx="111.108" cy="268.52" rx="2.715" ry="1.018"/>
<ellipse fill="#B5AB67" cx="71.245" cy="274.931" rx="2" ry="0.75"/>
<ellipse fill="#B5AB67" cx="104.249" cy="290.576" rx="2.001" ry="0.75"/>
<ellipse fill="#A8A483" cx="222.314" cy="281.276" rx="2.715" ry="1.019"/>
<ellipse fill="#A8A483" cx="174.593" cy="287.277" rx="2.715" ry="1.018"/>
<ellipse fill="#A8A483" cx="245.746" cy="292.296" rx="2.715" ry="1.02"/>
<ellipse fill="#B5AB67" cx="151.447" cy="278.169" rx="1.858" ry="0.696"/>
<ellipse fill="#A8A483" cx="230.314" cy="274.865" rx="1.858" ry="0.697"/>
<ellipse fill="#B5AB67" cx="229.67" cy="277.598" rx="2.001" ry="0.751"/>
<ellipse fill="#B5AB67" cx="224.027" cy="273.275" rx="2.716" ry="1.019"/>
<ellipse fill="#B5AB67" cx="229.314" cy="284.295" rx="1.857" ry="0.697"/>
<ellipse fill="#A8A483" cx="236.314" cy="288.742" rx="1.858" ry="0.696"/>
<ellipse fill="#A8A483" cx="179.451" cy="284.295" rx="1.859" ry="0.697"/>
<ellipse fill="#B5AB67" cx="232.602" cy="286.01" rx="2.002" ry="0.75"/>
<ellipse fill="#B5AB67" cx="35.384" cy="281.217" rx="1.858" ry="0.697"/>
<ellipse fill="#C0941A" cx="16.095" cy="290.004" rx="1.858" ry="0.697"/>
<ellipse fill="#A8A483" cx="21.526" cy="266.858" rx="1.858" ry="0.697"/>
<g>
	<ellipse fill="#BCAAA4" cx="66.958" cy="278.646" rx="4.572" ry="1.714"/>
	<ellipse fill="#BCAAA4" cx="289.986" cy="292.362" rx="4.574" ry="1.715"/>
	<ellipse fill="#BCAAA4" cx="101.964" cy="296.934" rx="4.572" ry="1.715"/>
	<ellipse fill="#BCAAA4" cx="219.743" cy="270.579" rx="1.43" ry="0.536"/>
	<ellipse fill="#BCAAA4" cx="127.968" cy="278.538" rx="1.429" ry="0.536"/>
	<ellipse fill="#BCAAA4" cx="298.563" cy="298.362" rx="2" ry="0.75"/>
	<ellipse fill="#BCAAA4" cx="74.46" cy="281.646" rx="2.501" ry="0.938"/>
	<ellipse fill="#BCAAA4" cx="284.417" cy="297.853" rx="2.5" ry="0.938"/>
	<ellipse fill="#BCAAA4" cx="42.885" cy="268.787" rx="2.501" ry="0.938"/>
	<ellipse fill="#BCAAA4" cx="48.101" cy="267.072" rx="1.858" ry="0.697"/>
	<ellipse fill="#BCAAA4" cx="64.104" cy="287.861" rx="1.858" ry="0.697"/>
</g>
<ellipse fill="#C0941A" cx="23.168" cy="291.361" rx="3.358" ry="1.26"/>
<ellipse fill="#B5AB67" cx="27.74" cy="294.646" rx="2.233" ry="0.838"/>
<g>
	<g>
		<ellipse fill="#BCAAA4" cx="378.998" cy="279.504" rx="4.572" ry="1.714"/>
		<ellipse fill="#BCAAA4" cx="337.891" cy="295.361" rx="2.961" ry="1.111"/>
		<ellipse fill="#BCAAA4" cx="397.47" cy="294.505" rx="2.961" ry="1.11"/>
		<ellipse fill="#BCAAA4" cx="414.147" cy="263.644" rx="2.001" ry="0.75"/>
	</g>
	<ellipse fill="#BCAAA4" cx="347.138" cy="266.644" rx="1.858" ry="0.697"/>
	<ellipse fill="#BCAAA4" cx="315.992" cy="263.911" rx="1.857" ry="0.698"/>
	<ellipse fill="#BCAAA4" cx="370.856" cy="277.379" rx="2.232" ry="0.838"/>
</g>
<g>
	<path fill="#938E73" d="M325.711,288.004c0,0,2.781,1.001,6.516,0.715c3.732-0.286,10.32,3.786,11.42,5.001
		c1.099,1.215,3.514,2.715,7.027,2.143c3.515-0.57-1.023-7.5,2.342-7.93c3.367-0.429,9.15,3.358,15.666,0.787
		c6.517-2.572-13.25-8.217-10.469-10.146c2.782-1.929,7.248-2.357,8.199-4.357c0.952-2-4.831-3.501-7.906-3.356
		C355.432,271.002,323.588,287.075,325.711,288.004z"/>
	<g>
		<path fill="#C4846F" d="M342.266,273.284c3.738-0.195,12.26-4.975,16.763-3.135c4.502,1.842-5.415,6.867-4.568,8.129
			c0.845,1.263,11.521,7.664,9.128,9.955c-2.392,2.293-11.021-3.11-13.503-1.807c-2.485,1.305,1.597,8.875-2.522,9.125
			c-4.725,0.287-4.932-8.929-9.557-9.607c-4.623-0.682-13.145,4.099-12.626,1.022c0.52-3.075,9.813-7.772,9.955-9.128
			s-6.245-5.74-4.035-6.292C333.508,270.997,342.266,273.284,342.266,273.284z"/>
		<g>
			<g>
				<path fill="#BA5A52" d="M353.315,276.994c0.139,0.206,0.544,0.552,1.107,0.993c0.413-1.604,8.763-6.09,4.636-7.82
					C359.091,272.433,352.626,275.963,353.315,276.994z"/>
				<path fill="#BA5A52" d="M333.778,275.646c-0.557-0.744-1.572-1.707-2.456-2.615
					C331.908,273.803,332.918,274.761,333.778,275.646z"/>
				<path fill="#BA5A52" d="M362.08,284.519c0.726,0.977,0.979,1.84,0.364,2.431c-2.393,2.292-11.021-3.11-13.504-1.808
					c-2.484,1.305,1.598,8.877-2.521,9.125c-0.915,0.057-1.66-0.248-2.302-0.774c0.881,1.267,1.931,2.153,3.443,2.062
					c4.119-0.25,0.037-7.82,2.522-9.125c2.482-1.305,11.111,4.1,13.503,1.807C364.463,287.396,363.584,286.004,362.08,284.519z"/>
				<path fill="#BA5A52" d="M336.862,284.658c-3.421-0.505-8.974,1.979-11.421,2.061c-0.025,0.085-0.05,0.169-0.063,0.249
					c-0.519,3.075,8.003-1.703,12.626-1.023c0.729,0.107,1.347,0.428,1.893,0.888C339.1,285.703,338.153,284.849,336.862,284.658z"
					/>
			</g>
			
				<ellipse transform="matrix(-0.4029 -0.9153 0.9153 -0.4029 220.4085 702.4019)" fill="#BA5A52" cx="339.335" cy="279.301" rx="1.039" ry="2.34"/>
			
				<ellipse transform="matrix(0.3491 -0.9371 0.9371 0.3491 -37.037 498.9761)" fill="#BA5A52" cx="340.647" cy="276.147" rx="1.038" ry="2.339"/>
			
				<ellipse transform="matrix(0.2601 -0.9656 0.9656 0.2601 -13.435 540.7476)" fill="#BA5A52" cx="346.122" cy="279.14" rx="1.038" ry="2.339"/>
			
				<ellipse transform="matrix(0.2596 -0.9657 0.9657 0.2596 -11.153 546.8833)" fill="#BA5A52" cx="351.06" cy="280.715" rx="0.916" ry="2.064"/>
			
				<ellipse transform="matrix(0.4098 -0.9122 0.9122 0.4098 -47.9954 490.8064)" fill="#BA5A52" cx="355.269" cy="282.491" rx="0.685" ry="1.543"/>
			
				<ellipse transform="matrix(0.4106 -0.9118 0.9118 0.4106 -47.7849 494.8115)" fill="#BA5A52" cx="358.837" cy="284.367" rx="0.684" ry="1.541"/>
			<path fill="#BA5A52" d="M344.383,283.401c-0.633,0.382-1.678-0.185-2.328-1.266c-0.651-1.078-0.668-2.266-0.031-2.65
				c0.635-0.381,1.68,0.186,2.327,1.268C345.004,281.83,345.018,283.017,344.383,283.401z"/>
			
				<ellipse transform="matrix(0.9511 -0.3088 0.3088 0.9511 -71.3938 120.3444)" fill="#BA5A52" cx="344.451" cy="285.693" rx="1.23" ry="1.761"/>
			<path fill="#BA5A52" d="M345.867,290.614c-0.492,0.16-1.081-0.281-1.31-0.988c-0.23-0.706-0.018-1.409,0.478-1.57
				c0.493-0.158,1.081,0.282,1.309,0.989C346.575,289.749,346.36,290.453,345.867,290.614z"/>
			
				<ellipse transform="matrix(0.9511 -0.309 0.309 0.9511 -73.373 121.2593)" fill="#BA5A52" cx="346.149" cy="292.28" rx="0.689" ry="0.986"/>
			
				<ellipse transform="matrix(0.3488 -0.9372 0.9372 0.3488 -38.0887 494.0439)" fill="#BA5A52" cx="336.478" cy="274.431" rx="0.63" ry="1.418"/>
			
				<ellipse transform="matrix(0.3497 -0.9369 0.9369 0.3497 -38.7867 489.4097)" fill="#BA5A52" cx="333.125" cy="272.643" rx="0.51" ry="1.151"/>
			
				<ellipse transform="matrix(-0.4031 -0.9151 0.9151 -0.4031 211.8658 700.8828)" fill="#BA5A52" cx="334.499" cy="281.35" rx="0.556" ry="1.25"/>
			
				<ellipse transform="matrix(-0.4031 -0.9151 0.9151 -0.4031 206.0356 700.2931)" fill="#BA5A52" cx="331.391" cy="282.956" rx="0.556" ry="1.251"/>
			
				<ellipse transform="matrix(-0.4032 -0.9151 0.9151 -0.4032 200.7271 700.051)" fill="#BA5A52" cx="328.63" cy="284.574" rx="0.404" ry="0.913"/>
			
				<ellipse transform="matrix(-0.403 -0.9152 0.9152 -0.403 232.2244 703.4506)" fill="#BA5A52" cx="345.541" cy="275.986" rx="1.078" ry="2.428"/>
			
				<ellipse transform="matrix(-0.4027 -0.9153 0.9153 -0.4027 239.7666 703.976)" fill="#BA5A52" cx="349.563" cy="273.762" rx="0.747" ry="1.682"/>
			
				<ellipse transform="matrix(-0.4026 -0.9154 0.9154 -0.4026 245.4496 704.7887)" fill="#BA5A52" cx="352.717" cy="272.297" rx="0.66" ry="1.096"/>
			
				<ellipse transform="matrix(-0.2364 -0.9716 0.9716 -0.2364 176.4921 680.9946)" fill="#BA5A52" cx="355.827" cy="271.149" rx="0.659" ry="1.095"/>
		</g>
	</g>
</g>
<g>
	<path fill="#938E73" d="M37.863,287.076c0,0-1.995,1.165-4.903,1.477s-7.388,4.378-8.059,5.466
		c-0.67,1.092-2.313,2.586-5.093,2.647c-2.78,0.062-0.28-5.907-2.927-5.757c-2.648,0.15-6.551,3.882-11.919,2.834
		c-5.371-1.049,9.007-8.196,6.595-9.282c-2.41-1.085-5.903-0.776-6.917-2.179c-1.016-1.4,3.212-3.377,5.595-3.705
		C12.615,278.249,39.361,286.062,37.863,287.076z"/>
	<g>
		<path fill="#FFAB91" d="M23.051,278.129c-2.898,0.381-10.123-2.076-13.318-0.021c-3.196,2.056,5.136,4.502,4.666,5.593
			c-0.47,1.09-7.757,7.526-5.593,8.946c2.163,1.418,8.021-3.961,10.115-3.312c2.094,0.647,0.037,7.043,3.234,6.647
			c3.67-0.451,2.518-7.56,5.974-8.738c3.452-1.182,10.678,1.277,9.841-1.014c-0.835-2.287-8.642-4.571-8.944-5.592
			c-0.302-1.021,3.979-5.299,2.203-5.406C29.452,275.124,23.051,278.129,23.051,278.129z"/>
		<g>
			<g>
				<path fill="#FF8A65" d="M15.094,282.55c-0.077,0.18-0.339,0.502-0.71,0.924c-0.545-1.177-7.597-3.431-4.674-5.349
					C10.009,279.869,15.477,281.661,15.094,282.55z"/>
				<path fill="#FF8A65" d="M29.907,278.731c0.321-0.65,0.965-1.533,1.514-2.358C31.081,277.052,30.441,277.933,29.907,278.731z"/>
				<path fill="#FF8A65" d="M9.434,289.577c-0.419,0.854-0.492,1.553,0.065,1.919c2.165,1.419,8.022-3.959,10.115-3.312
					c2.094,0.648,0.037,7.045,3.235,6.648c0.712-0.088,1.241-0.428,1.659-0.922c-0.497,1.098-1.177,1.928-2.354,2.072
					c-3.198,0.395-1.141-6-3.234-6.648c-2.094-0.648-7.952,4.729-10.115,3.311C8.013,292.125,8.49,290.933,9.434,289.577z"/>
				<path fill="#FF8A65" d="M28.822,286.097c2.555-0.875,7.173,0.24,9.064-0.046c0.032,0.062,0.062,0.121,0.083,0.183
					c0.836,2.289-6.389-0.168-9.841,1.013c-0.545,0.187-0.975,0.519-1.327,0.95C27.252,287.216,27.858,286.424,28.822,286.097z"/>
			</g>
			
				<ellipse transform="matrix(-0.2288 0.9735 -0.9735 -0.2288 306.9426 321.4599)" fill="#FF8A65" cx="26.135" cy="282.316" rx="0.811" ry="1.827"/>
			
				<ellipse transform="matrix(0.5142 0.8577 -0.8577 0.5142 252.233 114.8918)" fill="#FF8A65" cx="24.699" cy="280.098" rx="0.81" ry="1.827"/>
			
				<ellipse transform="matrix(0.4312 0.9022 -0.9022 0.4312 267.3811 142.2001)" fill="#FF8A65" cx="20.904" cy="283.174" rx="0.81" ry="1.827"/>
			
				<ellipse transform="matrix(0.4313 0.9022 -0.9022 0.4313 267.0789 146.4885)" fill="#FF8A65" cx="17.342" cy="285.096" rx="0.715" ry="1.612"/>
			
				<ellipse transform="matrix(0.5698 0.8218 -0.8218 0.5698 242.0946 111.7027)" fill="#FF8A65" cx="14.361" cy="287.073" rx="0.535" ry="1.204"/>
			
				<ellipse transform="matrix(0.5695 0.822 -0.822 0.5695 242.657 114.6339)" fill="#FF8A65" cx="11.885" cy="288.987" rx="0.533" ry="1.205"/>
			
				<ellipse transform="matrix(0.9361 0.3517 -0.3517 0.9361 101.5739 9.9176)" fill="#FF8A65" cx="23.49" cy="284.533" rx="1.048" ry="1.785"/>
			<path fill="#FF8A65" d="M22.961,289.332c0.525,0.069,1.034-0.485,1.132-1.238c0.1-0.752-0.245-1.419-0.774-1.487
				c-0.524-0.069-1.032,0.484-1.13,1.237C22.087,288.595,22.435,289.263,22.961,289.332z"/>
			
				<ellipse transform="matrix(0.9914 0.1311 -0.1311 0.9914 38.3295 -0.4907)" fill="#FF8A65" cx="22.892" cy="290.919" rx="0.734" ry="1.051"/>
			<path fill="#FF8A65" d="M22.681,294.041c0.294,0.037,0.58-0.272,0.634-0.692c0.056-0.423-0.137-0.797-0.432-0.836
				c-0.295-0.037-0.58,0.272-0.635,0.694C22.193,293.628,22.386,294.001,22.681,294.041z"/>
			
				<ellipse transform="matrix(0.5139 0.8578 -0.8578 0.5139 252.0873 111.5073)" fill="#FF8A65" cx="27.65" cy="278.194" rx="0.491" ry="1.108"/>
			
				<ellipse transform="matrix(0.5136 0.858 -0.858 0.5136 251.677 108.6931)" fill="#FF8A65" cx="29.97" cy="276.329" rx="0.398" ry="0.899"/>
			
				<ellipse transform="matrix(-0.2293 0.9734 -0.9734 -0.2293 312.7465 318.8267)" fill="#FF8A65" cx="30.149" cy="283.23" rx="0.434" ry="0.977"/>
			
				<ellipse transform="matrix(-0.2288 0.9735 -0.9735 -0.2288 316.7451 317.1093)" fill="#FF8A65" cx="32.758" cy="284.025" rx="0.434" ry="0.977"/>
			
				<ellipse transform="matrix(-0.2287 0.9735 -0.9735 -0.2287 320.4564 315.7871)" fill="#FF8A65" cx="35.135" cy="284.837" rx="0.317" ry="0.713"/>
			
				<ellipse transform="matrix(-0.2292 0.9734 -0.9734 -0.2292 298.9519 324.6192)" fill="#FF8A65" cx="20.94" cy="280.683" rx="0.843" ry="1.897"/>
			
				<ellipse transform="matrix(-0.2296 0.9733 -0.9733 -0.2296 293.6554 326.679)" fill="#FF8A65" cx="17.53" cy="279.566" rx="0.585" ry="1.314"/>
			
				<ellipse transform="matrix(-0.2294 0.9733 -0.9733 -0.2294 289.7406 328.3337)" fill="#FF8A65" cx="14.895" cy="278.865" rx="0.516" ry="0.855"/>
			
				<ellipse transform="matrix(-0.0554 0.9985 -0.9985 -0.0554 290.9678 281.5388)" fill="#FF8A65" cx="12.304" cy="278.41" rx="0.516" ry="0.855"/>
		</g>
	</g>
</g>
<g>
	<path fill="#938E73" d="M392.608,281.003c0,0,5.466,1.93,10.072,0.536c4.607-1.394,2.786-2.786,7.072-2.786
		s15.216-4.607,11.358-5.68c-3.858-1.072-10.823-1.5-10.823-1.5L392.608,281.003z"/>
	<path fill="#C7B09B" d="M412.142,269.218c-1.002-0.014-1.708,0.195-2.169,0.41c-0.423-0.6-0.979-1.04-1.623-1.18
		c-1.966-0.428-3.05,0.265-3.47,0.64c-1.374-1.366-3.204-1.872-5.11-1.724c-2.471,0.193-4.045,1.613-4.466,2.039
		c-0.59-0.168-1.225-0.284-1.92-0.327c-7.212-0.457-10.52,2.165-10.52,2.165c0.799,0.171,5.633,10.15,11.146,9.893
		c2.882-0.135,4.74-1.486,5.607-3.238c4.091,1.412,6.208-0.39,6.93-2.563c0.004,0.044,0.006,0.072,0.006,0.072
		c2.616,0.448,3.865-0.698,4.191-2.188c3.972,0.772,7.126-3.173,7.126-3.173C414.621,270.586,414.165,269.246,412.142,269.218z"/>
	<path fill="#9E8571" d="M417.219,270.131c-1.06,0.854-2.984,2.097-5.214,2.099c-0.188-0.461-0.473-1.095-0.772-1.553
		c-0.523-0.797-1.358-1.098-1.358-1.098s0.293,0.597,0.644,1.393c0.2,0.459,0.17,0.844,0.107,1.096
		c-0.018-0.006-0.036-0.006-0.055-0.012c-0.339,1.166-1.279,2.063-2.984,2.077c0.097-0.751,0.069-1.905-0.712-2.946
		c-1.286-1.715-2.371-2.513-2.371-2.513s0.335,1.013,1.192,2.728c0.856,1.715,0.429,2.498,0.429,2.498l0.112,0.092
		c-0.04-0.01-0.072-0.01-0.112-0.02c0,0,0-0.027,0-0.072c-0.729,1.763-2.43,3.201-5.337,2.69c-0.299-1.017-0.938-2.909-1.843-4.116
		c-1.286-1.716-3.765-2.941-3.765-2.941s2.156,2.084,3.015,3.798c0.856,1.715,0.643,2.688,0.643,2.688
		c-0.999,1.694-2.995,2.926-5.967,2.877c-2.263-0.037-4.313-1.684-6.016-3.666c2.771,1.94,6.163,3.277,8.291,0.422
		c1.169-1.567-0.397-4.788-4.22-5.7c-3.818-0.912-8.665,1.168-8.665,1.168s0.862,0.983,2.172,2.167
		c2.019,2.951,5.624,8.033,9.578,7.849c2.882-0.135,4.74-1.487,5.607-3.239c4.091,1.414,6.208-0.389,6.93-2.563
		c0.004,0.044,0.006,0.072,0.006,0.072c2.616,0.447,3.865-0.698,4.191-2.188c3.972,0.772,7.126-3.173,7.126-3.173
		C417.639,270.083,417.425,270.108,417.219,270.131z"/>
</g>
<g>
	<path fill="#938E73" d="M412.156,284.615c0.026-0.093,0.048-0.171,0.064-0.244c0.002-0.007,0.004-0.017,0.008-0.022
		c1.485-0.272,4.517-1.043,5.315-1.813c0,0-0.02-0.825-0.692-1.959c-0.021-0.034-0.041-0.068-0.062-0.104
		c-0.375-0.608-2.407-1.688-3.353-1.845l0,0c-0.007-0.006-0.016-0.012-0.022-0.019c-0.296-0.242-0.63-0.485-0.999-0.728
		c-0.003-0.001-0.005-0.002-0.005-0.003l0,0c-0.3-0.195-0.614-0.39-0.965-0.579c-0.331-0.18-0.649-0.327-0.963-0.463l0,0
		c-0.003-0.001-0.008-0.002-0.009-0.004c-1.628-0.697-3.005-0.825-4.063-0.733c-0.022,0.002-0.041,0.006-0.063,0.008
		c-0.241,0.021-0.471,0.055-0.677,0.097c-0.003,0-0.005,0-0.006,0.001l0,0c-1.04,0.211-1.621,0.595-1.621,0.595
		s0.344,2.157,1.588,4.25c-0.009,0.013-0.017,0.031-0.024,0.045c-0.023,0.038-0.047,0.079-0.069,0.128
		c-0.013,0.027-0.026,0.058-0.04,0.086c-0.241,0.557-0.405,1.528-0.123,2.037c0.399,0.723,2.889,0.635,3.063,0.627
		c0.006,0.004,0.011,0.008,0.017,0.012c-0.006-0.002-0.016-0.002-0.021-0.002c0,0,0.019,0.021,0.043,0.05
		c0.006,0.004,0.006,0.004,0.013,0.01c0.306,0.33,1.94,2.041,2.693,1.89C411.705,285.826,412.005,285.122,412.156,284.615
		L412.156,284.615z"/>
	<g>
		<path fill="#706E58" d="M407.982,282.869c0,0-2.577,0.211-2.951-0.498c-0.373-0.709,0.213-2.44,0.548-2.392
			C405.914,280.031,407.982,282.869,407.982,282.869z"/>
		<path fill="#706E58" d="M407.961,282.881c0,0,1.778,1.978,2.586,1.786c0.807-0.191,1.125-1.824,1.125-1.824
			S408.264,282.856,407.961,282.881z"/>
		<g>
			<path fill="#9B9779" d="M411.672,282.843c0,0-3.408,0.014-3.711,0.038c0,0,0.271,0.3,0.646,0.654
				c0.837,0.161,1.888,0.079,2.924-0.173C411.628,283.069,411.672,282.843,411.672,282.843z"/>
			<path fill="#9B9779" d="M407.982,282.869c0,0-2.068-2.838-2.403-2.89c-0.134-0.021-0.305,0.246-0.44,0.614
				c0.506,0.854,1.176,1.681,2.066,2.304C407.648,282.896,407.982,282.869,407.982,282.869z"/>
		</g>
		<path fill="#BDBDBD" d="M408.102,282.955c1.735,0.932,5.652-0.101,7.191-1.585c0,0,0.058-2.85-4.194-5.051
			c-4.252-2.2-7.125-0.229-7.125-0.229S404.581,281.063,408.102,282.955z"/>
		<g>
			<path fill="#9B9779" d="M407.59,282.483c-0.126-0.198-0.263-0.506-0.408-0.875c-0.076-0.185-0.123-0.397-0.191-0.612
				c-0.074-0.213-0.103-0.455-0.156-0.694c-0.092-0.482-0.132-1.009-0.151-1.527c-0.021-1.049,0.106-2.088,0.249-2.851
				c0.05-0.251,0.096-0.458,0.141-0.643c-0.576,0.006-1.084,0.077-1.514,0.179c-0.001,0.113-0.004,0.219-0.005,0.343
				c0.004,0.847,0.081,1.974,0.314,3.068c0.126,0.547,0.274,1.085,0.468,1.571c0.104,0.24,0.179,0.479,0.299,0.688
				c0.114,0.209,0.202,0.414,0.319,0.588c0.221,0.353,0.415,0.63,0.578,0.806c0.055,0.064,0.097,0.115,0.134,0.16
				c0.018,0.01,0.035,0.021,0.054,0.032C407.688,282.662,407.645,282.584,407.59,282.483z"/>
			<path fill="#9B9779" d="M413.395,280.94c0.444-0.229,0.827-0.508,1.172-0.722c0.132-0.096,0.248-0.179,0.361-0.262
				c-0.146-0.325-0.347-0.687-0.633-1.07c-0.123,0.13-0.269,0.274-0.439,0.45c-0.284,0.242-0.595,0.559-0.977,0.837
				c-0.373,0.294-0.775,0.604-1.206,0.874c-0.421,0.294-0.856,0.555-1.28,0.777c-0.415,0.236-0.813,0.459-1.173,0.607
				c-0.577,0.264-0.994,0.451-1.13,0.515c0.004,0.002,0.007,0.004,0.012,0.007c0.013,0.005,0.025,0.009,0.037,0.016
				c0.179-0.049,0.599-0.164,1.16-0.318c0.378-0.09,0.807-0.245,1.271-0.42c0.469-0.16,0.962-0.355,1.435-0.586
				C412.492,281.437,412.958,281.187,413.395,280.94z"/>
			<path fill="#9B9779" d="M408.205,282.664c0.166-0.146,0.42-0.345,0.698-0.606c0.555-0.527,1.271-1.26,1.952-2.024
				c0.829-0.925,1.623-1.886,2.119-2.499c-0.284-0.229-0.606-0.46-0.966-0.688c-0.383,0.67-1.005,1.738-1.678,2.788
				c-0.541,0.854-1.121,1.679-1.58,2.284c-0.231,0.3-0.445,0.531-0.587,0.705c-0.104,0.122-0.174,0.205-0.206,0.242
				c0.002,0.001,0.002,0.003,0.005,0.004C408.002,282.837,408.084,282.769,408.205,282.664z"/>
			<path fill="#9B9779" d="M407.846,282.526c-0.021-0.224,0.011-0.536,0.042-0.903c0.053-0.371,0.135-0.797,0.256-1.245
				c0.131-0.447,0.284-0.915,0.471-1.375c0.367-0.919,0.817-1.801,1.183-2.441c0.153-0.269,0.282-0.482,0.389-0.654
				c-0.423-0.172-0.83-0.301-1.221-0.396c-0.063,0.168-0.136,0.354-0.216,0.57c-0.265,0.73-0.574,1.718-0.789,2.727
				c-0.109,0.504-0.186,1.015-0.241,1.494c-0.046,0.481-0.056,0.93-0.043,1.314c0.032,0.388,0.057,0.704,0.112,0.917
				c0.025,0.121,0.043,0.202,0.057,0.262c0.003,0.003,0.009,0.006,0.013,0.009C407.854,282.745,407.851,282.662,407.846,282.526z"/>
		</g>
	</g>
</g>
<path fill="#938E73" d="M111.108,285.79c0.043,0.432-15.403,5.43-27.68-0.715C71.152,278.933,110.824,282.933,111.108,285.79z"/>
<g>
	<path fill="#A8A483" d="M85.82,284.604c0,0,7.194-10.9,12.208-10.9c5.014,0,13.081,11.99,13.081,11.99
		S95.848,288.526,85.82,284.604z"/>
	<path fill="#B5B193" d="M93.535,277.433c0.333,1.33,3.214-0.966,6.215,0c3,0.963,4.179,3.215,5.144,2.57
		c0.964-0.643-4.822-5.357-6.965-5.572C95.785,274.217,93.428,277.003,93.535,277.433z"/>
</g>
<path fill="#A8A483" d="M36.474,256.049c7.983,0.826,7.622,5.041,14.767-1.184c6.125-5.337,9.794-4.433,16.718-1.214
	c2.501,1.164,16.666,10.705,17.818,9.498c2.669-2.793-8.992-9.164-10.417-9.983c-4.793-2.761-10.173-5.842-15.64-7.021
	c-6.446-1.393-11.211,10.866-16.679,8.115c-6.832-3.438-10.857-3.275-15.1,3.766C21.096,269.383,32.934,255.685,36.474,256.049
	C42.193,256.642,32.822,255.672,36.474,256.049z"/>
<path fill="#43A047" d="M18.158,201.044c0,0,9.796,12.071,9.492,21.125c-0.41,12.186-11.332,21.02-10.554,27.9
	c0.706,6.25,4.452,10.537,4.452,10.537s-7.289-5.559-7.289-11.754c0-6.193,10.444-21.601,10.34-27.002
	C24.43,213.115,18.158,201.044,18.158,201.044z"/>
<path fill="#7A7660" d="M91.529,265.084c0,0,9.341,2.065,1.256,6.149c0,0-5.947,3.537-11.52-0.321c0,0-7.376,1.592-9.948-1.267
	c0,0-18.454,2.362-13.972-6.254c0,0,22.687,2.467,26.973,2.896C88.606,266.717,91.529,265.084,91.529,265.084z"/>
<path fill="#D87451" d="M89.644,261.222c0,0-1.288-4.75,0.298-5.406c1.589-0.659,0.608,4.637,0.608,4.637s1.971-4.69,3.165-4.451
	c1.195,0.24-1.976,4.794-1.976,4.794s3.042-2.608,3.772-1.726c0.731,0.885-3.258,3.285-3.258,3.285s3.71-1.707,4.398-0.847
	c0.69,0.861-4.033,2.004-4.033,2.004s3.56-0.196,3.775,0.562c0.215,0.757-3.52,0.219-3.52,0.219s4.785,0.75,4.425,1.877
	c-0.36,1.126-4.785-1.229-5.77-1.084c0,0-0.33,0.2-0.782,1.314c-1.003,2.471-4.671,5.632-7.262,2.176
	c-2.59-3.458,1.19-5.867,2.373-6.272C87.628,261.692,88.967,262.438,89.644,261.222z"/>
<path fill="#AB534B" d="M58.378,263.983c0,0-4.031,2.822-5.188,1.553c-1.159-1.27,4.155-2.145,4.155-2.145s-5.08-0.262-5.261-1.467
	c-0.179-1.205,5.181,0.232,5.181,0.232s-3.485-1.977-2.902-2.965c0.583-0.986,4.195,1.953,4.195,1.953s-2.865-2.912-2.288-3.853
	s3.254,3.115,3.254,3.115s-1.393-3.283-0.754-3.744c0.639-0.458,1.4,3.237,1.4,3.237s-0.918-4.756,0.264-4.799
	c1.182-0.045,0.468,4.918,0.938,5.795c0,0,0.3,0.242,1.503,0.289c2.663,0.105,6.882,2.484,4.509,6.095
	c-2.375,3.608-5.923,0.87-6.706-0.104C59.507,265.722,59.752,264.207,58.378,263.983z"/>
<g>
	<path fill="#BA5A52" d="M72,257.201c0,0,3.14-1.982,5.055-0.685c1.915,1.297,7.352,6.26,5.886,9.907
		c-1.466,3.647-12.635,3.751-14.12,1.462C67.336,265.597,67.302,260.354,72,257.201z"/>
	<path fill="#D87451" d="M71.068,261.372c0,0,1.619,2.419,0.452,2.929c-1.167,0.509-1.742-2.5-1.742-2.5s-1.947,4.648-3.547,4.347
		c-1.6-0.301,1.697-4.066,1.697-4.066s-5.93,4.366-6.867,1.91c-0.937-2.455,7.019-3.215,7.019-3.215s-7.948-0.728-6.786-3.038
		c1.163-2.312,6.868,1.907,6.868,1.907s-5.443-4.484-4.495-5.531c0.948-1.047,4.971,4.001,4.971,4.001s-4.069-5.78-2.649-6.341
		c1.42-0.563,4.15,5.656,4.15,5.656s-1.598-7.41,0.205-8.423c1.804-1.013,1.722,6.218,1.722,6.218s0.152-6.131,1.23-6.303
		s0.041,6.036,0.041,6.036s1.298-4.192,2.304-4.458c1.006-0.263,0.695,2.825-1.169,5.071c0,0,2.046-2.392,2.9-1.351
		c0.854,1.043-2.652,3.047-2.652,3.047s1.231,1.068,0.433,1.818c-0.798,0.75-2.189-0.072-2.189-0.072s2.226,2.027,1.417,2.727
		C73.571,262.44,71.068,261.372,71.068,261.372z"/>
	<path fill="#AB534B" d="M71.419,258.839c0,0,1.728,2.696,0.919,3.203s-1.598-2.152-1.598-2.152s-0.575,3.207-1.504,3.036
		c-0.93-0.17,0.4-2.618,0.4-2.618s-3.184,2.262-4.021,0.69c-0.324-0.606,3.632-1.049,3.632-1.049s-4.941,0.174-4.417-1.33
		c0.286-0.817,4.159,0.416,4.159,0.416s-3.807-1.371-3.53-1.939c0.276-0.567,2.212,0.541,2.212,0.541s-2.282-1.614-1.861-2.479
		c0.42-0.865,3.86,2.128,3.86,2.128s-3.408-3.175-2.815-3.815c0.592-0.64,3.377,3.413,3.377,3.413s-1.554-3.343-0.917-4.017
		c0.637-0.676,1.83,2.717,1.912,3.882c0,0,0.44-1.081,0.214-2.062c-0.227-0.983-1.412-1.615-1.065-2.039
		c0.347-0.422,2.728,0.989,1.449,3.912c0,0,1.187-3.08,1.893-2.796c0.704,0.287-1.029,3.103-1.029,3.103s2.5-1.035,3.055-0.092
		c0.553,0.944-3.497,1.002-3.497,1.002s2.074,0.307,2.012,0.781c-0.063,0.477-2.604-0.142-2.604-0.142s3.133,0.848,2.723,1.635
		C73.965,260.835,71.419,258.839,71.419,258.839z"/>
</g>
<ellipse fill="#A8A483" cx="243.746" cy="295.439" rx="1.43" ry="0.536"/>
<ellipse fill="#A8A483" cx="241.174" cy="297.725" rx="2.717" ry="1.019"/>
<path fill="#938E73" d="M200.622,287.146c10.076-7.875,10.933-10.769,7.075-15.59c-0.47-0.588-1.032-1.162-1.616-1.729
	c-2.767-0.103-5.549-0.216-8.344-0.343c4.515,0.742,8.423,1.801,6.314,4.805c-4.222,6.012-31.702,13.742-35.824,25.788h26.278
	C193.733,298.464,192.427,293.548,200.622,287.146z"/>
</svg>
