<?xml version="1.0" encoding="utf-8"?>
<!-- Generator: Adobe Illustrator 15.1.0, SVG Export Plug-In . SVG Version: 6.00 Build 0)  -->
<!DOCTYPE svg PUBLIC "-//W3C//DTD SVG 1.1//EN" "http://www.w3.org/Graphics/SVG/1.1/DTD/svg11.dtd">
<svg version="1.1" id="Layer_1" xmlns="http://www.w3.org/2000/svg" xmlns:xlink="http://www.w3.org/1999/xlink" x="0px" y="0px"
	 width="422.977px" height="299.076px" viewBox="0 0 422.977 299.076" enable-background="new 0 0 422.977 299.076"
	 xml:space="preserve">
<g>
	<path fill="#201138" d="M180.557,183.013c-2.23,6.021-4.043,9.85-3.134,16.581c1.378,10.2,9.233,16.405,19.133,8.298
		c2.642-2.938,3.987-6.183,4.552-9.584c1.006-6.059-0.458-12.617-1.48-18.834c-0.704-4.287-1.667-8.009-2.177-12.41
		c-0.456-3.032-0.695-5.147-0.742-8.215c-0.03-1.593,0.139-3.717-0.278-5.256c-0.41-1.515-1.425-2.57-3.688-1.773
		c-4.894,1.725,1.987,9.565,2.309,11.428c1.333,7.715,4.162,20.579,3.691,27.521c0.036,25.291-24.155,17.358-19.458,4.487
		c1.41,0.976,1.022,2.029,2.226,3.187C181.359,194.49,181.051,186.854,180.557,183.013L180.557,183.013z"/>
	<path fill="none" stroke="#201138" stroke-width="1.7145" stroke-miterlimit="10" d="M177.988-1165.962c0,0-9,273-6,381
		c0.632,22.746,16.598,256.334,19,323c4.566,126.708-4.927,234.54,2.037,290.77s3.201,151.739,0,212.026
		c-3.429,64.58,1.143,114.302,1.143,114.302"/>
</g>
</svg>
